STARTFONT 2.1
COMMENT Created by fdbbdf
FONT apticn20.fwm
SIZE 20 78 78
FONTBOUNDINGBOX 39 25 -19 -13
STARTPROPERTIES 4
Ownership "  "
FONT_ASCENT 12
FONT_DESCENT 13
DEFAULT_CHAR 38
ENDPROPERTIES
CHARS 47
STARTCHAR &
ENCODING -1 38
SWIDTH 0 0
DWIDTH 20 0
BBX 0 0 0 0
BITMAP
ENDCHAR
STARTCHAR 0
ENCODING -1 48
SWIDTH 0 0
DWIDTH 0 0
BBX 9 7 0 -4
BITMAP
1000
3000
7f80
ff80
7f80
3000
1000
ENDCHAR
STARTCHAR 1
ENCODING -1 49
SWIDTH 0 0
DWIDTH 0 0
BBX 9 7 -8 -4
BITMAP
0400
0600
ff00
ff80
ff00
0600
0400
ENDCHAR
STARTCHAR 2
ENCODING -1 50
SWIDTH 0 0
DWIDTH 0 0
BBX 7 9 -3 -9
BITMAP
1000
3800
7c00
fe00
3800
3800
3800
3800
3800
ENDCHAR
STARTCHAR 3
ENCODING -1 51
SWIDTH 0 0
DWIDTH 0 0
BBX 7 9 -3 -1
BITMAP
3800
3800
3800
3800
3800
fe00
7c00
3800
1000
ENDCHAR
STARTCHAR A
ENCODING -1 65
SWIDTH 0 0
DWIDTH 13 0
BBX 13 13 0 -13
BITMAP
8000
e000
fe00
fc00
f000
f800
dc00
8f00
87c0
03f8
01f0
00e0
0040
ENDCHAR
STARTCHAR B
ENCODING -1 66
SWIDTH 0 0
DWIDTH 0 0
BBX 14 15 -6 -8
BITMAP
07e0
0ff0
1e38
1c1c
1c1c
0e1c
003c
01f8
03f0
0380
0380
0000
0380
0380
0380
ENDCHAR
STARTCHAR C
ENCODING -1 67
SWIDTH 0 0
DWIDTH 0 0
BBX 14 15 -7 -8
BITMAP
0100
0380
0380
07c0
07c0
07c0
07c0
07c0
0380
0380
0100
0000
0380
0380
0380
ENDCHAR
STARTCHAR D
ENCODING -1 68
SWIDTH 0 0
DWIDTH 8 0
BBX 15 15 -7 -8
BITMAP
0010
0028
0054
00aa
0114
0248
0490
0920
1240
2480
3100
4a00
ac00
d000
e000
ENDCHAR
STARTCHAR E
ENCODING -1 69
SWIDTH 0 0
DWIDTH 6 0
BBX 11 11 -5 -6
BITMAP
1f00
7fc0
7fc0
ffe0
ffe0
ffe0
ffe0
ffe0
7fc0
7fc0
1f00
ENDCHAR
STARTCHAR F
ENCODING -1 70
SWIDTH 0 0
DWIDTH 13 0
BBX 11 11 1 -2
BITMAP
1f00
75c0
4040
ce60
9f20
df60
9f20
ce60
4040
75c0
1f00
ENDCHAR
STARTCHAR G
ENCODING -1 71
SWIDTH 0 0
DWIDTH 0 0
BBX 13 13 -6 -7
BITMAP
1fc0
1fc0
0f80
c718
e038
f778
f778
f778
e038
c718
0f80
1fc0
1fc0
ENDCHAR
STARTCHAR H
ENCODING -1 72
SWIDTH 0 0
DWIDTH 0 0
BBX 21 13 -10 -7
BITMAP
00200000
00700000
00f80000
00200000
20702000
60f83000
fffff800
60f83000
20702000
00200000
00f80000
00700000
00200000
ENDCHAR
STARTCHAR I
ENCODING -1 73
SWIDTH 0 0
DWIDTH 0 0
BBX 13 13 0 -13
BITMAP
0ff8
3c00
7c00
7c00
fc00
fc00
8000
8000
8000
8000
8000
8000
8000
ENDCHAR
STARTCHAR J
ENCODING -1 74
SWIDTH 0 0
DWIDTH 0 0
BBX 13 13 -12 -1
BITMAP
0008
0008
0008
0008
0008
0008
0008
01f8
01f8
01f0
01f0
01e0
ff80
ENDCHAR
STARTCHAR K
ENCODING -1 75
SWIDTH 0 0
DWIDTH 0 0
BBX 13 13 -12 -13
BITMAP
ff80
01e0
01f0
01f0
01f8
01f8
0008
0008
0008
0008
0008
0008
0008
ENDCHAR
STARTCHAR L
ENCODING -1 76
SWIDTH 0 0
DWIDTH 0 0
BBX 13 13 0 -1
BITMAP
8000
8000
8000
8000
8000
8000
8000
fc00
fc00
7c00
7c00
3c00
0ff8
ENDCHAR
STARTCHAR M
ENCODING -1 77
SWIDTH 0 0
DWIDTH 5 0
BBX 9 5 -4 -5
BITMAP
ff80
3e00
3e00
3e00
3e00
ENDCHAR
STARTCHAR N
ENCODING -1 78
SWIDTH 0 0
DWIDTH 5 0
BBX 9 5 -4 -1
BITMAP
3e00
3e00
3e00
3e00
ff80
ENDCHAR
STARTCHAR P
ENCODING -1 80
SWIDTH 0 0
DWIDTH 5 0
BBX 9 9 -4 -5
BITMAP
0800
0800
1c00
2a00
f780
2a00
1c00
0800
0800
ENDCHAR
STARTCHAR R
ENCODING -1 82
SWIDTH 0 0
DWIDTH 6 0
BBX 11 11 -5 -6
BITMAP
1f00
75c0
4040
c060
8420
ce60
8420
c060
4040
75c0
1f00
ENDCHAR
STARTCHAR S
ENCODING -1 83
SWIDTH 0 0
DWIDTH 9 0
BBX 13 13 0 -13
BITMAP
0fc0
3fc0
7000
6000
c000
c000
c000
c000
c000
c000
c000
0000
0000
ENDCHAR
STARTCHAR T
ENCODING -1 84
SWIDTH 0 0
DWIDTH 0 0
BBX 13 13 -12 -1
BITMAP
0000
0000
0000
0018
0018
0018
0018
0018
0018
0030
0070
1fe0
1f80
ENDCHAR
STARTCHAR a
ENCODING -1 97
SWIDTH 0 0
DWIDTH 20 0
BBX 20 11 0 -6
BITMAP
04000000
0c000000
1e000000
3ffff000
7ffff000
fffff000
7ffff000
3ffff000
1e000000
0c000000
04000000
ENDCHAR
STARTCHAR b
ENCODING -1 98
SWIDTH 0 0
DWIDTH 20 0
BBX 20 11 -19 -6
BITMAP
00020000
00030000
00078000
ffffc000
ffffe000
fffff000
ffffe000
ffffc000
00078000
00030000
00020000
ENDCHAR
STARTCHAR c
ENCODING -1 99
SWIDTH 0 0
DWIDTH 20 0
BBX 20 14 0 -8
BITMAP
02000000
06000000
0a000000
13ffe000
20002000
40003000
80003000
c0003000
63fff000
33fff000
1bfff000
0f000000
07000000
03000000
ENDCHAR
STARTCHAR d
ENCODING -1 100
SWIDTH 0 0
DWIDTH 20 0
BBX 0 0 0 0
BITMAP
ENDCHAR
STARTCHAR e
ENCODING -1 101
SWIDTH 0 0
DWIDTH 20 0
BBX 0 0 0 0
BITMAP
ENDCHAR
STARTCHAR f
ENCODING -1 102
SWIDTH 0 0
DWIDTH 20 0
BBX 0 0 0 0
BITMAP
ENDCHAR
STARTCHAR g
ENCODING -1 103
SWIDTH 0 0
DWIDTH 20 0
BBX 0 0 0 0
BITMAP
ENDCHAR
STARTCHAR h
ENCODING -1 104
SWIDTH 0 0
DWIDTH 20 0
BBX 0 0 0 0
BITMAP
ENDCHAR
STARTCHAR i
ENCODING -1 105
SWIDTH 0 0
DWIDTH 20 0
BBX 0 0 0 0
BITMAP
ENDCHAR
STARTCHAR j
ENCODING -1 106
SWIDTH 0 0
DWIDTH 20 0
BBX 0 0 0 0
BITMAP
ENDCHAR
STARTCHAR k
ENCODING -1 107
SWIDTH 0 0
DWIDTH 20 0
BBX 0 0 0 0
BITMAP
ENDCHAR
STARTCHAR l
ENCODING -1 108
SWIDTH 0 0
DWIDTH 20 0
BBX 0 0 0 0
BITMAP
ENDCHAR
STARTCHAR m
ENCODING -1 109
SWIDTH 0 0
DWIDTH 20 0
BBX 0 0 0 0
BITMAP
ENDCHAR
STARTCHAR n
ENCODING -1 110
SWIDTH 0 0
DWIDTH 10 0
BBX 20 20 -10 -10
BITMAP
03fff000
02001000
02f7d000
02001000
04002000
05fba000
04002000
08004000
0bbb7000
08005000
10009000
17eea000
1000a000
20012000
2edd4000
20014000
40024000
7ffe8000
08008000
0fff0000
ENDCHAR
STARTCHAR o
ENCODING -1 111
SWIDTH 0 0
DWIDTH 20 0
BBX 20 20 -10 -10
BITMAP
0fffc000
10012000
20025000
20025000
1fff9000
04001000
04ff2000
08004000
0bfc8000
10008000
17f90000
20010000
2ffa0000
40020000
5fe40000
8007e000
9ff49000
40025000
40012000
3fffc000
ENDCHAR
STARTCHAR p
ENCODING -1 112
SWIDTH 0 0
DWIDTH 20 0
BBX 20 20 -10 -10
BITMAP
aaaaa000
00001000
80000000
00001000
80000000
00001000
80000000
00001000
80000000
00001000
80000000
00001000
80000000
00001000
80000000
00001000
80000000
00001000
80000000
55555000
ENDCHAR
STARTCHAR q
ENCODING -1 113
SWIDTH 0 0
DWIDTH 20 0
BBX 20 20 -10 -10
BITMAP
aaaaa000
00001000
80000000
00001000
80000000
00001000
80000000
00001000
80000000
00001000
80000000
00001000
80000000
00001000
80000000
00001000
80000000
00001000
80000000
55555000
ENDCHAR
STARTCHAR r
ENCODING -1 114
SWIDTH 0 0
DWIDTH 20 0
BBX 20 20 -10 -10
BITMAP
aaaaa000
00001000
80000000
00001000
80000000
00001000
80000000
00001000
80000000
00001000
80000000
00001000
80000000
00001000
80000000
00001000
80000000
00001000
80000000
55555000
ENDCHAR
STARTCHAR s
ENCODING -1 115
SWIDTH 0 0
DWIDTH 20 0
BBX 20 20 -10 -10
BITMAP
aaaaa000
00001000
80000000
00001000
80000000
00001000
80000000
00001000
80000000
00001000
80000000
00001000
80000000
00001000
80000000
00001000
80000000
00001000
80000000
55555000
ENDCHAR
STARTCHAR t
ENCODING -1 116
SWIDTH 0 0
DWIDTH 20 0
BBX 20 20 -10 -10
BITMAP
aaaaa000
00001000
80000000
00001000
80000000
00001000
80000000
00001000
80000000
00001000
80000000
00001000
80000000
00001000
80000000
00001000
80000000
00001000
80000000
55555000
ENDCHAR
STARTCHAR u
ENCODING -1 117
SWIDTH 0 0
DWIDTH 20 0
BBX 20 20 -10 -10
BITMAP
aaaaa000
00001000
80000000
00001000
80000000
00001000
80000000
00001000
80000000
00001000
80000000
00001000
80000000
00001000
80000000
00001000
80000000
00001000
80000000
55555000
ENDCHAR
STARTCHAR v
ENCODING -1 118
SWIDTH 0 0
DWIDTH 20 0
BBX 20 20 -10 -10
BITMAP
aaaaa000
00001000
80000000
00001000
80000000
00001000
80000000
00001000
80000000
00001000
80000000
00001000
80000000
00001000
80000000
00001000
80000000
00001000
80000000
55555000
ENDCHAR
STARTCHAR w
ENCODING -1 119
SWIDTH 0 0
DWIDTH 20 0
BBX 20 20 -10 -10
BITMAP
aaaaa000
00001000
80000000
00001000
80000000
00001000
80000000
00001000
80000000
00001000
80000000
00001000
80000000
00001000
80000000
00001000
80000000
00001000
80000000
55555000
ENDCHAR
STARTCHAR x
ENCODING -1 120
SWIDTH 0 0
DWIDTH 20 0
BBX 20 20 -10 -10
BITMAP
aaaaa000
00001000
80000000
00001000
80000000
00001000
80000000
00001000
80000000
00001000
80000000
00001000
80000000
00001000
80000000
00001000
80000000
00001000
80000000
55555000
ENDCHAR
ENDFONT
