STARTFONT 2.1
COMMENT Created by fdbbdf
FONT delta12
SIZE 12 78 78
FONTBOUNDINGBOX 32 31 0 -31
STARTPROPERTIES 4
Ownership "  "
FONT_ASCENT 0
FONT_DESCENT 31
DEFAULT_CHAR 48
ENDPROPERTIES
CHARS 9
STARTCHAR 0
ENCODING -1 48
SWIDTH 0 0
DWIDTH 0 0
BBX 24 21 0 -21
BITMAP
00000000
00000000
00000700
00003900
0000c700
00030000
000c0000
00100000
00200000
00400000
00800000
01000000
01000000
02000000
02000000
04000000
04000000
04000000
0a000000
0a000000
0e000000
ENDCHAR
STARTCHAR 1
ENCODING -1 49
SWIDTH 0 0
DWIDTH 32 0
BBX 11 24 10 -28
BITMAP
0000
0400
0400
0e00
0e00
1500
1500
2480
2480
4440
4440
8420
0400
0400
0400
0400
0400
0400
0400
0400
0400
0400
0400
0400
ENDCHAR
STARTCHAR 3
ENCODING -1 51
SWIDTH 0 0
DWIDTH 32 0
BBX 22 17 5 -25
BITMAP
fffffc00
80000400
80000400
80000400
80000400
80000400
80000400
80000400
80000400
80000400
80000400
80000400
80000400
80000400
80000400
80000400
fffffc00
ENDCHAR
STARTCHAR 5
ENCODING -1 53
SWIDTH 0 0
DWIDTH 32 0
BBX 27 27 3 -30
BITMAP
003f8000
00c06000
03001800
04000400
08000200
10000100
20000080
20000080
40000040
40000040
80000020
80000020
80000020
80000020
80000020
80000020
80000020
40000040
40000040
20000080
20000080
10000100
08000200
04000400
03001800
00c06000
003f8000
ENDCHAR
STARTCHAR =
ENCODING -1 61
SWIDTH 0 0
DWIDTH 32 0
BBX 27 19 3 -26
BITMAP
003f8000
01c07000
06000c00
08000200
10000100
20000080
40000040
40000040
80000020
80000020
80000020
40000040
40000040
20000080
10000100
08000200
06000c00
01c07000
003f8000
ENDCHAR
STARTCHAR G
ENCODING -1 71
SWIDTH 0 0
DWIDTH 32 0
BBX 32 21 0 -31
BITMAP
00000000
00000000
00000080
00000180
00000240
00200440
00580820
00861020
0101a010
02006010
04009808
08010608
10020184
20040064
0008001a
00100006
00200000
00400000
00000000
00000000
00000000
ENDCHAR
STARTCHAR H
ENCODING -1 72
SWIDTH 0 0
DWIDTH 32 0
BBX 25 21 2 -27
BITMAP
1f000000
10000000
10046000
1e001000
10140800
10000800
10442a00
04001400
0a140800
11000000
1f040800
11001400
11002200
00004100
1e00ff80
11000000
11000000
11000000
11000000
1e000000
00000000
ENDCHAR
STARTCHAR J
ENCODING -1 74
SWIDTH 0 0
DWIDTH 32 0
BBX 18 18 6 -22
BITMAP
00000000
1fff0000
1fff0000
10e10000
00e00000
00e00000
00e00000
00e00000
00e00000
00e00000
00e00000
00e00000
00e00000
00e00000
00e00000
00e00000
01f00000
00000000
ENDCHAR
STARTCHAR O
ENCODING -1 79
SWIDTH 0 0
DWIDTH 32 0
BBX 22 23 5 -28
BITMAP
f8000000
80000000
80000000
9fffe000
98306000
90302000
00300000
00300000
00300000
00300000
00300000
00300000
00300000
00300000
00300000
00300000
00300000
00300000
00300400
00300400
00fc0400
00000400
00007c00
ENDCHAR
ENDFONT
