STARTFONT 2.1
FONT icon12
SIZE 12 78 78
FONTBOUNDINGBOX 96 185 4 -146
STARTPROPERTIES 9
Ownership "  "
POINT_SIZE 120
WEIGHT 127
RESOLUTION 107
X_HEIGHT 9
QUAD_WIDTH 0
DEFAULT_CHAR 32
FONT_ASCENT 39
FONT_DESCENT 146
ENDPROPERTIES
CHARS 123
STARTCHAR C001
ENCODING 1
SWIDTH 926 0
DWIDTH 16 0
BBX 29 30 -14 -16
BITMAP
30050060
780200f0
fc1541f8
ee3263b8
77757770
3bf27ee0
1db56dc0
0e326380
06356300
0c326180
1ff57fc0
3ff27fe0
00050000
aaaaaaa8
55555550
aaaaaaa8
00020000
00070000
000f8000
001dc000
0038e000
00707000
00fdf800
000d8000
000d8000
000d8000
000d8000
000d8000
000f8000
000f8000
ENDCHAR
STARTCHAR C002
ENCODING 2
SWIDTH 926 0
DWIDTH 16 0
BBX 29 30 -14 -15
BITMAP
000f8000
000f8000
000d8000
000d8000
000d8000
000d8000
000d8000
00fdf800
00707000
0038e000
001dc000
000f8000
00070000
00020000
aaaaaaa8
55555550
aaaaaaa8
00050000
3ff27fe0
1ff57fc0
0c326180
06356300
0e326380
1db56dc0
3bf27ee0
77757770
ee3263b8
fc1541f8
780200f0
30050060
ENDCHAR
STARTCHAR C003
ENCODING 3
SWIDTH 926 0
DWIDTH 16 0
BBX 29 29 -14 -15
BITMAP
00050060
000200f0
000541f8
000263b8
00057770
00027ee0
00056dc0
00026380
02056300
03026180
03857fc0
03c27fe0
fee50000
fe72aaa8
803d5550
fe72aaa8
fee50000
03c27fe0
03857fc0
03026180
02056300
00026380
00056dc0
00027ee0
00057770
000263b8
000541f8
000200f0
00050060
ENDCHAR
STARTCHAR C004
ENCODING 4
SWIDTH 926 0
DWIDTH 17 0
BBX 30 29 -14 -15
BITMAP
30050000
78020000
fc150000
ee320000
77750000
3bf20000
1db50000
0e320000
06350200
0c320600
1ff50e00
3ff21e00
00053bfc
aaaa73fc
5555e00c
aaaa73fc
00053bfc
3ff21e00
1ff50e00
0c320600
06350200
0e320000
1db50000
3bf20000
77750000
ee320000
fc150000
78020000
30050000
ENDCHAR
STARTCHAR C005
ENCODING 5
SWIDTH 926 0
DWIDTH 16 0
BBX 29 29 -14 -15
BITMAP
30050060
780200f0
fc1541f8
ee3263b8
77757770
3bf27ee0
1db56dc0
0e326380
06356300
0c326180
1ff57fc0
3ff27fe0
00050000
aaaaaaa8
55555550
aaaaaaa8
00050000
3ff27fe0
1ff57fc0
0c326180
06356300
0e326380
1db56dc0
3bf27ee0
77757770
ee3263b8
fc1541f8
780200f0
30050060
ENDCHAR
STARTCHAR C006
ENCODING 6
SWIDTH 926 0
DWIDTH 16 0
BBX 29 30 -14 -15
BITMAP
00003e00
00003e00
00003600
00003600
00003600
00003600
00003600
0003f7e0
0001c1c0
0000e380
00007700
00003e00
00001c00
00000800
0002aaa8
02055550
0302aaa8
03850000
03c27fe0
fee57fc0
fe726180
c03d6300
fe726380
fee56dc0
03c27ee0
03857770
030263b8
020541f8
000200f0
00050060
ENDCHAR
STARTCHAR C007
ENCODING 7
SWIDTH 926 0
DWIDTH 16 0
BBX 29 30 -14 -15
BITMAP
03e00000
03e00000
03600000
03600000
03600000
03600000
03600000
3f7e0000
1c1c0000
0e380000
07700000
03e00000
01c00000
00800000
aaaa0000
55550200
aaaa0600
00050e00
3ff21e00
1ff53bf8
0c3273f8
0635e018
0e3273f8
1db53bf8
3bf21e00
77750e00
ee320600
fc150200
78020000
30050000
ENDCHAR
STARTCHAR C008
ENCODING 8
SWIDTH 926 0
DWIDTH 16 0
BBX 29 30 -14 -16
BITMAP
00050060
000200f0
020541f8
030263b8
03857770
03c27ee0
fee56dc0
fe726380
c03d6300
fe726180
fee57fc0
03c27fe0
03850000
0302aaa8
02055550
0002aaa8
00000800
00001c00
00003e00
00007700
0000e380
0001c1c0
0003f7e0
00003600
00003600
00003600
00003600
00003600
00003e00
00003e00
ENDCHAR
STARTCHAR C009
ENCODING 9
SWIDTH 926 0
DWIDTH 16 0
BBX 29 30 -14 -16
BITMAP
30050000
78020000
fc150200
ee320600
77750e00
3bf21e00
1db53bf8
0e3273f8
0635e018
0c3273f8
1ff53bf8
3ff21e00
00050e00
aaaa0600
55550200
aaaa0000
00800000
01c00000
03e00000
07700000
0e380000
1c1c0000
3f7e0000
03600000
03600000
03600000
03600000
03600000
03e00000
03e00000
ENDCHAR
STARTCHAR C020
ENCODING 16
SWIDTH 481 0
DWIDTH 12 0
BBX 18 18 0 0
BITMAP
03e000
0c1800
100400
216200
229200
048900
084900
024900
048900
031100
002200
03c200
040400
081800
01e000
060000
080000
000000
ENDCHAR
STARTCHAR C021
ENCODING 17
SWIDTH 481 0
DWIDTH 12 0
BBX 12 17 0 0
BITMAP
2a40
0100
0100
0180
2980
0140
0120
0100
2b40
0100
0d00
1f00
3f40
1e00
0c00
0000
2aa0
ENDCHAR
STARTCHAR C022
ENCODING 18
SWIDTH 481 0
DWIDTH 12 0
BBX 12 17 0 0
BITMAP
2a40
0100
0100
0180
2980
0140
0120
0100
2b40
0100
0d00
1f00
3f40
1e00
0c00
0000
2aa0
ENDCHAR
STARTCHAR C023
ENCODING 19
SWIDTH 481 0
DWIDTH 12 0
BBX 12 17 0 0
BITMAP
0000
0000
0000
0000
ffe0
a050
9f90
8010
9990
9990
8010
8010
7fe0
0000
0000
0000
0000
ENDCHAR
STARTCHAR C024
ENCODING 20
SWIDTH 481 0
DWIDTH 12 0
BBX 32 17 0 0
BITMAP
00000000
00004000
00004000
0000e000
0010e000
0038a200
0238b300
072cb780
fdec96df
f8c6947f
00469c20
00029800
00039000
00038000
00010000
00010000
00000000
ENDCHAR
STARTCHAR C025
ENCODING 21
SWIDTH 1766 0
DWIDTH 44 0
BBX 40 24 0 -7
BITMAP
0000000000
0000080000
0002080000
0002080000
0002080000
0005148000
0005148800
0005154800
1008a54804
1048a55484
1fa8a5557c
1028a25204
1010422204
0010422000
0000402000
0000420000
0000024000
0032420600
000a4e4900
003a524900
004a524900
004a524900
00398e4600
0000000000
ENDCHAR
STARTCHAR C026
ENCODING 22
SWIDTH 481 0
DWIDTH 26 0
BBX 25 26 0 -25
BITMAP
fe000000
04000000
28000000
10000000
283e0000
40040000
fe080000
003e0000
00002000
00005000
00209000
00511000
009f1800
070a1400
19060a00
22000600
22000600
42000700
82000d00
81603500
811c4580
81020a80
8080b680
407fcc80
3f03c980
01fe7f00
ENDCHAR
STARTCHAR C027
ENCODING 23
SWIDTH 481 0
DWIDTH 26 0
BBX 25 26 -5 -25
BITMAP
06000000
06000000
0f000000
10800000
20400000
20400600
20400900
20400b00
20470880
20488b80
20504880
40204880
9c204480
80203c80
80278080
40204080
21f93880
1e054780
0c038000
0c000000
0c000000
0c000000
0c000000
0c000000
0c000000
0c000000
ENDCHAR
STARTCHAR C030
ENCODING 24
SWIDTH 481 0
DWIDTH 25 0
BBX 23 23 0 -9
BITMAP
01ff00
020080
05ff40
0bffa0
17ffd0
2fffe8
5ffff4
bffffa
a7ffba
abffba
abffba
a66daa
aac69a
aadcaa
a6e4aa
bffffa
5ffff4
2fffe8
17ffd0
0bffa0
05ff40
020080
01ff00
ENDCHAR
STARTCHAR C031
ENCODING 25
SWIDTH 481 0
DWIDTH 29 0
BBX 27 18 0 -7
BITMAP
00004000
00006000
00007000
fffff800
fffffc00
e60cc600
dbbb5b00
dfbb5b80
e7bb47c0
fbbb5fa0
dbbb5f40
e7bcde80
fffffd00
fffffa00
40007400
3fffe800
00005000
00002000
ENDCHAR
STARTCHAR C30
ENCODING 30
SWIDTH 481 0
DWIDTH 12 0
BBX 10 15 0 -1
BITMAP
ffc0
0000
ffc0
0000
1e00
0000
1e00
0000
1e00
0000
1e00
0000
ffc0
0000
ffc0
ENDCHAR
STARTCHAR C31
ENCODING 31
SWIDTH 481 0
DWIDTH 13 0
BBX 11 15 0 -1
BITMAP
ff00
0000
ffc0
0000
39e0
0000
3fc0
0000
3fc0
0000
39e0
0000
ffc0
0000
ff80
ENDCHAR
STARTCHAR C32
ENCODING 32
SWIDTH 481 0
DWIDTH 19 0
BBX 17 15 0 -1
BITMAP
f80f80
000000
fc1f80
000000
3e3e00
000000
3f7e00
000000
3ffe00
000000
3bee00
000000
f9cf80
000000
f88f80
ENDCHAR
STARTCHAR C041
ENCODING 33
SWIDTH 926 0
DWIDTH 12 0
BBX 12 11 0 0
BITMAP
00e0
01b0
0390
06f0
0c60
18c0
3180
6300
4600
6c00
7800
ENDCHAR
STARTCHAR C042
ENCODING 34
SWIDTH 481 0
DWIDTH 6 0
BBX 7 14 -3 -1
BITMAP
ee
38
10
10
10
10
10
10
10
10
10
10
38
ee
ENDCHAR
STARTCHAR C043
ENCODING 35
SWIDTH 386 0
DWIDTH 5 0
BBX 4 4 1 -5
BITMAP
c0
c0
70
30
ENDCHAR
STARTCHAR C044
ENCODING 36
SWIDTH 386 0
DWIDTH 5 0
BBX 4 4 1 0
BITMAP
30
30
e0
c0
ENDCHAR
STARTCHAR C045
ENCODING 37
SWIDTH -386 0
DWIDTH 5 0
BBX 4 4 -4 0
BITMAP
c0
e0
30
30
ENDCHAR
STARTCHAR C046
ENCODING 38
SWIDTH -386 0
DWIDTH 5 0
BBX 4 4 -4 -5
BITMAP
30
70
c0
c0
ENDCHAR
STARTCHAR C047
ENCODING 39
SWIDTH 849 0
DWIDTH 11 0
BBX 12 12 -5 -7
BITMAP
0600
0700
0300
0700
7f00
ffb0
dff0
0fe0
0e00
0c00
0e00
0600
ENDCHAR
STARTCHAR C050
ENCODING 40
SWIDTH 694 0
DWIDTH 9 0
BBX 11 14 -10 -8
BITMAP
0060
0060
0060
0c60
0660
0360
ffe0
ffe0
0360
0660
0c60
0060
0060
0060
ENDCHAR
STARTCHAR C051
ENCODING 41
SWIDTH 926 0
DWIDTH 12 0
BBX 11 14 0 -8
BITMAP
c000
c000
c000
c600
cc00
d800
ffe0
ffe0
d800
cc00
c600
c000
c000
c000
ENDCHAR
STARTCHAR C052
ENCODING 42
SWIDTH 1080 0
DWIDTH 14 0
BBX 15 14 -6 -8
BITMAP
07f8
07f8
0600
067c
0652
0652
0652
067c
0650
0650
0650
0650
fe50
fe00
ENDCHAR
STARTCHAR C053
ENCODING 43
SWIDTH 1003 0
DWIDTH 13 0
BBX 11 14 0 -8
BITMAP
ffc0
ffc0
c000
cf80
ca40
ca40
ca40
cf80
ca00
ca00
ca00
ca00
f5c0
ffc0
ENDCHAR
STARTCHAR C054
ENCODING 44
SWIDTH 1853 0
DWIDTH 24 0
BBX 23 13 -11 -5
BITMAP
007400
00fe00
018300
010100
036d80
026480
021880
021080
fffffe
110110
110110
1b01b0
0e00e0
ENDCHAR
STARTCHAR C055
ENCODING 45
SWIDTH 1544 0
DWIDTH 20 0
BBX 19 14 -9 -7
BITMAP
ffffe0
ffffe0
c00060
c00060
ffffe0
c44460
c44460
c44460
c44460
c44460
fffc60
c00460
ffffe0
ffffe0
ENDCHAR
STARTCHAR C056
ENCODING 46
SWIDTH 1080 0
DWIDTH 14 0
BBX 15 15 -7 -8
BITMAP
0044
006e
007c
0078
007c
007e
0000
0000
0000
fc00
7c00
3c00
7c00
ec00
4400
ENDCHAR
STARTCHAR C057
ENCODING 47
SWIDTH 77 0
DWIDTH 1 0
BBX 7 12 -3 -1
BITMAP
10
10
10
10
10
10
92
54
28
28
10
10
ENDCHAR
STARTCHAR C060
ENCODING 48
SWIDTH 2239 0
DWIDTH 29 0
BBX 29 30 0 -30
BITMAP
00000000
00000000
00000000
00000000
01c1c000
03e3e000
07f7f000
07fff000
03f7e000
01f7c000
0ef7b800
1f777c00
3fb6fe00
3fc9fe00
3ffffe00
1e6b3c00
09ebc800
1febfc00
1fc9fc00
1fc5fc00
0f84f800
07027000
00020000
00010000
00010000
00000000
00000000
00000000
00000000
00000000
ENDCHAR
STARTCHAR C061
ENCODING 49
SWIDTH 4941 0
DWIDTH 64 0
BBX 64 64 0 -64
BITMAP
ffffffffffffffff
ffffffffffffffff
ffffffffffffffff
ffffffffffffffff
ffff3f00f0ffffff
ffff0f00c0ffffff
ffff030000ffffff
ffffc16606feffff
ffff413202fcffff
ffff409101f8ffff
ff7f204910f8ffff
ff3f006008f0ffff
ff1f020080f0ffff
ff0f3e00f0f0ffff
ff0fff01fee1ffff
ff0fffc7ffe1ffff
ff0fffffffe1ffff
ff0fffffffe1ffff
ff0fffffffe1ffff
ff0fffffffe1ffff
ff0fffffffe1ffff
ff0fffffffe1ffff
ff0fffffffe1ffff
ff0fffffffe1ffff
ff0f07ff83e1ffff
ff8f01fe01e2ffff
f8f7cfcf8e0fffff
8f0c78c0e0fffff8
f9470a6e0ffffff8
f967fa6e1ffffff8
f7e7ef9e1fffff9f
9f7fe7f3ffffff9f
ff7ffff3fdffff9f
ff7ffff3cefff9ff
f7fff73f7ffff9ff
f77ffbbfbffff3f7
f74f1b9fbfffffbe
fbeebdfbffffffdc
77df7cfbffffffe2
8f3ffdf6fffff1ef
ec3fef6ffffffbd0
1ecfef6ffffff7df
ff7fef6ffffffdfe
79fff6fffffffb01
78fff6fffffffbff
b9fff6fffffffffb
17ffbfffffff707a
3bffbffffffefffc
7c7fdffffffeff8f
bbffffffffdfff0f
69ffffffffbfff17
58ffffffff7ff3b7
0ffffffffff007c1
0ffffffffffffff0
8ffffffffffffff8
8fffffffffffff81
ffffffffffffffc3
ffffffffffffffff
ffffffffffffffff
ffffffffffffffff
ffffffffffffffff
ffffffffffffffff
ffffffffffffffff
ffffffffffffffff
ENDCHAR
STARTCHAR C062
ENCODING 50
SWIDTH 3320 0
DWIDTH 43 0
BBX 43 40 0 -40
BITMAP
000000000000
000000000000
000000000000
3ffffff00000
200000080000
100000040000
080000020000
040000010000
020000008000
010000004000
008000802000
004001401000
002000e00800
001000180400
002800060200
004400018100
00820000c080
00610000c040
00108000c020
00087fffffe0
00040004c000
00020004c000
00010004c000
0000fff4c000
00000008c000
00000000c000
00000000c000
00000000c000
00000000c000
00000000c000
00000000c000
000000004000
000000004000
000000004000
000000000000
000000000000
000000000000
000000000000
000000000000
000000000000
ENDCHAR
STARTCHAR C063
ENCODING 51
SWIDTH 3397 0
DWIDTH 44 0
BBX 44 56 0 -56
BITMAP
003e00000000
007e00000000
00ff00000000
00ff00000000
01ff80000000
01ff80000000
01ff80000000
01ff80000000
01ff803e0000
01ff803f0000
01ff007f8000
01ff007f8000
00ff00ffc000
00fe00ffc000
00fe00ffc000
00fe00ffc000
00fe00ffc000
00fe00ffc000
00fe007fc000
00fe007fc000
00fc007f8000
00fc003f8000
0078003f8000
0000003f8000
0000003f8000
0000003f8000
0000003f8000
0000003f8000
0000001f8000
0000001f8000
0000000f0000
000000000000
000000000000
000000000000
000000000000
000000000000
00ff0c018000
00808a028000
008049048000
008049048000
008048888000
008088888000
00ff08508000
008008208000
008008008000
008008008000
008008008000
008008008000
008008008000
000000000000
000000000000
000000000000
000000000000
000000000000
000000000000
000000000000
ENDCHAR
STARTCHAR C064
ENCODING 52
SWIDTH 1080 0
DWIDTH 14 0
BBX 14 15 0 -5
BITMAP
1ffc
1004
ffe4
8024
8024
9f24
8024
8024
9f24
8024
8024
9f3c
8020
8020
ffe0
ENDCHAR
STARTCHAR C065
ENCODING 53
SWIDTH 3011 0
DWIDTH 39 0
BBX 39 42 0 -42
BITMAP
000003fe00
02001c01c0
0400600020
0800800010
3c01000010
f606000008
7708000004
3f08000004
1f9000fe02
1fa0030102
1fc00c0082
1f80107842
1f00208442
0f00410222
0f00821a22
0f00842a22
0780842222
0780841c42
07c0840044
03f0860084
03fc810104
01ff80c208
00ffc03c10
007fe00020
003ff80040
000fff0380
0007ffffc0
0000ffffc0
000000ffe0
0000003fe0
0000000fe0
00000007f0
00000001f8
00000000fc
0000000000
0000000000
0000000000
0000000000
0000000000
0000000000
0000000000
0000000000
ENDCHAR
STARTCHAR C066
ENCODING 54
SWIDTH 3320 0
DWIDTH 43 0
BBX 43 45 0 -45
BITMAP
03c000229800
07e000153e00
0ff0078e6300
0ff00fc68180
0ff018238440
0ff0181bbf40
07e0080ff1a0
03c003e7e1c0
000007f3bc60
00001c1f8e20
0000300fc720
000020f77300
000003c61980
00000e0c0cc0
0000181c0660
000010180300
000020380100
000000300180
0000007000c0
000000e00040
000000c00000
000000c00000
000001c00000
000001800000
000001800000
000003000000
000003000000
000007000000
000006000000
000006000000
00000e000000
00000c000000
00000c000000
00000c000000
000018000000
000018000000
000018000000
000038000000
000030000000
082030001f80
2088380ff0e0
82007efc0000
082381c00000
208c00000000
821000000000
ENDCHAR
STARTCHAR C067
ENCODING 55
SWIDTH 3628 0
DWIDTH 47 0
BBX 47 47 0 -47
BITMAP
00000c600000
000012900000
095489225520
055501015540
23de26c8f788
13de4924f790
0ddd9d737760
3edbe54fb6f8
0f5786c3d5e0
3fafe6cfebf8
006006c00c00
3f9c038073f8
0f5e8102f5e0
3ede4d64f6f8
0dce5394e760
13c149250790
23c881022788
05475d75c540
09403ef80520
420277dc8084
a605638d40ca
8be477dc4fa2
48f23ef89e24
371fdd77f1d8
48f23ef89e24
8be477dc4fa2
a605638d40ca
420277dc8084
09403ef80520
05475d75c540
23c881022788
13c149250790
0dce5394e760
3ede4d64f6f8
0f5e8102f5e0
3f9c038073f8
006006c00c00
3fafe6cfebf8
0f5786c3d5e0
3edbe54fb6f8
0ddd9d737760
13de4924f790
23de26c8f788
055501015540
095489225520
000012900000
00000c600000
ENDCHAR
STARTCHAR C070
ENCODING 56
SWIDTH 2779 0
DWIDTH 36 0
BBX 36 38 0 -38
BITMAP
000003ff00
00001ffe00
00003ffc00
00007ffc00
0000fff000
00013fc000
00038f0000
007d400000
00fd600000
01fd500000
03f9480000
0ff9280000
07f2240000
03e2220000
0002220000
0004210000
0008210000
0010208000
0010204000
0fa0206000
1fc0201e00
3fe0203f00
7ff0207f80
7ff020ffc0
7ff0f8ffc0
7ff1fcffc0
3fe3feffc0
1fc3fe7f80
0f83fe3f00
0003fe1e00
0003fe0000
0001fc0000
0000f80000
0000000000
0000000000
0000000000
0000000000
0000000000
ENDCHAR
STARTCHAR C071
ENCODING 57
SWIDTH 3088 0
DWIDTH 40 0
BBX 40 38 0 -38
BITMAP
0000000000
0000000000
0000000000
0000000000
0000000000
0000000000
0001fe0000
0006018000
0008007000
0010000c00
0020000200
0040000180
0040000040
00400001a0
0084000050
008a000628
0092000980
0091001040
0090c02000
00482e4000
0048294000
002418c000
0012084000
0012082000
0012081000
1c12080800
2222080400
49c4080200
40081ffc00
23f0280000
2400680000
3c00e80000
3801480000
3800080000
3c00080000
0e00180000
0200380000
0000f80000
ENDCHAR
STARTCHAR C072
ENCODING 58
SWIDTH 463 0
DWIDTH 6 0
BBX 13 7 -6 -4
BITMAP
1040
3060
7ff0
fff8
7ff0
3060
1040
ENDCHAR
STARTCHAR C073
ENCODING 59
SWIDTH 77 0
DWIDTH 1 0
BBX 13 13 -6 -7
BITMAP
0200
0200
0200
0200
0200
0000
f8f8
0000
0200
0200
0200
0200
0200
ENDCHAR
STARTCHAR C074
ENCODING 60
SWIDTH 1080 0
DWIDTH 14 0
BBX 16 16 -2 -15
BITMAP
5000
a800
6d40
9500
6a40
9480
6b00
9da0
7690
8b5a
55ab
02d6
016d
00ba
0054
0028
ENDCHAR
STARTCHAR C075
ENCODING 61
SWIDTH 1080 0
DWIDTH 14 0
BBX 16 15 -2 -14
BITMAP
a000
7400
9280
6ac0
9580
6900
9480
6240
8968
74a5
2254
0129
0092
0044
0028
ENDCHAR
STARTCHAR C076
ENCODING 62
SWIDTH 77 0
DWIDTH 1 0
BBX 21 21 -10 -11
BITMAP
02aa00
04a900
0d5580
1b76c0
328a60
657530
9a8a88
357560
ca8a98
355560
d52558
355560
ca8a98
357560
9a8ac8
657530
328a60
1b76c0
0d5580
04a900
02aa00
ENDCHAR
STARTCHAR C077
ENCODING 63
SWIDTH 77 0
DWIDTH 1 0
BBX 21 21 -10 -11
BITMAP
015400
0b5680
12aa40
248920
4d7590
1a8ac0
657530
ca8a98
357560
caaa98
2adaa0
caaa98
357560
ca8a98
657530
1a8ac0
4d7590
248920
12aa40
0b5680
015400
ENDCHAR
STARTCHAR C100
ENCODING 64
SWIDTH 1003 0
DWIDTH 13 0
BBX 11 11 1 -2
BITMAP
1f00
75c0
4040
df60
9f20
df60
9f20
df60
4040
75c0
1f00
ENDCHAR
STARTCHAR C101
ENCODING 65
SWIDTH 3165 0
DWIDTH 41 0
BBX 38 39 0 -6
BITMAP
0001c00000
0000e00000
0000600000
0000200000
001ffffc00
007ffffc00
00fffffc00
00fffffc00
00fc000000
00f8000000
f8f800007c
f8fc00007c
f8fffffc7c
f8fffffc7c
f87ffffc7c
f81ffffc70
f800000060
f800000060
f800000060
f83ffff070
f87ffff87c
f87ffff87c
f8fffffc7c
f8fffffc7c
f8fcfcfc7c
f8f8787c7c
f8f8787c7c
f8f8787c7c
f8f8787c7c
f8f8787c7c
f8f8787c7c
f80000007c
f80000007c
f80000007c
fffffffffc
fffffffffc
fffffffffc
7ffffffff8
3ffffffff0
ENDCHAR
STARTCHAR C102
ENCODING 66
SWIDTH 7566 0
DWIDTH 98 0
BBX 96 146 0 -146
BITMAP
000000000000000000000000
000000000000000000000000
000000000000000000000000
000000000000000000000000
000000000000000000000000
000000000000000000000000
000000000000000000000000
000000000000000000000000
000000000000000000000000
000000000000000000000000
000000000000000000000000
000000000000000000000000
000000000000000000000000
0000000000da800000000000
000000000a01500000000000
000000005400040000000000
0000000096800ba000000000
000000022c0019d400000000
00000004c0000bba00000000
0000001454000817c0000000
00000060a00005aaa0000000
000001c5800006fd88000000
000002028210066af2000000
000002d7d5a4f5cbbd800000
000008e57decbceca5800000
000027add503b4b798000000
000004befda02baca0180000
00004fa7f3707b1680000000
00008e7effe0e6d900040000
0000d417ddf003a000020000
00011a19be94d80000000000
00013c1393d8a00000018000
00036c03fefb800000018000
0000de0777b400000000c000
00048c0aa000000000042000
0008480540000000000a2000
000a40000000000000051000
001080000000000000028800
003480000000000000014c00
00250000000000000000c200
000500000000000000008200
00220000000000000000e100
00200000000000000000f900
002400000000000000007d00
00040000000000000000ec80
00500000000000000000de40
00480000000000000001fa40
00080000000000000006fa40
00a80000000000000007dbc0
00f800000000000000068040
00d000000000000000187b60
00f0000000000000001e3a60
00000000000000000039dc30
004000000000000000155560
0140000000000000001a7d30
00400000000000000027e170
00c0000000000000000e9f70
018000000000000000086d20
02000000000000000003f440
01000000000000000001e9c0
05000000000000000000f640
02000000000000000000de40
000000000000000000001fc0
020000000000000000000f80
040000000001002a048005c0
020000001005a555db76dfc0
00000000aa5fedb7ffffffc0
0400000255afffffffffffc0
02000015835ffff3faffffc0
0200002a8000ffe5fdffffc0
0000003500017fe3ffffff80
0b0000aa801fbfe2ffffff80
1000018501ff7fc1ffff7f80
004000721fffffc0fbe16f00
2e20000c3effff01f9e77f00
3f000002fcfffe00b9c7ff00
1e080001f373fe00fc0aff00
3f840000c7e3fc00ffb4ff00
3640000003c3f8007f07ff00
004400010007f000ffffff00
24580000001fe0007fffff00
12280000007fe000a7ebbf00
10780000293fc00076d7df00
11300000056f80006fffff00
00d000000be500003ed47f00
08700000060000001836cf80
08180000000000003c3b7f80
04000000000004003605bf80
0200000000000c001e00ff80
010200000000380027016f80
00040000000030001f003f80
010200000000e0000f02bf80
008000000000e0001b801f80
004408000000e0000cc15d80
000000000001f0001fc03f80
002000000007ff80f5e05f80
001e0000001ffffffffb7f00
00000400003f1fffeb1eff00
00000000003f8fffe48fef00
00000000003e03f8034ffb00
00040100007e000201a7ff80
0002000000f8000100b3ee80
0000400001f000020041df80
0005004001c000000000fe80
00008000028000000000fe80
00018000010000000000a700
000040080000004a4000ef00
00008000000007ffe8002f00
0001000000001fffff00ee00
0001400000007c000b100e00
000080000001f0001340fe00
00008000000340000570ac00
00000000000780000ffdfe00
0000801000068000036cfa00
00008000000e340018d7bc00
000000080016880015aaf800
00008000000db40011efe800
000080200807a0000afaf000
00008000100140000d6da800
0000800808000000049ff000
0000800004000000067f7000
0000c000100000000364e000
0000200004000000021f8000
0000300014000000011fc000
00003000000000000107c000
000008000000000000048000
00000c00800000000019c000
000004020000000000098000
00000700c0000000000f8000
000001e080200000000f0000
0000001f80000000011c0000
00000007c020000000b00000
000000003c00000005500000
000000001ea0000002e00000
000000000350000009600000
0000000000e4000003800000
00000000007f00000e000000
00000000003f80001c000000
00000000003fc000d8000000
00000000000fe000f8000000
000000000007f801f0000000
000000000001fc0fe0000000
0000000000007edfc0000000
0000000000001fff80000000
00000000000007fe00000000
00000000000001f000000000
ENDCHAR
STARTCHAR C103
ENCODING 67
SWIDTH 463 0
DWIDTH 6 0
BBX 11 11 -5 -6
BITMAP
1f00
3f80
7fc0
ffe0
ffe0
ffe0
ffe0
ffe0
7fc0
3f80
1f00
ENDCHAR
STARTCHAR C104
ENCODING 68
SWIDTH 694 0
DWIDTH 9 0
BBX 17 18 -8 -1
BITMAP
180c00
1c1c00
1e3c00
1b6c00
19cc00
188c00
180c00
180c00
180c00
f80f80
780f00
380e00
1c1c00
0e3800
077000
03e000
01c000
008000
ENDCHAR
STARTCHAR C105
ENCODING 69
SWIDTH 617 0
DWIDTH 8 0
BBX 16 6 -12 -3
BITMAP
0180
03c0
ffff
ffff
03c0
0180
ENDCHAR
STARTCHAR C106
ENCODING 70
SWIDTH 4864 0
DWIDTH 63 0
BBX 62 40 0 -1
BITMAP
00000001fffffff8
00000003fffffffc
000000038000001c
000000030000000c
7fffffff0000000c
ffffffff0000000c
e00000000000000c
c00000000000000c
c00000000000000c
c00000000000000c
c00000000000000c
c00000000000000c
c00000000000000c
c00000000000000c
c00000000000000c
c00000000000000c
c00000000000000c
c00000000000000c
c00000000000000c
c00000000000000c
c00000000000000c
c00000000000000c
c00000000000000c
c00000000000000c
c00000000000000c
c00000000000000c
c00000000000000c
c00000000000000c
c00000000000000c
c00000000000000c
c00000000000000c
c00000000000000c
c00000000000000c
c00000000000000c
c00000000000000c
c00000000000000c
c00000000000000c
c00000000000000c
fffffffffffffffc
fffffffffffffffc
ENDCHAR
STARTCHAR C107
ENCODING 71
SWIDTH 386 0
DWIDTH 5 0
BBX 3 11 -1 -6
BITMAP
e0
e0
e0
e0
e0
e0
e0
e0
e0
e0
e0
ENDCHAR
STARTCHAR C110
ENCODING 72
SWIDTH 926 0
DWIDTH 12 0
BBX 20 19 -9 -10
BITMAP
039c00
0f9f00
1f9f80
3f9fc0
7f9fe0
7f9e60
ff9cf0
ff99f0
ff93f0
1f8780
fffff0
fffff0
fffff0
7fffe0
7fffe0
3fffc0
1fbf80
0fbf00
03bc00
ENDCHAR
STARTCHAR C111
ENCODING 73
SWIDTH 386 0
DWIDTH 5 0
BBX 6 11 -3 -6
BITMAP
80
c0
e0
f0
f8
fc
f8
f0
e0
c0
80
ENDCHAR
STARTCHAR C112
ENCODING 74
SWIDTH 540 0
DWIDTH 7 0
BBX 7 13 -3 -7
BITMAP
10
38
7c
fe
38
38
38
38
38
fe
7c
38
10
ENDCHAR
STARTCHAR C113
ENCODING 75
SWIDTH 3165 0
DWIDTH 41 0
BBX 39 48 0 -15
BITMAP
001ffffc00
007ffffc00
00fffffc00
00fffffc00
00fffffc00
00fc000000
00f8000000
00f8000000
00fc000000
00fffffc00
00fffffc00
f8fffffc7c
f87ffffc7c
f81ffffc7c
f80000007c
f80000007c
f80000007c
f81fffe07c
f87ffff87c
f8fffffc7c
f8fffffc7c
f8fcfcfc7c
f8f8787c7c
f8f8787c7c
f8f8787c7c
f8f8787c7c
f8f8787c7c
f8f8787c7c
f8f8787c7c
f8f8787c7c
f8f8787c7c
f8f8787c7c
f8f8787c7c
f8f8787c7c
f80000007c
f80000007c
fc000000fc
fffffffffc
7ffffffff8
7ffffffff8
3ffffffff0
0fffffffc0
0000000000
0000000000
0000000000
0000000000
0000000000
0000000000
ENDCHAR
STARTCHAR C114
ENCODING 76
SWIDTH 772 0
DWIDTH 10 0
BBX 19 19 -9 -10
BITMAP
036800
0b6c00
1b6d00
1b6d80
5b6d80
5b6dc0
da6de0
d26da0
d26da0
d26da0
926d20
926d20
926d20
126900
124900
124900
124900
024800
024800
ENDCHAR
STARTCHAR C115
ENCODING 77
SWIDTH 308 0
DWIDTH 4 0
BBX 16 11 -15 -6
BITMAP
0060
0070
0078
003c
fffe
ffff
fffe
003c
0078
0070
0060
ENDCHAR
STARTCHAR C116
ENCODING 78
SWIDTH 694 0
DWIDTH 9 0
BBX 31 23 -15 -12
BITMAP
00038000
00038000
00038000
00038000
00038000
01038100
01838300
01c38700
01e38f00
fff39ffe
fffbbffe
fffffffe
fffbbffe
fff39ffe
01e38f00
01c38700
01838300
01038100
00038000
00038000
00038000
00038000
00038000
ENDCHAR
STARTCHAR C117
ENCODING 79
SWIDTH 694 0
DWIDTH 9 0
BBX 23 31 -11 -16
BITMAP
007c00
007c00
007c00
007c00
007c00
007c00
007c00
07ffc0
03ff80
01ff00
00fe00
007c00
003800
001000
fffffe
fffffe
fffffe
001000
003800
007c00
00fe00
01ff00
03ff80
07ffc0
007c00
007c00
007c00
007c00
007c00
007c00
007c00
ENDCHAR
STARTCHAR C120
ENCODING 80
SWIDTH 617 0
DWIDTH 8 0
BBX 29 14 -14 -7
BITMAP
01fffc00
01fffc00
00000000
00020000
00020000
00020000
00020000
00124000
000a8000
00070000
00020000
00000000
fff8fff8
fff8fff8
ENDCHAR
STARTCHAR C121
ENCODING 81
SWIDTH 2625 0
DWIDTH 34 0
BBX 50 52 -24 -26
BITMAP
00000408000000
00c18a1460c000
003a7123970000
001c30c30e0000
000c18c60c0000
000618c6180000
800618c6180040
40030ccc300080
60030ccc300180
50018ccc600280
280187f8600500
2400ffffc00900
2601ffffe01900
1383fffff07200
1107fffff82200
1307fffff83200
1603fffff01a00
160cffffcc1a00
0c1f3fff3e0c00
0c0fcffcfc0c00
0c33f3f3f30c00
0c3cfccfcf0c00
0c3f3f3f3f0c00
0c0fccccfc0c00
0c33f3f3f30c00
0c3ccccccf0c00
0c3f3f3f3f0c00
0c3ccccccf0c00
0c33f3f3f30c00
0c2fccccfd0c00
0c1f3f3f3e0c00
0c1cfccfce0c00
0e13f3f3f21c00
0a0fcffcfc1400
0b0f3fff3c3400
0b04ffffc83400
0981ffffe06400
08c0ffffc0c400
10e03fff01c200
11900ffc026200
130801e0043200
120600c0181200
240180c0600900
280060c1800500
23f81ffe07f100
5ffffffffffe80
801fc0c0fe0040
0003f0c3f00000
00007807800000
00000f3c000000
000003f0000000
000000c0000000
ENDCHAR
STARTCHAR C122
ENCODING 82
SWIDTH 1467 0
DWIDTH 19 0
BBX 16 11 0 -6
BITMAP
0600
0e00
1e00
3c00
7fff
ffff
7fff
3c00
1e00
0e00
0600
ENDCHAR
STARTCHAR C123
ENCODING 83
SWIDTH 1312 0
DWIDTH 17 0
BBX 20 32 -7 -21
BITMAP
002000
002000
003000
004c00
018200
021900
048400
014200
029200
016100
0a0480
00e240
081200
124800
250100
085580
090840
124300
202280
254900
088280
114e40
262120
588880
a10990
227040
5469b0
8864c0
006000
006000
006000
006000
ENDCHAR
STARTCHAR C124
ENCODING 84
SWIDTH 540 0
DWIDTH 7 0
BBX 33 22 -17 -12
BITMAP
3f00000000
7b00000000
8900300000
993ffff000
75e78f1e00
1bac8cf100
3fb8f73e80
36cfc32980
1b884cf980
1e5078d980
0d7fcf8980
09d08f1800
0850ff0800
3ffff10400
404447c200
88c7fa2900
ff39121900
c0091c0900
0009000900
001e000e80
0000000180
0000000100
ENDCHAR
STARTCHAR C125
ENCODING 85
SWIDTH 694 0
DWIDTH 9 0
BBX 17 18 -8 -18
BITMAP
008000
01c000
03e000
077000
0e3800
1c1c00
380e00
700700
f80f80
180c00
180c00
180c00
188c00
19cc00
1b6c00
1e3c00
1c1c00
180c00
ENDCHAR
STARTCHAR C126
ENCODING 86
SWIDTH 3011 0
DWIDTH 39 0
BBX 39 41 0 -41
BITMAP
0000000400
0000040c00
0000060c00
0000071c00
0000079c00
000003dc00
000001fc00
000000ec00
0000007400
0000003f00
0000007f80
00000079c0
000000ffe0
000000fff0
000000fff0
000000fff0
000000ffe0
000000ffc0
001fffff00
007fffff00
00ffffff80
01ffffffc0
03ffffffc0
07ffffffc0
cfffffffc0
ffffffffc0
fff7ffffc0
fffbffff80
ffffffff00
7ffffffe00
1ffbfffc00
1ffffff400
1ff7ff7c00
dfe0003c00
efc0005f00
ffe0006f00
ff70007780
c078007380
c03c0039c0
e01f001de0
f00f801ef0
ENDCHAR
STARTCHAR C127
ENCODING 87
SWIDTH 694 0
DWIDTH 9 0
BBX 36 29 -17 -10
BITMAP
0000600000
0001f80000
00039c0000
0006060000
0006060000
000c030000
0018018000
0018018000
003000c000
0060006000
0060006000
00c0003000
0180001800
0180001800
0300000c00
0600000600
0600000600
0c8265f300
1882944180
1882944180
30449440c0
6054f44060
606c944060
6044944060
c000000030
c000000030
6000000060
3fffffffc0
1fffffff80
ENDCHAR
STARTCHAR C130
ENCODING 88
SWIDTH 694 0
DWIDTH 9 0
BBX 5 5 -2 -3
BITMAP
88
50
20
50
88
ENDCHAR
STARTCHAR C131
ENCODING 89
SWIDTH 2239 0
DWIDTH 29 0
BBX 29 30 0 -30
BITMAP
00000000
00000000
00000000
00000700
00000f80
00001f80
00003f80
00003f80
00007f00
0000fe00
0000fc00
0001f800
0003f000
0003e000
0007c000
000f8000
000f0000
001c0000
00380600
00700f00
00e00f00
01c00600
03800000
07000000
0e000000
7c000000
38000000
18000000
08000000
00000000
ENDCHAR
STARTCHAR C132
ENCODING 90
SWIDTH 3011 0
DWIDTH 39 0
BBX 39 39 0 -39
BITMAP
0780000000
0fc0000000
0fe0003800
1fe0007e00
1fe000ef00
3fd000ff80
3fb800fdc0
7f7800fd00
7ef8007d00
fdf7c07d80
fbeff03e80
fbdffc3e00
fbbfff1f00
fb7fffdf00
fb7ffb7f80
fafffeff80
faffdb6fc0
fafff7dfc0
faffdb6fe0
faffbefbe0
faffdb6fe0
7bfff7dfe0
3bfffb6fe0
1fffffffe0
1ffffb6fc0
07fff7df40
0ffffb7e80
1ffffeff00
3ffffff600
3ffffff800
00ffffe000
01ffff0000
03fffe0000
07ffe10000
0000208000
0000204000
0000383000
00005c5c00
0000000000
ENDCHAR
STARTCHAR C133
ENCODING 91
SWIDTH 77 0
DWIDTH 1 0
BBX 11 6 -5 -1
BITMAP
0e00
3f80
71c0
e0e0
c060
c060
ENDCHAR
STARTCHAR C134
ENCODING 92
SWIDTH 540 0
DWIDTH 7 0
BBX 6 11 0 -1
BITMAP
80
80
40
40
20
20
10
10
08
08
04
ENDCHAR
STARTCHAR C135
ENCODING 93
SWIDTH 77 0
DWIDTH 1 0
BBX 11 5 -5 -6
BITMAP
c060
e0e0
71c0
3f80
0e00
ENDCHAR
STARTCHAR C136
ENCODING 94
SWIDTH 617 0
DWIDTH 8 0
BBX 7 11 0 -1
BITMAP
10
10
38
54
92
10
10
10
10
10
10
ENDCHAR
STARTCHAR C137
ENCODING 95
SWIDTH 694 0
DWIDTH 9 0
BBX 8 2 0 -2
BITMAP
ff
ff
ENDCHAR
STARTCHAR C140
ENCODING 96
SWIDTH 231 0
DWIDTH 3 0
BBX 26 15 0 -5
BITMAP
00000000
00000000
00000080
00000140
00000080
00000000
703803c0
58100700
5c101e00
27fffc00
07fff800
03fff000
01ffc000
00ff8000
003e0000
ENDCHAR
STARTCHAR C141
ENCODING 97
SWIDTH 1003 0
DWIDTH 13 0
BBX 13 13 0 -13
BITMAP
8000
e000
fe00
fc00
f000
f800
dc00
8f00
87c0
03f8
01f0
00e0
0040
ENDCHAR
STARTCHAR C142
ENCODING 98
SWIDTH 617 0
DWIDTH 8 0
BBX 15 23 0 -17
BITMAP
0380
07c0
06c0
8c62
7c7c
0c60
1830
9832
783c
1830
1830
8c62
7c7c
0c60
06c0
07c0
0380
07c0
07c0
0540
0ba0
1010
2008
ENDCHAR
STARTCHAR C143
ENCODING 99
SWIDTH 77 0
DWIDTH 1 0
BBX 42 42 -4 -42
BITMAP
000000000000
000000000000
000000000000
004000000000
016000000000
016000000000
00f000000000
03f800000000
07fc00000000
0dfe00000000
1ffe00000000
3fff00000000
3fff00000000
3fff00000000
1fff00000000
0fff00000000
01ff80000000
01ffe0001c00
01fffc003e00
01fffe007f00
01ffff007300
01ffffc06100
01ffffe06000
01fffff07000
00fffff83000
00fffffc3800
007fbdfc3800
007ffefe1c00
003f7f7e1c00
003fffff0e00
001f7fff0e00
000fffff0700
000effff0700
000effff0700
000effff0700
000e7fff8700
000e7fff8700
000e3fffcf00
000e1ffffe00
001c1ffffe00
003cfffefc00
0039fffc7800
ENDCHAR
STARTCHAR C144
ENCODING 100
SWIDTH 540 0
DWIDTH 7 0
BBX 21 15 -10 -4
BITMAP
e00000
a00000
a41040
ae38e0
bb6db0
b1c718
a08208
a00008
ae38e8
ae38e8
ae38e8
ae38e8
a00008
a00008
fffff8
ENDCHAR
STARTCHAR C145
ENCODING 101
SWIDTH 540 0
DWIDTH 7 0
BBX 21 26 -10 -4
BITMAP
001c00
003e00
007e00
003c00
1c1800
3e0000
7e0000
3c0000
180000
000000
000000
e00000
a00000
a41040
ae38e0
bb6db0
b1c718
a08208
a00008
ae38e8
aa28a8
aa28a8
ae38e8
a00008
a00008
fffff8
ENDCHAR
STARTCHAR C146
ENCODING 102
SWIDTH 617 0
DWIDTH 8 0
BBX 29 14 -29 -9
BITMAP
001ff000
00fff800
fff00c00
ff83fff0
6003fff8
70000018
3001fff8
3801fff0
18000c00
1801fc00
1fc1f800
1fe06000
007fe000
003fc000
ENDCHAR
STARTCHAR C147
ENCODING 103
SWIDTH 849 0
DWIDTH 11 0
BBX 19 19 -9 -10
BITMAP
03f800
0ffe00
1c4700
304180
6040c0
6040c0
c04060
c04060
c00060
ff1fe0
c00060
c04060
c04060
6040c0
6040c0
304180
1c4700
0ffe00
03f800
ENDCHAR
STARTCHAR C150
ENCODING 104
SWIDTH 694 0
DWIDTH 9 0
BBX 23 31 -11 -16
BITMAP
007c00
007c00
006c00
006c00
006c00
006c00
006c00
07efc0
038380
01c700
00ee00
007c00
003800
001000
aaaaaa
555554
aaaaaa
001000
003800
007c00
00ee00
01c700
038380
07efc0
006c00
006c00
006c00
006c00
006c00
007c00
007c00
ENDCHAR
STARTCHAR C151
ENCODING 105
SWIDTH 772 0
DWIDTH 10 0
BBX 14 20 -7 -11
BITMAP
fffc
fffc
c00c
c00c
c00c
c00c
c00c
c00c
c30c
fffc
fffc
c00c
c00c
c00c
c00c
c00c
c00c
c00c
fffc
fffc
ENDCHAR
STARTCHAR C152
ENCODING 106
SWIDTH 694 0
DWIDTH 9 0
BBX 8 16 0 -5
BITMAP
ff
ff
c3
c3
c3
c3
c3
c3
c3
c3
c3
c3
c3
c3
ff
ff
ENDCHAR
STARTCHAR C153
ENCODING 107
SWIDTH 231 0
DWIDTH 3 0
BBX 2 16 0 -5
BITMAP
c0
c0
c0
c0
c0
c0
c0
c0
c0
c0
c0
c0
c0
c0
c0
c0
ENDCHAR
STARTCHAR C154
ENCODING 108
SWIDTH 386 0
DWIDTH 5 0
BBX 13 13 -12 -1
BITMAP
0018
0018
0018
0018
0018
0018
0018
0018
0018
0018
0018
fff8
fff8
ENDCHAR
STARTCHAR C155
ENCODING 109
SWIDTH 617 0
DWIDTH 8 0
BBX 13 15 -6 -8
BITMAP
fff8
fff8
c218
c218
c218
c218
c218
fff8
c218
c218
c218
c218
c218
fff8
fff8
ENDCHAR
STARTCHAR C156
ENCODING 110
SWIDTH 772 0
DWIDTH 10 0
BBX 22 19 -11 -9
BITMAP
006000
1e33c0
31b460
427810
500028
a02028
811114
a30304
852694
af2784
807014
80f804
a00014
863184
433f28
53f708
20e210
1c0060
03ff80
ENDCHAR
STARTCHAR C157
ENCODING 111
SWIDTH 772 0
DWIDTH 10 0
BBX 16 15 -8 -8
BITMAP
0180
07e0
1818
2004
4002
4c32
8c31
8181
8181
8001
4002
4422
23c4
1818
07e0
ENDCHAR
STARTCHAR C160
ENCODING 112
SWIDTH 540 0
DWIDTH 7 0
BBX 17 26 -10 -26
BITMAP
07ff80
088900
111200
111200
222400
222400
222400
444800
444800
444800
444800
444800
400800
fffc00
fffc00
fffc00
fffc00
fffc00
fffc00
030000
030000
030000
030000
030000
030000
030000
ENDCHAR
STARTCHAR C161
ENCODING 113
SWIDTH 694 0
DWIDTH 9 0
BBX 8 8 0 -1
BITMAP
76
7a
99
99
99
99
5e
6e
ENDCHAR
STARTCHAR C162
ENCODING 114
SWIDTH 2934 0
DWIDTH 38 0
BBX 38 41 0 -41
BITMAP
0000000000
0000000000
0000000000
000e600000
000f800000
0008000000
0008000000
000c000000
000c000000
000c000000
000c000000
000e000000
000d000000
000c800000
0014800000
0034400000
0034400000
0064200000
00a4200000
00a4100000
00a6080000
0122040000
0122020000
0122010000
0222008000
0222004000
0222002000
0422001000
0423000800
0411000400
0411000200
0409000100
0409000080
0405000040
0405000ff0
03e503f000
003ffc0000
0001000000
01fffffc00
00fffff000
007fffc000
ENDCHAR
STARTCHAR C163
ENCODING 115
SWIDTH 308 0
DWIDTH 4 0
BBX 26 13 -22 -7
BITMAP
000007c0
78001f00
fc007c00
8700f000
ffc3c000
78ff0000
003c0000
78ff0000
ffc3c000
8700f000
fc007c00
78001f00
000007c0
ENDCHAR
STARTCHAR C164
ENCODING 116
SWIDTH 617 0
DWIDTH 8 0
BBX 14 16 2 -10
BITMAP
0018
003c
0038
2828
2a20
aa40
aa40
ffc0
ff80
ff80
db00
7e00
1800
2400
4200
8400
ENDCHAR
STARTCHAR C165
ENCODING 117
SWIDTH 694 0
DWIDTH 9 0
BBX 13 13 0 -13
BITMAP
fff8
fff8
c000
c000
c000
c000
c000
c000
c000
c000
c000
c000
c000
ENDCHAR
STARTCHAR C166
ENCODING 118
SWIDTH 694 0
DWIDTH 9 0
BBX 31 23 -15 -12
BITMAP
00028000
00010000
00028000
00010000
00028000
01010100
01828300
01c10700
01e28f00
ff711dfe
ff3ab9fe
c01d7006
ff3ab9fe
ff711dfe
01e28f00
01c10700
01828300
01010100
00028000
00010000
00028000
00010000
00028000
ENDCHAR
STARTCHAR C167
ENCODING 119
SWIDTH 772 0
DWIDTH 10 0
BBX 19 23 -9 -14
BITMAP
004000
00a000
011000
020800
058400
09f200
107d00
200e80
407c40
81f020
47c040
2e0080
17c100
09f200
043400
020800
011000
00a000
00e000
00a000
00a000
00a000
03f800
ENDCHAR
STARTCHAR C170
ENCODING 120
SWIDTH 694 0
DWIDTH 9 0
BBX 19 19 -9 -10
BITMAP
800020
400040
200080
100100
080200
040400
020800
011000
00a000
004000
00a000
011000
020800
040400
080200
100100
200080
400040
800020
ENDCHAR
STARTCHAR C171
ENCODING 121
SWIDTH 617 0
DWIDTH 8 0
BBX 32 37 1 -30
BITMAP
00000000
00000000
00000007
00000003
00000005
00f83e08
01044110
020280a0
04010040
08010020
10000010
10000010
10000010
10000010
10000010
10000010
10000010
08000020
08000020
08000020
04000040
04040040
02080080
02100080
01200100
01400100
00800200
01400400
02200800
04101000
08082000
70044000
10028000
10010000
00000000
00000000
00000000
ENDCHAR
STARTCHAR C172
ENCODING 122
SWIDTH 1235 0
DWIDTH 16 0
BBX 12 15 4 -8
BITMAP
00c0
01e0
0110
0080
0080
0040
0f40
3fc0
7fc0
8f80
0200
0200
0200
0200
0700
ENDCHAR
STARTCHAR C173
ENCODING 123
SWIDTH 463 0
DWIDTH 6 0
BBX 5 11 0 -1
BITMAP
20
20
20
20
20
20
20
a8
70
20
20
ENDCHAR
STARTCHAR C174
ENCODING 124
SWIDTH 694 0
DWIDTH 9 0
BBX 7 5 -3 -5
BITMAP
10
38
7c
fe
ee
ENDCHAR
STARTCHAR C175
ENCODING 125
SWIDTH 694 0
DWIDTH 9 0
BBX 8 5 0 2
BITMAP
08
04
ff
04
08
ENDCHAR
STARTCHAR C176
ENCODING 126
SWIDTH 694 0
DWIDTH 9 0
BBX 8 5 0 2
BITMAP
10
20
ff
20
10
ENDCHAR
STARTCHAR C174
ENCODING 127
SWIDTH 694 0
DWIDTH 12 0
BBX 7 7 -3 -5
BITMAP
02
06
0e
1e
3e
76
e6
ENDCHAR
STARTCHAR ch-161
ENCODING -1 161
SWIDTH 0 0
DWIDTH 0 0
BBX 9 12 -5 -1
BITMAP
fc00
fc00
cc00
8400
0400
0400
2480
1500
0a00
0e00
0400
0400
ENDCHAR
STARTCHAR ch-162
ENCODING -1 162
SWIDTH 0 0
DWIDTH 0 0
BBX 9 12 -3 -1
BITMAP
1f80
1f80
1980
1080
1000
1000
9200
5400
2800
3800
1000
1000
ENDCHAR
STARTCHAR ch-163
ENCODING -1 163
SWIDTH 0 0
DWIDTH 0 0
BBX 9 12 -4 -1
BITMAP
c980
ff80
c980
4900
0800
0800
4900
2a00
1400
1c00
0800
0800
ENDCHAR
STARTCHAR ch-164
ENCODING -1 164
SWIDTH 0 0
DWIDTH 0 0
BBX 9 12 -4 -1
BITMAP
4900
4900
6b00
2200
3600
1c00
4900
2a00
1400
1c00
0800
0800
ENDCHAR
STARTCHAR ch-165
ENCODING -1 165
SWIDTH 0 0
DWIDTH 0 0
BBX 9 12 -4 -1
BITMAP
1c00
3e00
1c00
0800
0800
0800
4900
2a00
1400
1c00
0800
0800
ENDCHAR
STARTCHAR ch-166
ENCODING -1 166
SWIDTH 0 0
DWIDTH 0 0
BBX 9 12 -4 -1
BITMAP
1c00
3600
2200
0600
0c00
0800
4900
2a00
1400
1c00
0800
0800
ENDCHAR
ENDFONT
