STARTFONT 2.1
COMMENT Created by fdbbdf
FONT times120
SIZE 120 78 78
FONTBOUNDINGBOX 133 155 -3 -51
STARTPROPERTIES 4
Ownership "  "
FONT_ASCENT 104
FONT_DESCENT 51
DEFAULT_CHAR 65
ENDPROPERTIES
CHARS 7
STARTCHAR A
ENCODING -1 65
SWIDTH 0 0
DWIDTH 125 0
BBX 124 151 1 -47
BITMAP
00000000000000030000000000000000
00000000000000070000000000000000
00000000000000078000000000000000
00000000000000078000000000000000
000000000000000f8000000000000000
000000000000000fc000000000000000
000000000000000fc000000000000000
000000000000001fc000000000000000
000000000000001fe000000000000000
000000000000001fe000000000000000
000000000000003fe000000000000000
000000000000003ff000000000000000
000000000000003ff000000000000000
000000000000007ff000000000000000
000000000000007ff800000000000000
000000000000007ff800000000000000
00000000000000fff800000000000000
00000000000000fffc00000000000000
00000000000000fffc00000000000000
00000000000001fffc00000000000000
00000000000001fffe00000000000000
00000000000001fffe00000000000000
00000000000003fffe00000000000000
00000000000003ffff00000000000000
00000000000003ffff00000000000000
00000000000007ffff00000000000000
00000000000007ffff80000000000000
00000000000007ffff80000000000000
0000000000000fffff80000000000000
0000000000000fffffc0000000000000
0000000000000fffffc0000000000000
0000000000001fffffc0000000000000
0000000000001fffffe0000000000000
0000000000001fffffe0000000000000
0000000000003fffffe0000000000000
0000000000003ffffff0000000000000
0000000000003ffffff0000000000000
0000000000007ffffff0000000000000
0000000000007ffffff8000000000000
0000000000007ffffff8000000000000
000000000000fffffff8000000000000
000000000000fffffffc000000000000
000000000000fffffffc000000000000
000000000001f3fffffc000000000000
000000000001f3fffffe000000000000
000000000001e3fffffe000000000000
000000000003e1fffffe000000000000
000000000003e1ffffff000000000000
000000000003c1ffffff000000000000
000000000007c0ffffff000000000000
000000000007c0ffffff800000000000
00000000000780ffffff800000000000
00000000000f807fffff800000000000
00000000000f807fffffc00000000000
00000000000f007fffffc00000000000
00000000001f003fffffc00000000000
00000000001f003fffffe00000000000
00000000001e003fffffe00000000000
00000000003e001fffffe00000000000
00000000003e001ffffff00000000000
00000000003c001ffffff00000000000
00000000007c000ffffff00000000000
00000000007c000ffffff80000000000
000000000078000ffffff80000000000
0000000000f80007fffff80000000000
0000000000f80007fffffc0000000000
0000000000f00007fffffc0000000000
0000000001f00003fffffc0000000000
0000000001f00003fffffe0000000000
0000000001e00003fffffe0000000000
0000000003e00001fffffe0000000000
0000000003e00001ffffff0000000000
0000000003c00001ffffff0000000000
0000000007c00000ffffff0000000000
0000000007c00000ffffff8000000000
0000000007800000ffffff8000000000
000000000f8000007fffff8000000000
000000000f8000007fffffc000000000
000000000f0000007fffffc000000000
000000001f0000003fffffc000000000
000000001f0000003fffffe000000000
000000001e0000003fffffe000000000
000000003e0000001fffffe000000000
000000003e0000001ffffff000000000
000000003c0000001ffffff000000000
000000007c0000000ffffff000000000
000000007c0000000ffffff800000000
00000000780000000ffffff800000000
00000000f800000007fffff800000000
00000000f800000007fffffc00000000
00000000f000000007fffffc00000000
00000001f000000003fffffc00000000
00000001f000000003fffffe00000000
00000001e000000003fffffe00000000
00000003e000000001fffffe00000000
00000003e000000001ffffff00000000
00000003ffffffffffffffff00000000
00000007ffffffffffffffff00000000
00000007ffffffffffffffff80000000
00000007ffffffffffffffff80000000
0000000f80000000007fffff80000000
0000000f80000000007fffffc0000000
0000000f00000000007fffffc0000000
0000001f00000000003fffffc0000000
0000001f00000000003fffffe0000000
0000001e00000000003fffffe0000000
0000003e00000000001fffffe0000000
0000003e00000000001ffffff0000000
0000003c00000000001ffffff0000000
0000007c00000000000ffffff0000000
0000007c00000000000ffffff8000000
0000007800000000000ffffff8000000
000000f8000000000007fffff8000000
000000f8000000000007fffffc000000
000000f0000000000007fffffc000000
000001f0000000000003fffffc000000
000001f0000000000003fffffe000000
000001e0000000000003fffffe000000
000003e0000000000001fffffe000000
000003e0000000000001ffffff000000
000003c0000000000001ffffff000000
000007c0000000000000ffffff000000
000007c0000000000000ffffff800000
00000780000000000000ffffff800000
00000f800000000000007fffff800000
00000f800000000000007fffffc00000
00000f000000000000007fffffc00000
00001f000000000000003fffffc00000
00001f000000000000003fffffe00000
00001e000000000000003fffffe00000
00003e000000000000001fffffe00000
00003e000000000000001ffffff00000
00003c000000000000001ffffff00000
00007c000000000000000ffffff00000
00007c000000000000000ffffff80000
000078000000000000000ffffff80000
0000f80000000000000007fffff80000
0000f80000000000000007fffffc0000
0000f00000000000000007fffffc0000
0001f00000000000000003fffffc0000
0001f00000000000000003fffffe0000
0003f00000000000000003fffffe0000
0003f00000000000000001fffffe0000
0007f00000000000000001ffffff0000
0007f80000000000000001ffffff0000
000ffc0000000000000000ffffff8000
003fff0000000000000000ffffff8000
ffffffffc000000000fffffffffffff0
ffffffffc000000000fffffffffffff0
ffffffffc000000000fffffffffffff0
ffffffffc000000000fffffffffffff0
ENDCHAR
STARTCHAR a
ENCODING -1 97
SWIDTH 0 0
DWIDTH 59 0
BBX 58 68 0 -1
BITMAP
0000000c00000000
0000000c00000000
0000001c00000000
0000001e00000000
0000001e00000000
0000003e00000000
0000003f00000000
0000003f00000000
0000007f00000000
0000007f80000000
0000007f80000000
000000ff80000000
000000ffc0000000
000000ffc0000000
000001ffc0000000
000001ffe0000000
000001ffe0000000
000003ffe0000000
0000037ff0000000
0000037ff0000000
0000067ff0000000
0000063ff8000000
0000063ff8000000
00000c3ff8000000
00000c1ffc000000
00000c1ffc000000
0000181ffc000000
0000180ffe000000
0000180ffe000000
0000300ffe000000
00003007ff000000
00003007ff000000
00006007ff000000
00006003ff800000
00006003ff800000
0000c003ff800000
0000c001ffc00000
0000c001ffc00000
00018001ffc00000
00018000ffe00000
00018000ffe00000
00030000ffe00000
0003fffffff00000
0003fffffff00000
000600007ff00000
000600003ff80000
000600003ff80000
000c00003ff80000
000c00001ffc0000
000c00001ffc0000
001800001ffc0000
001800000ffe0000
001800000ffe0000
003000000ffe0000
0030000007ff0000
0030000007ff0000
0060000007ff0000
0060000003ff8000
0060000003ff8000
00c0000003ff8000
00c0000001ffc000
00c0000001ffc000
0180000001ffc000
0180000000ffe000
0380000000ffe000
07c0000000fff000
ffff80007fffffc0
ffff80007fffffc0
ENDCHAR
STARTCHAR d
ENCODING -1 100
SWIDTH 0 0
DWIDTH 104 0
BBX 100 147 0 -51
BITMAP
00000000003ffffffffff0000000
00000000003ffffffffff0000000
00000000003ffffffffff0000000
00000000003ffffffffff0000000
000000000000000ffffff0000000
000000000000000ffffff0000000
000000000000000ffffff0000000
000000000000000ffffff0000000
000000000000000ffffff0000000
000000000000000ffffff0000000
000000000000000ffffff0000000
000000000000000ffffff0000000
000000000000000ffffff0000000
000000000000000ffffff0000000
000000000000000ffffff0000000
000000000000000ffffff0000000
000000000000000ffffff0000000
000000000000000ffffff0000000
000000000000000ffffff0000000
000000000000000ffffff0000000
000000000000000ffffff0000000
000000000000000ffffff0000000
000000000000000ffffff0000000
000000000000000ffffff0000000
000000000000000ffffff0000000
000000000000000ffffff0000000
000000000000000ffffff0000000
000000000000000ffffff0000000
000000000000000ffffff0000000
000000000000000ffffff0000000
000000000000000ffffff0000000
000000000000000ffffff0000000
000000000000000ffffff0000000
000000000000000ffffff0000000
000000000000000ffffff0000000
000000000000000ffffff0000000
000000000000000ffffff0000000
000000000000000ffffff0000000
000000000000000ffffff0000000
000000000000000ffffff0000000
000000000000000ffffff0000000
000000000000000ffffff0000000
000000000000000ffffff0000000
000000000000000ffffff0000000
000000000000000ffffff0000000
000000000fe0000ffffff0000000
00000000fffc000ffffff0000000
00000007ffff800ffffff0000000
0000001fffffc00ffffff0000000
000000fffc0fe00ffffff0000000
000001ffe003f00ffffff0000000
000007ff8000f80ffffff0000000
00000fff00007c0ffffff0000000
00003ffe00003e0ffffff0000000
00007ffc00001f0ffffff0000000
0000fffc00000f8ffffff0000000
0001fff80000078ffffff0000000
0003fff8000003cffffff0000000
0007fff0000003cffffff0000000
000ffff0000001effffff0000000
001ffff0000000fffffff0000000
001fffe0000000fffffff0000000
003fffe00000007ffffff0000000
007fffe00000007ffffff0000000
007fffe00000003ffffff0000000
00ffffe00000003ffffff0000000
00ffffc00000003ffffff0000000
01ffffc00000001ffffff0000000
01ffffc00000001ffffff0000000
03ffffc00000001ffffff0000000
03ffffc00000001ffffff0000000
07ffffc00000001ffffff0000000
07ffffc00000000ffffff0000000
0fffffc00000000ffffff0000000
0fffffc00000000ffffff0000000
1fffffc00000000ffffff0000000
1fffffc00000000ffffff0000000
1fffffc00000000ffffff0000000
1fffffc00000000ffffff0000000
1fffffc00000000ffffff0000000
3fffffc00000000ffffff0000000
3fffffc00000000ffffff0000000
3fffffc00000000ffffff0000000
3fffffc00000000ffffff0000000
3fffffc00000000ffffff0000000
3fffffc00000000ffffff0000000
7fffffc00000000ffffff0000000
7fffffc00000000ffffff0000000
7fffffc00000000ffffff0000000
7fffffc00000000ffffff0000000
7fffffc00000000ffffff0000000
7fffffc00000000ffffff0000000
7fffffc00000000ffffff0000000
ffffffc00000000ffffff0000000
ffffffc00000000ffffff0000000
ffffffc00000000ffffff0000000
ffffffc00000000ffffff0000000
ffffffc00000000ffffff0000000
ffffffc00000000ffffff0000000
ffffffc00000000ffffff0000000
ffffffc00000000ffffff0000000
ffffffc00000000ffffff0000000
ffffffc00000000ffffff0000000
7fffffc00000000ffffff0000000
7fffffc00000000ffffff0000000
7fffffc00000000ffffff0000000
7fffffc00000000ffffff0000000
7fffffc00000000ffffff0000000
7fffffc00000000ffffff0000000
7fffffc00000000ffffff0000000
3fffffc00000000ffffff0000000
3fffffc00000000ffffff0000000
3fffffc00000000ffffff0000000
3fffffc00000000ffffff0000000
3fffffc00000000ffffff0000000
3fffffc00000000ffffff0000000
1fffffc00000000ffffff0000000
1fffffc00000000ffffff0000000
1fffffc00000000ffffff0000000
1fffffc00000000ffffff0000000
0fffffc00000000ffffff0000000
0fffffc00000001ffffff0000000
07ffffe00000001ffffff0000000
07ffffe00000001ffffff0000000
03ffffe00000001ffffff0000000
03ffffe00000003ffffff0000000
01ffffe00000003ffffff0000000
00fffff00000003ffffff0000000
00fffff00000007ffffff0000000
007ffff00000007ffffff0000000
003ffff00000007ffffff0000000
003ffff0000000fffffff0000000
001ffff8000000effffff0000000
000ffff8000001effffff0000000
0007fff8000003cffffff0000000
0003fffc000003cffffff0000000
0001fffc0000078ffffff0000000
0000fffe00000f8ffffff0000000
00007fff00001f0ffffff0000000
00003fff80003e0ffffffffff000
00000fffe0007c0ffffffffff000
000003fff801f80ffffffffff000
000000fffffff00ffffffffff000
0000003fffffe000000000000000
0000001fffffc000000000000000
00000003ffff0000000000000000
000000000ff00000000000000000
ENDCHAR
STARTCHAR e
ENCODING -1 101
SWIDTH 0 0
DWIDTH 77 0
BBX 76 102 1 -50
BITMAP
00000000fff800000000
0000003fffffe0000000
000001fffffffe000000
000007ffffffff800000
00001ffff07fffc00000
00003fff800ffff00000
0000fffe0003fff80000
0001fffc0001fffc0000
0003fff80000fffe0000
0007fff000007fff0000
000fffe000003fff8000
001fffe000003fff8000
003fffc000001fffc000
007fffc000001fffe000
007fffc000001fffe000
00ffffc000001ffff000
01ffff8000000ffff800
01ffff8000000ffff800
03ffff8000000ffffc00
03ffff8000000ffffc00
07ffff8000000ffffe00
07ffff8000000ffffe00
0fffff8000000fffff00
0fffff8000000fffff00
0fffff8000000fffff00
1fffff8000000fffff80
1fffff8000000fffff80
1fffff8000000fffff80
3fffff8000000fffff80
3fffff8000000fffff80
3fffff8000000fffffc0
3fffff8000000fffffc0
3fffff8000000fffffc0
3fffff8000000fffffc0
7fffff8000000fffffc0
7fffff8000000fffffc0
7fffff8000000fffffe0
7fffff8000000fffffe0
7fffff8000000fffffe0
7fffff8000000fffffe0
7fffff8000000fffffe0
ffffff8000000fffffe0
ffffff8000000fffffe0
ffffff8000000fffffe0
ffffff8000000fffffe0
ffffffffffffffffffe0
ffffffffffffffffffe0
ffffffffffffffffffe0
ffffffffffffffffffe0
ffffff80000000000000
ffffff80000000000000
ffffff80000000000000
ffffff80000000000000
ffffff80000000000000
ffffff80000000000000
ffffff80000000000000
ffffff80000000000000
ffffff80000000000000
ffffff80000000000000
ffffff80000000000000
ffffff80000000000000
ffffff80000000000000
7fffff80000000000000
7fffff80000000000000
7fffff80000000000000
7fffff80000000000000
7fffff80000000000000
7fffff80000000000000
7fffff80000000000000
3fffff80000000000000
3fffff800000000000f0
3fffff800000000000f0
3fffff800000000000f0
3fffff800000000000f0
1fffff800000000000e0
1fffff800000000001e0
1fffff800000000001e0
1fffff800000000001c0
0fffff800000000003c0
0fffff800000000003c0
07ffffc0000000000380
07ffffc0000000000780
03ffffc0000000000780
01ffffc0000000000f00
01ffffc0000000000f00
00ffffe0000000001e00
007fffe0000000001e00
007fffe0000000003c00
003fffe0000000007c00
001ffff0000000007800
000ffff000000000f800
0007fff000000001f000
0003fff800000003e000
0001fffc0000000fc000
00007ffe0000003f8000
00003fff800001ff0000
00000ffff0003ffe0000
000003fffffffff80000
000000ffffffffe00000
0000000fffffff000000
000000007ffff8000000
0000000003ff00000000
ENDCHAR
STARTCHAR n
ENCODING -1 110
SWIDTH 0 0
DWIDTH 104 0
BBX 103 99 -3 -47
BITMAP
0000000000000007fe0000000000
00000000000000fffff000000000
00000000000007ffffff00000000
0000000000003fffffffc0000000
fffffffffc007fffffffe0000000
fffffffffc01fffffffff0000000
fffffffffc01fffffffff8000000
fffffffffc07fe0ffffff8000000
fffffffffc07e003fffffc000000
0003fffffc1f8001fffffe000000
0003fffffc1f0001fffffe000000
0003fffffc7c0000fffffe000000
0003fffffc780000ffffff000000
0003fffffcf000007fffff000000
0003fffffce000007fffff000000
0003fffffdc000007fffff000000
0003ffffffc000007fffff800000
0003ffffff8000007fffff800000
0003ffffff8000007fffff800000
0003ffffff0000007fffff800000
0003ffffff0000007fffff800000
0003fffffe0000007fffff800000
0003fffffe0000007fffff800000
0003fffffe0000007fffff800000
0003fffffc0000007fffff800000
0003fffffc0000007fffff800000
0003fffffc0000007fffff800000
0003fffffc0000007fffff800000
0003fffffc0000007fffff800000
0003fffffc0000007fffff800000
0003fffffc0000007fffff800000
0003fffffc0000007fffff800000
0003fffffc0000007fffff800000
0003fffffc0000007fffff800000
0003fffffc0000007fffff800000
0003fffffc0000007fffff800000
0003fffffc0000007fffff800000
0003fffffc0000007fffff800000
0003fffffc0000007fffff800000
0003fffffc0000007fffff800000
0003fffffc0000007fffff800000
0003fffffc0000007fffff800000
0003fffffc0000007fffff800000
0003fffffc0000007fffff800000
0003fffffc0000007fffff800000
0003fffffc0000007fffff800000
0003fffffc0000007fffff800000
0003fffffc0000007fffff800000
0003fffffc0000007fffff800000
0003fffffc0000007fffff800000
0003fffffc0000007fffff800000
0003fffffc0000007fffff800000
0003fffffc0000007fffff800000
0003fffffc0000007fffff800000
0003fffffc0000007fffff800000
0003fffffc0000007fffff800000
0003fffffc0000007fffff800000
0003fffffc0000007fffff800000
0003fffffc0000007fffff800000
0003fffffc0000007fffff800000
0003fffffc0000007fffff800000
0003fffffc0000007fffff800000
0003fffffc0000007fffff800000
0003fffffc0000007fffff800000
0003fffffc0000007fffff800000
0003fffffc0000007fffff800000
0003fffffc0000007fffff800000
0003fffffc0000007fffff800000
0003fffffc0000007fffff800000
0003fffffc0000007fffff800000
0003fffffc0000007fffff800000
0003fffffc0000007fffff800000
0003fffffc0000007fffff800000
0003fffffc0000007fffff800000
0003fffffc0000007fffff800000
0003fffffc0000007fffff800000
0003fffffc0000007fffff800000
0003fffffc0000007fffff800000
0003fffffc0000007fffff800000
0003fffffc0000007fffff800000
0003fffffc0000007fffff800000
0003fffffc0000007fffff800000
0003fffffc0000007fffff800000
0003fffffc0000007fffff800000
0003fffffc0000007fffff800000
0003fffffc0000007fffff800000
0003fffffc0000007fffff800000
0003fffffc0000007fffff800000
0003fffffc0000007fffff800000
0003fffffc0000007fffff800000
0003fffffc0000007fffff800000
0003fffffc0000007fffff800000
0003fffffc0000007fffff800000
0003fffffc0000007fffff800000
0003fffffc0000007fffff800000
ffffffffffff03fffffffffffe00
ffffffffffff03fffffffffffe00
ffffffffffff03fffffffffffe00
ffffffffffff03fffffffffffe00
ENDCHAR
STARTCHAR r
ENCODING -1 114
SWIDTH 0 0
DWIDTH 87 0
BBX 82 99 0 -47
BITMAP
000000000000000ffe000000
00000000000000ffff800000
00000000000007ffffc00000
0000000000003ffffff00000
fffffffffc00fffffff80000
fffffffffc01fffffffc0000
fffffffffc03fffffffe0000
fffffffffc07fffffffe0000
0003fffffc0fe3ffffff0000
0003fffffc1f87ffffff0000
0003fffffc3f07ffffff0000
0003fffffc7c0fffffff8000
0003fffffcf80fffffff8000
0003fffffcf01fffffff8000
0003fffffde01fffffff8000
0003ffffffc01fffffffc000
0003ffffffc03fffffffc000
0003ffffff803fffffffc000
0003ffffff803fffffffc000
0003ffffff003fffffffc000
0003ffffff003fffffffc000
0003ffffff003fffffffc000
0003fffffe003fffffffc000
0003fffffe003fffffff8000
0003fffffe003fffffff8000
0003fffffe001fffffff8000
0003fffffe001fffffff0000
0003fffffc001fffffff0000
0003fffffc000ffffffe0000
0003fffffc000ffffffe0000
0003fffffc0007fffffc0000
0003fffffc0003fffff80000
0003fffffc0001fffff00000
0003fffffc0000ffffe00000
0003fffffc00003fff800000
0003fffffc000007fc000000
0003fffffc00000000000000
0003fffffc00000000000000
0003fffffc00000000000000
0003fffffc00000000000000
0003fffffc00000000000000
0003fffffc00000000000000
0003fffffc00000000000000
0003fffffc00000000000000
0003fffffc00000000000000
0003fffffc00000000000000
0003fffffc00000000000000
0003fffffc00000000000000
0003fffffc00000000000000
0003fffffc00000000000000
0003fffffc00000000000000
0003fffffc00000000000000
0003fffffc00000000000000
0003fffffc00000000000000
0003fffffc00000000000000
0003fffffc00000000000000
0003fffffc00000000000000
0003fffffc00000000000000
0003fffffc00000000000000
0003fffffc00000000000000
0003fffffc00000000000000
0003fffffc00000000000000
0003fffffc00000000000000
0003fffffc00000000000000
0003fffffc00000000000000
0003fffffc00000000000000
0003fffffc00000000000000
0003fffffc00000000000000
0003fffffc00000000000000
0003fffffc00000000000000
0003fffffc00000000000000
0003fffffc00000000000000
0003fffffc00000000000000
0003fffffc00000000000000
0003fffffc00000000000000
0003fffffc00000000000000
0003fffffc00000000000000
0003fffffc00000000000000
0003fffffc00000000000000
0003fffffc00000000000000
0003fffffc00000000000000
0003fffffc00000000000000
0003fffffc00000000000000
0003fffffc00000000000000
0003fffffc00000000000000
0003fffffc00000000000000
0003fffffc00000000000000
0003fffffc00000000000000
0003fffffc00000000000000
0003fffffc00000000000000
0003fffffc00000000000000
0003fffffc00000000000000
0003fffffc00000000000000
0003fffffc00000000000000
0003fffffc00000000000000
fffffffffffffe0000000000
fffffffffffffe0000000000
fffffffffffffe0000000000
fffffffffffffe0000000000
ENDCHAR
STARTCHAR w
ENCODING -1 119
SWIDTH 0 0
DWIDTH 143 0
BBX 133 97 -3 -49
BITMAP
fffffffffff3ffffffffffe01ffffffff800
fffffffffff3ffffffffffe01ffffffff800
fffffffffff3ffffffffffe01ffffffff800
fffffffffff3ffffffffffe01ffffffff800
000ffffff0000ffffff80000003ffff80000
0007fffff00007fffff80000000fff800000
0007fffff80007fffffc00000007fe000000
0003fffff80007fffffc00000003fc000000
0003fffff80003fffffc00000001f8000000
0003fffffc0003fffffe00000001f8000000
0001fffffc0003fffffe00000001f0000000
0001fffffc0001fffffe00000001f0000000
0001fffffe0001ffffff00000003e0000000
0000fffffe0001ffffff00000003e0000000
0000fffffe0000ffffff00000003e0000000
0000ffffff0000ffffff80000003c0000000
00007fffff0000ffffff80000007c0000000
00007fffff00007fffff80000007c0000000
00007fffff80007fffffc000000780000000
00003fffff80007fffffc000000f80000000
00003fffff80003fffffc000000f80000000
00003fffffc0003fffffe000000f00000000
00003fffffc0003fffffe000001f00000000
00001fffffc0001fffffe000001f00000000
00001fffffe0001ffffff000001e00000000
00001fffffe0001ffffff000003e00000000
00000fffffe0000ffffff000003e00000000
00000ffffff0000ffffff800003c00000000
00000ffffff0000ffffff800007c00000000
000007fffff00007fffff800007c00000000
000007fffff80007fffffc00007800000000
000007fffff80007fffffc0000f800000000
000003fffff80003fffffc0000f800000000
000003fffffc0003fffffe0000f000000000
000003fffffc0003fffffe0001f000000000
000001fffffc0001fffffe0001f000000000
000001fffffe0001ffffff0001e000000000
000001fffffe0003ffffff0003e000000000
000000fffffe0003ffffff0003e000000000
000000ffffff0003ffffff8003c000000000
000000ffffff0007ffffff8007c000000000
0000007fffff0007ffffff8007c000000000
0000007fffff8007ffffffc0078000000000
0000007fffff800fffffffc00f8000000000
0000003fffff800fbfffffc00f8000000000
0000003fffffc00f3fffffe00f0000000000
0000003fffffc01f3fffffe01f0000000000
0000001fffffc01f1fffffe01f0000000000
0000001fffffe01e1ffffff01e0000000000
0000001fffffe03e1ffffff03e0000000000
0000000fffffe03e0ffffff03e0000000000
0000000ffffff03c0ffffff83c0000000000
0000000ffffff07c0ffffff87c0000000000
00000007fffff07c07fffff87c0000000000
00000007fffff87807fffffc780000000000
00000007fffff8f807fffffcf80000000000
00000003fffff8f803fffffcf80000000000
00000003fffffcf003fffffef00000000000
00000003fffffdf003fffffff00000000000
00000001fffffdf001fffffff00000000000
00000001ffffffe001ffffffe00000000000
00000001ffffffe001ffffffe00000000000
00000000ffffffe000ffffffe00000000000
00000000ffffffc000ffffffc00000000000
00000000ffffffc000ffffffc00000000000
000000007fffffc0007fffffc00000000000
000000007fffff80007fffff800000000000
000000007fffff80007fffff800000000000
000000003fffff80003fffff800000000000
000000003fffff00003fffff000000000000
000000003fffff00003fffff000000000000
000000001fffff00001fffff000000000000
000000001ffffe00001ffffe000000000000
000000001ffffe00001ffffe000000000000
000000000ffffe00000ffffe000000000000
000000000ffffc00000ffffc000000000000
000000000ffffc00000ffffc000000000000
0000000007fffc000007fffc000000000000
0000000007fff8000007fff8000000000000
0000000007fff8000007fff8000000000000
0000000003fff8000003fff8000000000000
0000000003fff0000003fff0000000000000
0000000003fff0000003fff0000000000000
0000000001fff0000001fff0000000000000
0000000001ffe0000001ffe0000000000000
0000000001ffe0000001ffe0000000000000
0000000000ffe0000000ffe0000000000000
0000000000ffc0000000ffc0000000000000
0000000000ffc0000000ffc0000000000000
00000000007fc00000007fc0000000000000
00000000007f800000007f80000000000000
00000000007f800000007f80000000000000
00000000003f800000003f80000000000000
00000000003f000000003f00000000000000
00000000001f000000001f00000000000000
00000000001e000000001e00000000000000
00000000000e000000000e00000000000000
ENDCHAR
ENDFONT
