STARTFONT 2.1
COMMENT Created by fdbbdf
FONT ziticon12
SIZE 12 78 78
FONTBOUNDINGBOX 52 59 -9 -50
STARTPROPERTIES 4
Ownership "  "
FONT_ASCENT 9
FONT_DESCENT 50
DEFAULT_CHAR 32
ENDPROPERTIES
CHARS 5
STARTCHAR sp
ENCODING -1 32
SWIDTH 0 0
DWIDTH 9 0
BBX 0 0 0 0
BITMAP
ENDCHAR
STARTCHAR 0
ENCODING -1 48
SWIDTH 0 0
DWIDTH 46 0
BBX 42 30 1 -50
BITMAP
00003e000000
0000c3000000
000301800000
000c00800000
003000800000
00c030800000
078070800000
1e40d0800000
3f2090800000
71b090800000
609190800000
e0d390800000
c057b0800000
d84ea0800000
d65cc0800000
da5881000000
ce5002000000
c24004000000
c05008000000
c05010000000
c05020000000
c05040000000
c05080000000
c05100000000
c05200000000
f05400000000
3c5800000000
0fd000000000
03e000000000
00e000000040
ENDCHAR
STARTCHAR A
ENCODING -1 65
SWIDTH 0 0
DWIDTH 41 0
BBX 18 13 0 -14
BITMAP
ffc00000
63000000
33000000
1f800000
0fc00000
06600000
03300000
011c0000
000f0000
0007c000
00030000
00010000
00010000
ENDCHAR
STARTCHAR x
ENCODING -1 120
SWIDTH 0 0
DWIDTH 12 0
BBX 19 20 -9 -11
BITMAP
00800000
00010000
08100000
00800000
02024000
48400000
00090000
09020000
20502000
02020000
08288000
20810000
05280000
00044000
91100000
02092000
00400000
10000000
02044000
00200000
ENDCHAR
STARTCHAR y
ENCODING -1 121
SWIDTH 0 0
DWIDTH 1 0
BBX 2 2 0 -3
BITMAP
c000
c000
ENDCHAR
ENDFONT
