STARTFONT 2.1
COMMENT Created by fdbbdf
FONT courier14bf
SIZE 14 78 78
FONTBOUNDINGBOX 12 17 -1 -6
STARTPROPERTIES 4
Ownership "  Copyright (c) 1984 Adobe Systems, Inc.  allchars 75orig/CB16.bits  WIDTHERR 0 0  GUIDELINES -4 0 8 10 DONE  TOTAL BITMAP BYTES 2858  "
FONT_ASCENT 11
FONT_DESCENT 6
DEFAULT_CHAR 32
ENDPROPERTIES
CHARS 95
STARTCHAR sp
ENCODING -1 32
SWIDTH 0 0
DWIDTH 10 0
BBX 10 1 1 -1
BITMAP
0000
ENDCHAR
STARTCHAR !
ENCODING -1 33
SWIDTH 0 0
DWIDTH 10 0
BBX 5 11 1 -1
BITMAP
1800
1800
1800
1800
1800
1800
1800
1800
0000
1800
1800
ENDCHAR
STARTCHAR "
ENCODING -1 34
SWIDTH 0 0
DWIDTH 10 0
BBX 6 5 2 5
BITMAP
6c00
6c00
6c00
6c00
6c00
ENDCHAR
STARTCHAR #
ENCODING -1 35
SWIDTH 0 0
DWIDTH 10 0
BBX 9 14 1 -3
BITMAP
1b00
1b00
1b00
1b00
7f80
7f80
3600
3600
7f80
7f80
3600
3600
3600
3600
ENDCHAR
STARTCHAR $
ENCODING -1 36
SWIDTH 0 0
DWIDTH 10 0
BBX 9 14 1 -3
BITMAP
1800
1b00
7f00
ff00
c300
c000
fe00
7f00
0300
c300
ff00
fe00
d800
1800
ENDCHAR
STARTCHAR %
ENCODING -1 37
SWIDTH 0 0
DWIDTH 10 0
BBX 9 11 1 -1
BITMAP
3800
6c00
4400
6d80
3f00
1c00
7e00
db00
1100
1b00
0e00
ENDCHAR
STARTCHAR &
ENCODING -1 38
SWIDTH 0 0
DWIDTH 10 0
BBX 9 11 1 -1
BITMAP
3800
7c00
6c00
6d80
7980
3b00
7f00
ce00
c700
ff80
7d80
ENDCHAR
STARTCHAR '
ENCODING -1 39
SWIDTH 0 0
DWIDTH 10 0
BBX 5 4 2 6
BITMAP
1800
1800
1800
3000
ENDCHAR
STARTCHAR (
ENCODING -1 40
SWIDTH 0 0
DWIDTH 10 0
BBX 9 14 1 -4
BITMAP
0600
0600
0c00
0c00
1c00
1800
1800
1800
1800
1c00
0c00
0c00
0600
0600
ENDCHAR
STARTCHAR )
ENCODING -1 41
SWIDTH 0 0
DWIDTH 10 0
BBX 9 14 1 -4
BITMAP
3000
3000
1800
1800
1c00
0c00
0c00
0c00
0c00
1c00
1800
1800
3000
3000
ENDCHAR
STARTCHAR *
ENCODING -1 42
SWIDTH 0 0
DWIDTH 10 0
BBX 8 8 1 2
BITMAP
1800
1800
ff00
ff00
3c00
3c00
7e00
6600
ENDCHAR
STARTCHAR +
ENCODING -1 43
SWIDTH 0 0
DWIDTH 10 0
BBX 8 10 1 -1
BITMAP
0000
1800
1800
1800
ff00
ff00
1800
1800
1800
0000
ENDCHAR
STARTCHAR ,
ENCODING -1 44
SWIDTH 0 0
DWIDTH 10 0
BBX 5 4 2 -2
BITMAP
1800
1800
1800
3000
ENDCHAR
STARTCHAR -
ENCODING -1 45
SWIDTH 0 0
DWIDTH 10 0
BBX 8 2 1 3
BITMAP
7f00
7f00
ENDCHAR
STARTCHAR .
ENCODING -1 46
SWIDTH 0 0
DWIDTH 10 0
BBX 5 2 1 -1
BITMAP
1800
1800
ENDCHAR
STARTCHAR /
ENCODING -1 47
SWIDTH 0 0
DWIDTH 10 0
BBX 9 14 1 -3
BITMAP
0300
0300
0600
0600
0e00
0c00
0c00
1800
1800
3800
3000
3000
6000
6000
ENDCHAR
STARTCHAR 0
ENCODING -1 48
SWIDTH 0 0
DWIDTH 10 0
BBX 8 10 1 -1
BITMAP
1c00
3e00
7700
6300
6300
6300
6300
7700
3e00
1c00
ENDCHAR
STARTCHAR 1
ENCODING -1 49
SWIDTH 0 0
DWIDTH 10 0
BBX 9 10 1 -1
BITMAP
1c00
7c00
7c00
0c00
0c00
0c00
0c00
0c00
7f80
7f80
ENDCHAR
STARTCHAR 2
ENCODING -1 50
SWIDTH 0 0
DWIDTH 10 0
BBX 8 10 1 -1
BITMAP
1c00
3e00
7700
6300
0700
1e00
3800
7000
7f00
7f00
ENDCHAR
STARTCHAR 3
ENCODING -1 51
SWIDTH 0 0
DWIDTH 10 0
BBX 8 10 1 -1
BITMAP
3c00
7e00
6700
0700
1e00
1e00
0700
6700
7e00
3c00
ENDCHAR
STARTCHAR 4
ENCODING -1 52
SWIDTH 0 0
DWIDTH 10 0
BBX 8 10 1 -1
BITMAP
0e00
1e00
1e00
3600
3600
6600
7f00
7f00
0600
0600
ENDCHAR
STARTCHAR 5
ENCODING -1 53
SWIDTH 0 0
DWIDTH 10 0
BBX 9 10 1 -1
BITMAP
7e00
7e00
6000
7c00
7e00
0700
0300
6700
7e00
3c00
ENDCHAR
STARTCHAR 6
ENCODING -1 54
SWIDTH 0 0
DWIDTH 10 0
BBX 8 10 1 -1
BITMAP
1e00
3e00
7000
6c00
7e00
7700
6300
7300
3e00
1c00
ENDCHAR
STARTCHAR 7
ENCODING -1 55
SWIDTH 0 0
DWIDTH 10 0
BBX 8 10 1 -1
BITMAP
7f00
7f00
6300
0700
0600
0e00
0c00
1c00
1800
3800
ENDCHAR
STARTCHAR 8
ENCODING -1 56
SWIDTH 0 0
DWIDTH 10 0
BBX 9 10 1 -1
BITMAP
3e00
7f00
6300
6300
3e00
7f00
6300
6300
7f00
3e00
ENDCHAR
STARTCHAR 9
ENCODING -1 57
SWIDTH 0 0
DWIDTH 10 0
BBX 8 10 1 -1
BITMAP
1c00
3e00
6700
6300
7700
3f00
1b00
0700
3e00
3c00
ENDCHAR
STARTCHAR :
ENCODING -1 58
SWIDTH 0 0
DWIDTH 10 0
BBX 6 8 1 -1
BITMAP
0c00
0c00
0000
0000
0000
0000
0c00
0c00
ENDCHAR
STARTCHAR ;
ENCODING -1 59
SWIDTH 0 0
DWIDTH 10 0
BBX 3 9 3 -2
BITMAP
6000
6000
0000
0000
0000
6000
6000
6000
c000
ENDCHAR
STARTCHAR <
ENCODING -1 60
SWIDTH 0 0
DWIDTH 10 0
BBX 9 10 1 -1
BITMAP
0080
0380
0f00
3c00
f000
f000
3c00
0f00
0380
0080
ENDCHAR
STARTCHAR =
ENCODING -1 61
SWIDTH 0 0
DWIDTH 10 0
BBX 9 6 1 1
BITMAP
ff00
ff00
0000
0000
ff00
ff00
ENDCHAR
STARTCHAR >
ENCODING -1 62
SWIDTH 0 0
DWIDTH 10 0
BBX 9 10 1 -1
BITMAP
8000
e000
7800
1e00
0780
0780
1e00
7800
e000
8000
ENDCHAR
STARTCHAR ?
ENCODING -1 63
SWIDTH 0 0
DWIDTH 10 0
BBX 9 11 1 -1
BITMAP
3e00
7f00
6300
6300
0700
0e00
0c00
0c00
0000
0c00
0c00
ENDCHAR
STARTCHAR @
ENCODING -1 64
SWIDTH 0 0
DWIDTH 10 0
BBX 9 11 1 -1
BITMAP
3c00
6600
4200
4200
4e00
5a00
5200
5a00
4e00
6000
3e00
ENDCHAR
STARTCHAR A
ENCODING -1 65
SWIDTH 0 0
DWIDTH 10 0
BBX 9 10 1 -1
BITMAP
7c00
7c00
1c00
3600
3600
3e00
7f00
6300
f780
f780
ENDCHAR
STARTCHAR B
ENCODING -1 66
SWIDTH 0 0
DWIDTH 10 0
BBX 9 10 1 -1
BITMAP
fe00
ff00
6300
6300
7f00
7f80
6180
6180
ff80
ff00
ENDCHAR
STARTCHAR C
ENCODING -1 67
SWIDTH 0 0
DWIDTH 10 0
BBX 9 10 1 -1
BITMAP
3d80
7f80
e380
c180
c000
c000
c180
e380
7f00
3e00
ENDCHAR
STARTCHAR D
ENCODING -1 68
SWIDTH 0 0
DWIDTH 10 0
BBX 9 10 1 -1
BITMAP
fe00
ff00
6380
6180
6180
6180
6180
6380
ff00
fe00
ENDCHAR
STARTCHAR E
ENCODING -1 69
SWIDTH 0 0
DWIDTH 10 0
BBX 9 10 1 -1
BITMAP
ff80
ff80
6180
6d80
7c00
7c00
6d80
6180
ff80
ff80
ENDCHAR
STARTCHAR F
ENCODING -1 70
SWIDTH 0 0
DWIDTH 10 0
BBX 9 10 1 -1
BITMAP
ff80
ff80
6180
6d80
7c00
7c00
6c00
6000
fc00
fc00
ENDCHAR
STARTCHAR G
ENCODING -1 71
SWIDTH 0 0
DWIDTH 10 0
BBX 9 10 1 -1
BITMAP
3e00
7f00
e300
c000
c000
c780
c780
e300
7f00
3f00
ENDCHAR
STARTCHAR H
ENCODING -1 72
SWIDTH 0 0
DWIDTH 10 0
BBX 9 10 1 -1
BITMAP
f780
f780
6300
6300
7f00
7f00
6300
6300
f780
f780
ENDCHAR
STARTCHAR I
ENCODING -1 73
SWIDTH 0 0
DWIDTH 10 0
BBX 9 10 1 -1
BITMAP
7e00
7e00
1800
1800
1800
1800
1800
1800
7e00
7e00
ENDCHAR
STARTCHAR J
ENCODING -1 74
SWIDTH 0 0
DWIDTH 10 0
BBX 9 10 1 -1
BITMAP
3f80
3f80
0600
0600
0600
0600
c600
c600
fe00
7c00
ENDCHAR
STARTCHAR K
ENCODING -1 75
SWIDTH 0 0
DWIDTH 10 0
BBX 9 10 1 -1
BITMAP
f780
f780
6e00
7c00
7800
7c00
6e00
6700
f380
f380
ENDCHAR
STARTCHAR L
ENCODING -1 76
SWIDTH 0 0
DWIDTH 10 0
BBX 9 10 1 -1
BITMAP
fc00
fc00
3000
3000
3000
3000
3180
3180
ff80
ff80
ENDCHAR
STARTCHAR M
ENCODING -1 77
SWIDTH 0 0
DWIDTH 10 0
BBX 10 10 1 -1
BITMAP
e1c0
e1c0
7380
7f80
7f80
6d80
6d80
6180
f3c0
f3c0
ENDCHAR
STARTCHAR N
ENCODING -1 78
SWIDTH 0 0
DWIDTH 10 0
BBX 9 10 1 -1
BITMAP
e780
f780
7300
7b00
7b00
6f00
6f00
6700
f700
f300
ENDCHAR
STARTCHAR O
ENCODING -1 79
SWIDTH 0 0
DWIDTH 10 0
BBX 9 10 1 -1
BITMAP
3e00
7f00
6300
c180
c180
c180
c180
6300
7f00
3e00
ENDCHAR
STARTCHAR P
ENCODING -1 80
SWIDTH 0 0
DWIDTH 10 0
BBX 9 10 1 -1
BITMAP
7e00
7f00
3380
3180
3380
3f00
3e00
3000
7c00
7c00
ENDCHAR
STARTCHAR Q
ENCODING -1 81
SWIDTH 0 0
DWIDTH 10 0
BBX 9 12 1 -3
BITMAP
3e00
7f00
6300
c180
c180
c180
c180
6300
7f00
3e00
7d80
6f80
ENDCHAR
STARTCHAR R
ENCODING -1 82
SWIDTH 0 0
DWIDTH 10 0
BBX 9 10 1 -1
BITMAP
fc00
fe00
6700
6300
6600
7e00
7e00
6700
f380
f380
ENDCHAR
STARTCHAR S
ENCODING -1 83
SWIDTH 0 0
DWIDTH 10 0
BBX 9 10 1 -1
BITMAP
3e80
7f80
6180
6000
7f00
3f80
0180
6180
7f80
5f00
ENDCHAR
STARTCHAR T
ENCODING -1 84
SWIDTH 0 0
DWIDTH 10 0
BBX 9 10 1 -1
BITMAP
ff00
ff00
db00
db00
1800
1800
1800
1800
7e00
7e00
ENDCHAR
STARTCHAR U
ENCODING -1 85
SWIDTH 0 0
DWIDTH 10 0
BBX 9 10 1 -1
BITMAP
f780
f780
6300
6300
6300
6300
6300
6300
7f00
3e00
ENDCHAR
STARTCHAR V
ENCODING -1 86
SWIDTH 0 0
DWIDTH 10 0
BBX 9 10 1 -1
BITMAP
f780
f780
6300
6300
3600
3600
1c00
1c00
0800
0800
ENDCHAR
STARTCHAR W
ENCODING -1 87
SWIDTH 0 0
DWIDTH 10 0
BBX 10 10 1 -1
BITMAP
e1c0
e1c0
6d80
6d80
6d80
7f80
7f80
3300
3300
3300
ENDCHAR
STARTCHAR X
ENCODING -1 88
SWIDTH 0 0
DWIDTH 10 0
BBX 9 10 1 -1
BITMAP
e380
e380
7700
3e00
1c00
1c00
3e00
7700
e380
e380
ENDCHAR
STARTCHAR Y
ENCODING -1 89
SWIDTH 0 0
DWIDTH 10 0
BBX 9 10 1 -1
BITMAP
e700
e700
6600
7e00
3c00
1800
1800
1800
7e00
7e00
ENDCHAR
STARTCHAR Z
ENCODING -1 90
SWIDTH 0 0
DWIDTH 10 0
BBX 9 10 1 -1
BITMAP
7f00
7f00
6600
0e00
1c00
1800
3800
7300
7f00
7f00
ENDCHAR
STARTCHAR [
ENCODING -1 91
SWIDTH 0 0
DWIDTH 10 0
BBX 9 14 1 -4
BITMAP
3c00
3c00
3000
3000
3000
3000
3000
3000
3000
3000
3000
3000
3c00
3c00
ENDCHAR
STARTCHAR \
ENCODING -1 92
SWIDTH 0 0
DWIDTH 10 0
BBX 9 14 1 -3
BITMAP
6000
6000
7000
3000
3800
1800
1800
0c00
0c00
0e00
0600
0700
0300
0300
ENDCHAR
STARTCHAR ]
ENCODING -1 93
SWIDTH 0 0
DWIDTH 10 0
BBX 5 14 2 -4
BITMAP
7800
7800
1800
1800
1800
1800
1800
1800
1800
1800
1800
1800
7800
7800
ENDCHAR
STARTCHAR ^
ENCODING -1 94
SWIDTH 0 0
DWIDTH 10 0
BBX 8 5 1 5
BITMAP
1800
3c00
7e00
e700
c300
ENDCHAR
STARTCHAR _
ENCODING -1 95
SWIDTH 0 0
DWIDTH 10 0
BBX 11 2 -1 -6
BITMAP
ffe0
ffe0
ENDCHAR
STARTCHAR `
ENCODING -1 96
SWIDTH 0 0
DWIDTH 10 0
BBX 6 4 1 6
BITMAP
0c00
1800
1800
1800
ENDCHAR
STARTCHAR a
ENCODING -1 97
SWIDTH 0 0
DWIDTH 10 0
BBX 8 8 1 -1
BITMAP
7c00
7e00
0600
7e00
fe00
c600
ff00
7b00
ENDCHAR
STARTCHAR b
ENCODING -1 98
SWIDTH 0 0
DWIDTH 10 0
BBX 9 11 1 -1
BITMAP
e000
e000
6000
7e00
7f00
7380
6180
6180
7380
ff00
ee00
ENDCHAR
STARTCHAR c
ENCODING -1 99
SWIDTH 0 0
DWIDTH 10 0
BBX 8 8 1 -1
BITMAP
1f00
3f00
7300
6000
6000
7300
3f00
1e00
ENDCHAR
STARTCHAR d
ENCODING -1 100
SWIDTH 0 0
DWIDTH 10 0
BBX 9 11 1 -1
BITMAP
0700
0700
0300
3f00
7f00
e700
c300
c300
e700
7f80
3b80
ENDCHAR
STARTCHAR e
ENCODING -1 101
SWIDTH 0 0
DWIDTH 10 0
BBX 9 8 1 -1
BITMAP
3c00
7e00
e700
ff00
ff00
e000
7e00
3e00
ENDCHAR
STARTCHAR f
ENCODING -1 102
SWIDTH 0 0
DWIDTH 10 0
BBX 9 11 1 -1
BITMAP
0f80
1f80
1800
7f00
7f00
1800
1800
1800
1800
7f00
7f00
ENDCHAR
STARTCHAR g
ENCODING -1 103
SWIDTH 0 0
DWIDTH 10 0
BBX 9 12 1 -5
BITMAP
3f80
7f80
e700
c300
c300
e700
7f00
3b00
0300
0700
7e00
7c00
ENDCHAR
STARTCHAR h
ENCODING -1 104
SWIDTH 0 0
DWIDTH 10 0
BBX 9 11 1 -1
BITMAP
e000
e000
6000
6e00
7f00
7300
6300
6300
6300
f780
f780
ENDCHAR
STARTCHAR i
ENCODING -1 105
SWIDTH 0 0
DWIDTH 10 0
BBX 8 11 1 -1
BITMAP
1800
1800
0000
7800
7800
1800
1800
1800
1800
7e00
7e00
ENDCHAR
STARTCHAR j
ENCODING -1 106
SWIDTH 0 0
DWIDTH 10 0
BBX 9 15 1 -5
BITMAP
0c00
0c00
0000
7e00
7e00
0600
0600
0600
0600
0600
0600
0600
0e00
7c00
7800
ENDCHAR
STARTCHAR k
ENCODING -1 107
SWIDTH 0 0
DWIDTH 10 0
BBX 8 11 1 -1
BITMAP
e000
e000
6000
6700
6f00
7c00
7800
7c00
6e00
e700
e700
ENDCHAR
STARTCHAR l
ENCODING -1 108
SWIDTH 0 0
DWIDTH 10 0
BBX 8 11 1 -1
BITMAP
7800
7800
1800
1800
1800
1800
1800
1800
1800
ff00
ff00
ENDCHAR
STARTCHAR m
ENCODING -1 109
SWIDTH 0 0
DWIDTH 10 0
BBX 10 8 1 -1
BITMAP
db00
ff80
7f80
6d80
6d80
6d80
edc0
edc0
ENDCHAR
STARTCHAR n
ENCODING -1 110
SWIDTH 0 0
DWIDTH 10 0
BBX 9 8 1 -1
BITMAP
ee00
ff00
7300
6300
6300
6300
f780
f780
ENDCHAR
STARTCHAR o
ENCODING -1 111
SWIDTH 0 0
DWIDTH 10 0
BBX 9 8 1 -1
BITMAP
3c00
7e00
e700
c300
c300
e700
7e00
3c00
ENDCHAR
STARTCHAR p
ENCODING -1 112
SWIDTH 0 0
DWIDTH 10 0
BBX 9 12 1 -5
BITMAP
ee00
ff00
7380
6180
6180
7380
7f00
6e00
6000
6000
f800
f800
ENDCHAR
STARTCHAR q
ENCODING -1 113
SWIDTH 0 0
DWIDTH 10 0
BBX 9 12 1 -5
BITMAP
3d80
7f80
e700
c300
c300
e700
7f00
3f00
0300
0300
0f80
0f80
ENDCHAR
STARTCHAR r
ENCODING -1 114
SWIDTH 0 0
DWIDTH 10 0
BBX 8 8 1 -1
BITMAP
f700
ff00
3800
3000
3000
3000
fe00
fe00
ENDCHAR
STARTCHAR s
ENCODING -1 115
SWIDTH 0 0
DWIDTH 10 0
BBX 9 8 1 -1
BITMAP
3f00
7f00
6300
7c00
1f00
6300
7f00
7e00
ENDCHAR
STARTCHAR t
ENCODING -1 116
SWIDTH 0 0
DWIDTH 10 0
BBX 8 11 1 -1
BITMAP
3000
3000
3000
ff00
ff00
3000
3000
3000
3100
3f00
1e00
ENDCHAR
STARTCHAR u
ENCODING -1 117
SWIDTH 0 0
DWIDTH 10 0
BBX 9 8 1 -1
BITMAP
e700
e700
6300
6300
6300
6300
7f80
3d80
ENDCHAR
STARTCHAR v
ENCODING -1 118
SWIDTH 0 0
DWIDTH 10 0
BBX 9 8 1 -1
BITMAP
f780
f780
6300
7700
3600
3e00
1c00
0800
ENDCHAR
STARTCHAR w
ENCODING -1 119
SWIDTH 0 0
DWIDTH 10 0
BBX 10 8 1 -1
BITMAP
f3c0
f3c0
6d80
6d80
7f80
3f00
3300
3300
ENDCHAR
STARTCHAR x
ENCODING -1 120
SWIDTH 0 0
DWIDTH 10 0
BBX 8 8 1 -1
BITMAP
e700
e700
7e00
3c00
3c00
7e00
e700
e700
ENDCHAR
STARTCHAR y
ENCODING -1 121
SWIDTH 0 0
DWIDTH 10 0
BBX 8 12 1 -5
BITMAP
e700
e700
6600
6600
7e00
3c00
3c00
1800
1800
3000
f000
f000
ENDCHAR
STARTCHAR z
ENCODING -1 122
SWIDTH 0 0
DWIDTH 10 0
BBX 9 8 1 -1
BITMAP
7f00
7f00
6700
0e00
3800
7300
7f00
7f00
ENDCHAR
STARTCHAR {
ENCODING -1 123
SWIDTH 0 0
DWIDTH 10 0
BBX 4 14 3 -4
BITMAP
3000
7000
6000
6000
6000
6000
e000
e000
6000
6000
6000
6000
7000
3000
ENDCHAR
STARTCHAR |
ENCODING -1 124
SWIDTH 0 0
DWIDTH 10 0
BBX 9 14 1 -4
BITMAP
1800
1800
1800
1800
1800
1800
1800
1800
1800
1800
1800
1800
1800
1800
ENDCHAR
STARTCHAR }
ENCODING -1 125
SWIDTH 0 0
DWIDTH 10 0
BBX 4 14 3 -4
BITMAP
c000
e000
6000
6000
6000
6000
7000
7000
6000
6000
6000
6000
e000
c000
ENDCHAR
STARTCHAR ~
ENCODING -1 126
SWIDTH 0 0
DWIDTH 10 0
BBX 8 4 1 2
BITMAP
6000
fb00
df00
0600
ENDCHAR
ENDFONT
