STARTFONT 2.1
COMMENT Created by fdbbdf
FONT courier12bf
SIZE 12 78 78
FONTBOUNDINGBOX 9 13 0 -4
STARTPROPERTIES 4
Ownership "  Copyright (c) 1984 Adobe Systems, Inc.  allchars 75orig/CB14.bits  WIDTHERR 0 0  GUIDELINES -3 0 7 9 DONE  TOTAL BITMAP BYTES 1684  "
FONT_ASCENT 9
FONT_DESCENT 4
DEFAULT_CHAR 32
ENDPROPERTIES
CHARS 95
STARTCHAR sp
ENCODING -1 32
SWIDTH 0 0
DWIDTH 8 0
BBX 9 1 0 -1
BITMAP
0000
ENDCHAR
STARTCHAR !
ENCODING -1 33
SWIDTH 0 0
DWIDTH 8 0
BBX 2 9 3 -1
BITMAP
c000
c000
c000
c000
c000
c000
0000
c000
c000
ENDCHAR
STARTCHAR "
ENCODING -1 34
SWIDTH 0 0
DWIDTH 8 0
BBX 5 4 2 4
BITMAP
d800
d800
d800
d800
ENDCHAR
STARTCHAR #
ENCODING -1 35
SWIDTH 0 0
DWIDTH 8 0
BBX 7 12 1 -3
BITMAP
6c00
6c00
6c00
fe00
6c00
6c00
6c00
fe00
6c00
6c00
6c00
0000
ENDCHAR
STARTCHAR $
ENCODING -1 36
SWIDTH 0 0
DWIDTH 8 0
BBX 6 11 1 -2
BITMAP
3000
3000
7800
cc00
c000
7800
0c00
cc00
7800
3000
3000
ENDCHAR
STARTCHAR %
ENCODING -1 37
SWIDTH 0 0
DWIDTH 8 0
BBX 7 9 1 -1
BITMAP
4200
a600
ac00
5800
1000
3400
6a00
ca00
8400
ENDCHAR
STARTCHAR &
ENCODING -1 38
SWIDTH 0 0
DWIDTH 8 0
BBX 7 8 1 -1
BITMAP
7000
d000
c600
6c00
f800
d800
dc00
7600
ENDCHAR
STARTCHAR '
ENCODING -1 39
SWIDTH 0 0
DWIDTH 8 0
BBX 3 5 2 3
BITMAP
6000
6000
2000
4000
0000
ENDCHAR
STARTCHAR (
ENCODING -1 40
SWIDTH 0 0
DWIDTH 8 0
BBX 3 11 4 -3
BITMAP
2000
6000
4000
c000
c000
c000
c000
c000
4000
6000
2000
ENDCHAR
STARTCHAR )
ENCODING -1 41
SWIDTH 0 0
DWIDTH 8 0
BBX 3 11 2 -3
BITMAP
8000
c000
4000
6000
6000
6000
6000
6000
4000
c000
8000
ENDCHAR
STARTCHAR *
ENCODING -1 42
SWIDTH 0 0
DWIDTH 8 0
BBX 8 7 1 1
BITMAP
6c00
3800
fe00
3800
6c00
0000
0000
ENDCHAR
STARTCHAR +
ENCODING -1 43
SWIDTH 0 0
DWIDTH 8 0
BBX 8 7 0 0
BITMAP
1800
1800
1800
ff00
1800
1800
1800
ENDCHAR
STARTCHAR ,
ENCODING -1 44
SWIDTH 0 0
DWIDTH 8 0
BBX 3 4 2 -3
BITMAP
e000
e000
6000
c000
ENDCHAR
STARTCHAR -
ENCODING -1 45
SWIDTH 0 0
DWIDTH 8 0
BBX 6 1 1 3
BITMAP
7c00
ENDCHAR
STARTCHAR .
ENCODING -1 46
SWIDTH 0 0
DWIDTH 8 0
BBX 3 4 2 -3
BITMAP
c000
c000
0000
0000
ENDCHAR
STARTCHAR /
ENCODING -1 47
SWIDTH 0 0
DWIDTH 8 0
BBX 6 12 1 -3
BITMAP
0400
0c00
0c00
1800
1800
3000
3000
6000
6000
c000
c000
8000
ENDCHAR
STARTCHAR 0
ENCODING -1 48
SWIDTH 0 0
DWIDTH 8 0
BBX 6 9 1 -1
BITMAP
7800
cc00
cc00
cc00
cc00
cc00
cc00
cc00
7800
ENDCHAR
STARTCHAR 1
ENCODING -1 49
SWIDTH 0 0
DWIDTH 8 0
BBX 6 9 1 -1
BITMAP
3000
f000
3000
3000
3000
3000
3000
3000
fc00
ENDCHAR
STARTCHAR 2
ENCODING -1 50
SWIDTH 0 0
DWIDTH 8 0
BBX 6 9 1 -1
BITMAP
7800
cc00
cc00
0c00
1800
3000
6000
cc00
fc00
ENDCHAR
STARTCHAR 3
ENCODING -1 51
SWIDTH 0 0
DWIDTH 8 0
BBX 6 9 1 -1
BITMAP
7800
cc00
0c00
0c00
3800
0c00
0c00
cc00
7800
ENDCHAR
STARTCHAR 4
ENCODING -1 52
SWIDTH 0 0
DWIDTH 8 0
BBX 6 9 1 -1
BITMAP
0800
1800
3800
7800
d800
fc00
1800
1800
3c00
ENDCHAR
STARTCHAR 5
ENCODING -1 53
SWIDTH 0 0
DWIDTH 8 0
BBX 6 9 1 -1
BITMAP
fc00
c000
c000
f800
1c00
0c00
0c00
dc00
7800
ENDCHAR
STARTCHAR 6
ENCODING -1 54
SWIDTH 0 0
DWIDTH 8 0
BBX 6 9 1 -1
BITMAP
3800
6000
c000
f800
cc00
cc00
cc00
cc00
7800
ENDCHAR
STARTCHAR 7
ENCODING -1 55
SWIDTH 0 0
DWIDTH 8 0
BBX 6 9 1 -1
BITMAP
fc00
cc00
0c00
1800
1800
1800
3000
3000
3000
ENDCHAR
STARTCHAR 8
ENCODING -1 56
SWIDTH 0 0
DWIDTH 8 0
BBX 6 9 1 -1
BITMAP
7800
cc00
cc00
cc00
7800
cc00
cc00
cc00
7800
ENDCHAR
STARTCHAR 9
ENCODING -1 57
SWIDTH 0 0
DWIDTH 8 0
BBX 6 9 1 -1
BITMAP
7800
cc00
cc00
cc00
cc00
7c00
0c00
1800
7000
ENDCHAR
STARTCHAR :
ENCODING -1 58
SWIDTH 0 0
DWIDTH 8 0
BBX 3 7 2 -1
BITMAP
6000
6000
0000
0000
0000
6000
6000
ENDCHAR
STARTCHAR ;
ENCODING -1 59
SWIDTH 0 0
DWIDTH 8 0
BBX 4 9 1 -3
BITMAP
3000
3000
0000
0000
0000
3000
3000
1000
2000
ENDCHAR
STARTCHAR <
ENCODING -1 60
SWIDTH 0 0
DWIDTH 8 0
BBX 6 7 1 0
BITMAP
0c00
3800
6000
c000
6000
3800
0c00
ENDCHAR
STARTCHAR =
ENCODING -1 61
SWIDTH 0 0
DWIDTH 8 0
BBX 7 3 0 2
BITMAP
7e00
0000
7e00
ENDCHAR
STARTCHAR >
ENCODING -1 62
SWIDTH 0 0
DWIDTH 8 0
BBX 6 7 1 0
BITMAP
c000
7000
1800
0c00
1800
7000
c000
ENDCHAR
STARTCHAR ?
ENCODING -1 63
SWIDTH 0 0
DWIDTH 8 0
BBX 5 9 2 -1
BITMAP
7000
d800
1800
1800
3000
6000
0000
6000
6000
ENDCHAR
STARTCHAR @
ENCODING -1 64
SWIDTH 0 0
DWIDTH 8 0
BBX 7 9 1 -1
BITMAP
3800
4400
ba00
ba00
aa00
aa00
bc00
4000
3c00
ENDCHAR
STARTCHAR A
ENCODING -1 65
SWIDTH 0 0
DWIDTH 8 0
BBX 8 9 0 -1
BITMAP
3800
1800
1800
3c00
2c00
6c00
7e00
6600
f700
ENDCHAR
STARTCHAR B
ENCODING -1 66
SWIDTH 0 0
DWIDTH 8 0
BBX 7 9 0 -1
BITMAP
fc00
6600
6600
7c00
6600
6600
6600
6600
fc00
ENDCHAR
STARTCHAR C
ENCODING -1 67
SWIDTH 0 0
DWIDTH 8 0
BBX 7 9 1 -1
BITMAP
3a00
6e00
c600
c200
c000
c000
c200
6600
3c00
ENDCHAR
STARTCHAR D
ENCODING -1 68
SWIDTH 0 0
DWIDTH 8 0
BBX 7 9 1 -1
BITMAP
f800
6c00
6600
6600
6600
6600
6600
6c00
f800
ENDCHAR
STARTCHAR E
ENCODING -1 69
SWIDTH 0 0
DWIDTH 8 0
BBX 7 9 0 -1
BITMAP
fe00
6600
6200
6800
7800
6800
6200
6600
fe00
ENDCHAR
STARTCHAR F
ENCODING -1 70
SWIDTH 0 0
DWIDTH 8 0
BBX 7 9 0 -1
BITMAP
fe00
6600
6200
6800
7800
6800
6000
6000
f800
ENDCHAR
STARTCHAR G
ENCODING -1 71
SWIDTH 0 0
DWIDTH 8 0
BBX 8 9 0 -1
BITMAP
3a00
6e00
c600
c200
c000
cf00
c600
6600
3e00
ENDCHAR
STARTCHAR H
ENCODING -1 72
SWIDTH 0 0
DWIDTH 8 0
BBX 8 9 0 -1
BITMAP
f700
6600
6600
6600
7e00
6600
6600
6600
f700
ENDCHAR
STARTCHAR I
ENCODING -1 73
SWIDTH 0 0
DWIDTH 8 0
BBX 6 9 1 -1
BITMAP
fc00
3000
3000
3000
3000
3000
3000
3000
fc00
ENDCHAR
STARTCHAR J
ENCODING -1 74
SWIDTH 0 0
DWIDTH 8 0
BBX 7 9 1 -1
BITMAP
3e00
0c00
0c00
0c00
0c00
0c00
cc00
cc00
7800
ENDCHAR
STARTCHAR K
ENCODING -1 75
SWIDTH 0 0
DWIDTH 8 0
BBX 8 9 0 -1
BITMAP
f700
6600
6c00
7800
7800
6c00
6c00
6600
f700
ENDCHAR
STARTCHAR L
ENCODING -1 76
SWIDTH 0 0
DWIDTH 8 0
BBX 7 9 1 -1
BITMAP
f800
6000
6000
6000
6000
6000
6200
6600
fe00
ENDCHAR
STARTCHAR M
ENCODING -1 77
SWIDTH 0 0
DWIDTH 8 0
BBX 9 9 0 -1
BITMAP
e380
7700
7700
7f00
6b00
6b00
6300
6300
f380
ENDCHAR
STARTCHAR N
ENCODING -1 78
SWIDTH 0 0
DWIDTH 8 0
BBX 8 9 1 -1
BITMAP
e700
6200
7200
7200
5a00
5a00
4e00
4600
e600
ENDCHAR
STARTCHAR O
ENCODING -1 79
SWIDTH 0 0
DWIDTH 8 0
BBX 7 9 1 -1
BITMAP
3800
6c00
c600
c600
c600
c600
c600
6c00
3800
ENDCHAR
STARTCHAR P
ENCODING -1 80
SWIDTH 0 0
DWIDTH 8 0
BBX 7 9 1 -1
BITMAP
fc00
6600
6600
6600
6600
7c00
6000
6000
f800
ENDCHAR
STARTCHAR Q
ENCODING -1 81
SWIDTH 0 0
DWIDTH 8 0
BBX 7 11 1 -3
BITMAP
3800
6c00
c600
c600
c600
c600
c600
6c00
3800
3e00
6c00
ENDCHAR
STARTCHAR R
ENCODING -1 82
SWIDTH 0 0
DWIDTH 8 0
BBX 8 9 0 -1
BITMAP
fc00
6600
6600
6600
7c00
7800
6c00
6600
f700
ENDCHAR
STARTCHAR S
ENCODING -1 83
SWIDTH 0 0
DWIDTH 8 0
BBX 6 9 1 -1
BITMAP
7c00
cc00
c400
e000
7800
1c00
8c00
cc00
f800
ENDCHAR
STARTCHAR T
ENCODING -1 84
SWIDTH 0 0
DWIDTH 8 0
BBX 8 9 0 -1
BITMAP
ff00
9900
9900
1800
1800
1800
1800
1800
3c00
ENDCHAR
STARTCHAR U
ENCODING -1 85
SWIDTH 0 0
DWIDTH 8 0
BBX 8 9 0 -1
BITMAP
f700
6600
6600
6600
6600
6600
6600
6600
3c00
ENDCHAR
STARTCHAR V
ENCODING -1 86
SWIDTH 0 0
DWIDTH 8 0
BBX 8 9 0 -1
BITMAP
e700
6300
6600
7600
3400
3c00
3800
1800
1000
ENDCHAR
STARTCHAR W
ENCODING -1 87
SWIDTH 0 0
DWIDTH 8 0
BBX 9 9 0 -1
BITMAP
f780
6300
6300
6b00
6b00
7f00
3600
3600
3600
ENDCHAR
STARTCHAR X
ENCODING -1 88
SWIDTH 0 0
DWIDTH 8 0
BBX 7 9 1 -1
BITMAP
ee00
6c00
6c00
3800
3800
3800
6c00
6c00
ee00
ENDCHAR
STARTCHAR Y
ENCODING -1 89
SWIDTH 0 0
DWIDTH 8 0
BBX 8 9 0 -1
BITMAP
e700
6600
2400
3c00
1800
1800
1800
1800
7e00
ENDCHAR
STARTCHAR Z
ENCODING -1 90
SWIDTH 0 0
DWIDTH 8 0
BBX 7 9 1 -1
BITMAP
fe00
8600
0e00
1c00
3800
7000
e000
c200
fe00
ENDCHAR
STARTCHAR [
ENCODING -1 91
SWIDTH 0 0
DWIDTH 8 0
BBX 3 11 3 -3
BITMAP
e000
c000
c000
c000
c000
c000
c000
c000
c000
c000
e000
ENDCHAR
STARTCHAR \
ENCODING -1 92
SWIDTH 0 0
DWIDTH 8 0
BBX 6 13 1 -4
BITMAP
8000
c000
c000
6000
6000
3000
3000
1800
1800
0c00
0c00
0400
0000
ENDCHAR
STARTCHAR ]
ENCODING -1 93
SWIDTH 0 0
DWIDTH 8 0
BBX 3 11 2 -3
BITMAP
e000
6000
6000
6000
6000
6000
6000
6000
6000
6000
e000
ENDCHAR
STARTCHAR ^
ENCODING -1 94
SWIDTH 0 0
DWIDTH 8 0
BBX 5 4 1 4
BITMAP
2000
7000
d800
8800
ENDCHAR
STARTCHAR _
ENCODING -1 95
SWIDTH 0 0
DWIDTH 8 0
BBX 8 3 0 -3
BITMAP
0000
0000
ff00
ENDCHAR
STARTCHAR `
ENCODING -1 96
SWIDTH 0 0
DWIDTH 8 0
BBX 3 4 3 4
BITMAP
6000
c000
e000
4000
ENDCHAR
STARTCHAR a
ENCODING -1 97
SWIDTH 0 0
DWIDTH 8 0
BBX 7 7 1 -1
BITMAP
7800
0c00
7c00
cc00
cc00
cc00
7e00
ENDCHAR
STARTCHAR b
ENCODING -1 98
SWIDTH 0 0
DWIDTH 8 0
BBX 7 9 1 -1
BITMAP
e000
6000
6c00
7e00
6600
6600
6600
6600
fc00
ENDCHAR
STARTCHAR c
ENCODING -1 99
SWIDTH 0 0
DWIDTH 8 0
BBX 6 7 1 -1
BITMAP
7c00
cc00
c400
c000
c400
cc00
7800
ENDCHAR
STARTCHAR d
ENCODING -1 100
SWIDTH 0 0
DWIDTH 8 0
BBX 7 9 1 -1
BITMAP
1c00
0c00
6c00
fc00
cc00
cc00
cc00
cc00
7e00
ENDCHAR
STARTCHAR e
ENCODING -1 101
SWIDTH 0 0
DWIDTH 8 0
BBX 6 7 1 -1
BITMAP
7800
cc00
cc00
fc00
c000
cc00
7800
ENDCHAR
STARTCHAR f
ENCODING -1 102
SWIDTH 0 0
DWIDTH 8 0
BBX 7 9 1 -1
BITMAP
1e00
3000
fc00
3000
3000
3000
3000
3000
fc00
ENDCHAR
STARTCHAR g
ENCODING -1 103
SWIDTH 0 0
DWIDTH 8 0
BBX 7 10 1 -4
BITMAP
7600
cc00
cc00
cc00
cc00
7c00
0c00
0c00
cc00
7800
ENDCHAR
STARTCHAR h
ENCODING -1 104
SWIDTH 0 0
DWIDTH 8 0
BBX 8 9 0 -1
BITMAP
e000
6000
6c00
7e00
6600
6600
6600
6600
ef00
ENDCHAR
STARTCHAR i
ENCODING -1 105
SWIDTH 0 0
DWIDTH 8 0
BBX 6 10 1 -1
BITMAP
3000
3000
0000
f000
3000
3000
3000
3000
3000
fc00
ENDCHAR
STARTCHAR j
ENCODING -1 106
SWIDTH 0 0
DWIDTH 8 0
BBX 5 13 1 -4
BITMAP
1800
1800
0000
7800
1800
1800
1800
1800
1800
1800
1800
7800
7000
ENDCHAR
STARTCHAR k
ENCODING -1 107
SWIDTH 0 0
DWIDTH 8 0
BBX 7 9 1 -1
BITMAP
e000
6000
6e00
6c00
7800
7800
6c00
6c00
ee00
ENDCHAR
STARTCHAR l
ENCODING -1 108
SWIDTH 0 0
DWIDTH 8 0
BBX 6 9 1 -1
BITMAP
f000
3000
3000
3000
3000
3000
3000
3000
fc00
ENDCHAR
STARTCHAR m
ENCODING -1 109
SWIDTH 0 0
DWIDTH 8 0
BBX 8 7 0 -1
BITMAP
d600
ff00
db00
db00
db00
db00
db00
ENDCHAR
STARTCHAR n
ENCODING -1 110
SWIDTH 0 0
DWIDTH 8 0
BBX 7 7 1 -1
BITMAP
d800
7c00
6c00
6c00
6c00
6c00
ee00
ENDCHAR
STARTCHAR o
ENCODING -1 111
SWIDTH 0 0
DWIDTH 8 0
BBX 6 7 1 -1
BITMAP
7800
cc00
cc00
cc00
cc00
cc00
7800
ENDCHAR
STARTCHAR p
ENCODING -1 112
SWIDTH 0 0
DWIDTH 8 0
BBX 7 10 0 -4
BITMAP
dc00
6600
6600
6600
6600
6600
7c00
6000
6000
f000
ENDCHAR
STARTCHAR q
ENCODING -1 113
SWIDTH 0 0
DWIDTH 8 0
BBX 7 10 1 -4
BITMAP
7600
cc00
cc00
cc00
cc00
cc00
7c00
0c00
0c00
1e00
ENDCHAR
STARTCHAR r
ENCODING -1 114
SWIDTH 0 0
DWIDTH 8 0
BBX 6 7 1 -1
BITMAP
dc00
6c00
6000
6000
6000
6000
f800
ENDCHAR
STARTCHAR s
ENCODING -1 115
SWIDTH 0 0
DWIDTH 8 0
BBX 6 7 1 -1
BITMAP
7c00
cc00
c000
7800
0c00
cc00
f800
ENDCHAR
STARTCHAR t
ENCODING -1 116
SWIDTH 0 0
DWIDTH 8 0
BBX 6 9 1 -1
BITMAP
6000
6000
fc00
6000
6000
6000
6000
6c00
3800
ENDCHAR
STARTCHAR u
ENCODING -1 117
SWIDTH 0 0
DWIDTH 8 0
BBX 7 7 1 -1
BITMAP
ec00
6c00
6c00
6c00
6c00
6c00
3600
ENDCHAR
STARTCHAR v
ENCODING -1 118
SWIDTH 0 0
DWIDTH 8 0
BBX 8 7 0 -1
BITMAP
e700
6600
7600
3400
3c00
1800
1800
ENDCHAR
STARTCHAR w
ENCODING -1 119
SWIDTH 0 0
DWIDTH 8 0
BBX 7 7 1 -1
BITMAP
c600
d600
d600
7c00
7c00
2800
2800
ENDCHAR
STARTCHAR x
ENCODING -1 120
SWIDTH 0 0
DWIDTH 8 0
BBX 7 7 1 -1
BITMAP
ee00
6c00
3800
1000
3800
6c00
ee00
ENDCHAR
STARTCHAR y
ENCODING -1 121
SWIDTH 0 0
DWIDTH 8 0
BBX 8 10 0 -4
BITMAP
f700
6600
6600
2c00
3c00
1800
1800
1000
3000
7800
ENDCHAR
STARTCHAR z
ENCODING -1 122
SWIDTH 0 0
DWIDTH 8 0
BBX 6 7 1 -1
BITMAP
fc00
cc00
1800
3000
6000
cc00
fc00
ENDCHAR
STARTCHAR {
ENCODING -1 123
SWIDTH 0 0
DWIDTH 8 0
BBX 4 11 2 -3
BITMAP
3000
6000
6000
6000
6000
c000
6000
6000
6000
6000
3000
ENDCHAR
STARTCHAR |
ENCODING -1 124
SWIDTH 0 0
DWIDTH 8 0
BBX 2 11 3 -3
BITMAP
c000
c000
c000
c000
c000
c000
c000
c000
c000
c000
c000
ENDCHAR
STARTCHAR }
ENCODING -1 125
SWIDTH 0 0
DWIDTH 8 0
BBX 4 11 2 -3
BITMAP
c000
6000
6000
6000
6000
3000
6000
6000
6000
6000
e000
ENDCHAR
STARTCHAR ~
ENCODING -1 126
SWIDTH 0 0
DWIDTH 8 0
BBX 7 3 1 2
BITMAP
7200
fe00
9c00
ENDCHAR
ENDFONT
