STARTFONT 2.1
COMMENT Created by fdbbdf
FONT helvetica16bi
SIZE 16 78 78
FONTBOUNDINGBOX 22 18 -3 -5
STARTPROPERTIES 4
Ownership "  Copyright (c) 1984 Adobe Systems, Inc.  /adobe/fonttools/stdfontvec.ps HM18.bits  TOTAL BITMAP BYTES 2307  TOTAL BITMAP BYTES 2335  GUIDELINES -4 10 0 14 DONE  WIDTHERR -393 -181  "
FONT_ASCENT 13
FONT_DESCENT 5
DEFAULT_CHAR 32
ENDPROPERTIES
CHARS 95
STARTCHAR sp
ENCODING -1 32
SWIDTH 0 0
DWIDTH 5 0
BBX 0 0 0 0
BITMAP
ENDCHAR
STARTCHAR !
ENCODING -1 33
SWIDTH 0 0
DWIDTH 7 0
BBX 7 14 1 -1
BITMAP
0e00
0e00
0e00
1c00
1c00
1c00
1c00
3800
3800
0000
0000
e000
e000
e000
ENDCHAR
STARTCHAR "
ENCODING -1 34
SWIDTH 0 0
DWIDTH 12 0
BBX 8 5 3 8
BITMAP
7700
7700
3300
6600
cc00
ENDCHAR
STARTCHAR #
ENCODING -1 35
SWIDTH 0 0
DWIDTH 12 0
BBX 12 13 1 -1
BITMAP
0360
0360
06c0
3ff0
3ff0
0d80
0d80
1b00
ffe0
ffe0
1b00
3600
3600
ENDCHAR
STARTCHAR $
ENCODING -1 36
SWIDTH 0 0
DWIDTH 11 0
BBX 10 17 1 -4
BITMAP
0300
0300
1f00
3f80
76c0
66c0
7600
3c00
1e00
0f00
1b80
d980
db80
7f00
3e00
3000
3000
ENDCHAR
STARTCHAR %
ENCODING -1 37
SWIDTH 0 0
DWIDTH 16 0
BBX 12 13 3 -1
BITMAP
3860
7ce0
cdc0
cd80
fb00
7700
0e00
1ce0
19f0
3b30
7330
e3e0
c1c0
ENDCHAR
STARTCHAR &
ENCODING -1 38
SWIDTH 0 0
DWIDTH 14 0
BBX 12 13 1 -1
BITMAP
0f00
1f80
1980
1980
1f00
3e00
7c70
eee0
c7c0
c380
e7c0
7ee0
3c70
ENDCHAR
STARTCHAR '
ENCODING -1 39
SWIDTH 0 0
DWIDTH 6 0
BBX 4 5 3 8
BITMAP
7000
7000
3000
6000
c000
ENDCHAR
STARTCHAR (
ENCODING -1 40
SWIDTH 0 0
DWIDTH 7 0
BBX 8 18 1 -5
BITMAP
0300
0e00
1c00
3800
3000
7000
6000
e000
e000
e000
e000
e000
e000
e000
6000
7000
3800
1c00
ENDCHAR
STARTCHAR )
ENCODING -1 41
SWIDTH 0 0
DWIDTH 8 0
BBX 8 18 0 -5
BITMAP
1800
0c00
0e00
0600
0700
0700
0700
0700
0700
0700
0700
0600
0e00
0c00
1c00
3800
7000
e000
ENDCHAR
STARTCHAR *
ENCODING -1 42
SWIDTH 0 0
DWIDTH 9 0
BBX 6 6 4 7
BITMAP
1000
d400
7c00
7000
f000
9800
ENDCHAR
STARTCHAR +
ENCODING -1 43
SWIDTH 0 0
DWIDTH 13 0
BBX 11 10 1 0
BITMAP
0600
0600
0600
0600
7fe0
7fe0
0600
0600
0600
0600
ENDCHAR
STARTCHAR ,
ENCODING -1 44
SWIDTH 0 0
DWIDTH 6 0
BBX 4 5 0 -3
BITMAP
7000
7000
7000
3000
c000
ENDCHAR
STARTCHAR -
ENCODING -1 45
SWIDTH 0 0
DWIDTH 9 0
BBX 8 2 1 4
BITMAP
7e00
7e00
ENDCHAR
STARTCHAR .
ENCODING -1 46
SWIDTH 0 0
DWIDTH 6 0
BBX 3 3 1 -1
BITMAP
e000
e000
e000
ENDCHAR
STARTCHAR /
ENCODING -1 47
SWIDTH 0 0
DWIDTH 5 0
BBX 8 14 0 -1
BITMAP
0300
0300
0600
0600
0c00
0c00
1800
1800
3000
3000
6000
6000
c000
c000
ENDCHAR
STARTCHAR 0
ENCODING -1 48
SWIDTH 0 0
DWIDTH 11 0
BBX 10 13 1 -1
BITMAP
0f00
1f80
3b80
71c0
61c0
e1c0
e1c0
e1c0
e180
e380
7700
7e00
3c00
ENDCHAR
STARTCHAR 1
ENCODING -1 49
SWIDTH 0 0
DWIDTH 10 0
BBX 7 13 3 -1
BITMAP
0e00
1e00
fc00
fc00
1c00
1c00
3800
3800
3800
3800
7000
7000
7000
ENDCHAR
STARTCHAR 2
ENCODING -1 50
SWIDTH 0 0
DWIDTH 10 0
BBX 10 13 0 -1
BITMAP
0f80
1fc0
38c0
30c0
01c0
0380
0700
0e00
1c00
3800
7000
ff00
ff00
ENDCHAR
STARTCHAR 3
ENCODING -1 51
SWIDTH 0 0
DWIDTH 10 0
BBX 10 13 1 -1
BITMAP
0f00
1f80
39c0
30c0
01c0
0f80
0f00
0380
0180
c180
e380
7f00
3e00
ENDCHAR
STARTCHAR 4
ENCODING -1 52
SWIDTH 0 0
DWIDTH 10 0
BBX 10 13 1 -1
BITMAP
01c0
03c0
07c0
0f80
1d80
3b80
7300
e300
ff80
ff80
0e00
0e00
0e00
ENDCHAR
STARTCHAR 5
ENCODING -1 53
SWIDTH 0 0
DWIDTH 10 0
BBX 10 13 1 -1
BITMAP
1fc0
1fc0
3800
3000
7e00
7f00
6380
0180
0180
c380
c700
fe00
7c00
ENDCHAR
STARTCHAR 6
ENCODING -1 54
SWIDTH 0 0
DWIDTH 10 0
BBX 10 13 1 -1
BITMAP
0780
1f80
3800
7000
6c00
ff00
f300
e380
e380
e380
f700
7f00
3c00
ENDCHAR
STARTCHAR 7
ENCODING -1 55
SWIDTH 0 0
DWIDTH 10 0
BBX 10 13 1 -1
BITMAP
3fc0
3fc0
01c0
0380
0700
0600
0e00
1c00
1800
3800
3000
7000
7000
ENDCHAR
STARTCHAR 8
ENCODING -1 56
SWIDTH 0 0
DWIDTH 10 0
BBX 10 13 1 -1
BITMAP
0f00
1f80
39c0
30c0
39c0
1f80
3f00
7380
6180
6180
7380
3f00
1e00
ENDCHAR
STARTCHAR 9
ENCODING -1 57
SWIDTH 0 0
DWIDTH 11 0
BBX 10 13 1 -1
BITMAP
0f00
3f80
39c0
71c0
71c0
71c0
3bc0
3fc0
0d80
0380
0700
7e00
7800
ENDCHAR
STARTCHAR :
ENCODING -1 58
SWIDTH 0 0
DWIDTH 6 0
BBX 4 10 1 -1
BITMAP
7000
7000
7000
0000
0000
0000
0000
e000
e000
e000
ENDCHAR
STARTCHAR ;
ENCODING -1 59
SWIDTH 0 0
DWIDTH 6 0
BBX 5 12 0 -3
BITMAP
3800
3800
3800
0000
0000
0000
0000
7000
7000
7000
3000
e000
ENDCHAR
STARTCHAR <
ENCODING -1 60
SWIDTH 0 0
DWIDTH 11 0
BBX 9 9 1 1
BITMAP
0180
0780
1e00
7800
e000
7800
1e00
0780
0180
ENDCHAR
STARTCHAR =
ENCODING -1 61
SWIDTH 0 0
DWIDTH 11 0
BBX 9 6 1 2
BITMAP
7f80
7f80
0000
0000
7f80
7f80
ENDCHAR
STARTCHAR >
ENCODING -1 62
SWIDTH 0 0
DWIDTH 11 0
BBX 10 9 1 1
BITMAP
6000
7800
1e00
0780
01c0
0780
1e00
7800
6000
ENDCHAR
STARTCHAR ?
ENCODING -1 63
SWIDTH 0 0
DWIDTH 11 0
BBX 9 14 3 -1
BITMAP
3f00
7f80
e380
e380
0700
1e00
3c00
7000
e000
e000
0000
0000
e000
e000
ENDCHAR
STARTCHAR @
ENCODING -1 64
SWIDTH 0 0
DWIDTH 18 0
BBX 16 17 2 -4
BITMAP
03f0
0ffc
1e0e
3807
70db
63f3
e733
c633
cc63
cc66
ccce
cffc
6738
7000
3800
1ff0
07f0
ENDCHAR
STARTCHAR A
ENCODING -1 65
SWIDTH 0 0
DWIDTH 13 0
BBX 12 14 0 -1
BITMAP
00f0
01f0
03f0
0370
0770
0e70
0e70
1c70
3870
3ff0
7ff0
7070
e070
e070
ENDCHAR
STARTCHAR B
ENCODING -1 66
SWIDTH 0 0
DWIDTH 12 0
BBX 12 14 0 -1
BITMAP
1fe0
1ff0
1c70
3870
3870
38e0
7fc0
7fe0
70e0
70e0
e0e0
e1c0
ffc0
ff00
ENDCHAR
STARTCHAR C
ENCODING -1 67
SWIDTH 0 0
DWIDTH 14 0
BBX 13 14 1 -1
BITMAP
03e0
0ff0
1e38
3818
7000
7000
e000
e000
e000
e030
e070
71e0
7fc0
1f00
ENDCHAR
STARTCHAR D
ENCODING -1 68
SWIDTH 0 0
DWIDTH 14 0
BBX 14 14 0 -1
BITMAP
1fe0
1ff8
1c38
381c
381c
381c
301c
701c
7038
7038
e070
e1e0
ffc0
ff00
ENDCHAR
STARTCHAR E
ENCODING -1 69
SWIDTH 0 0
DWIDTH 12 0
BBX 13 14 0 -1
BITMAP
1ff8
1ff8
1c00
3800
3800
3800
3fe0
7fe0
7000
7000
7000
e000
ffc0
ffc0
ENDCHAR
STARTCHAR F
ENCODING -1 70
SWIDTH 0 0
DWIDTH 11 0
BBX 13 14 0 -1
BITMAP
1ff8
1ff8
1c00
3800
3800
3800
3fc0
7fc0
7000
7000
7000
e000
e000
e000
ENDCHAR
STARTCHAR G
ENCODING -1 71
SWIDTH 0 0
DWIDTH 14 0
BBX 13 14 1 -1
BITMAP
03e0
0ff0
1e38
3818
7000
7000
e000
e3f0
e3f0
e070
e070
70e0
7fe0
1f60
ENDCHAR
STARTCHAR H
ENCODING -1 72
SWIDTH 0 0
DWIDTH 13 0
BBX 14 14 0 -1
BITMAP
1c1c
1c1c
1c1c
3838
3838
3838
3ff8
7ff0
7070
7070
7070
e0e0
e0e0
e0e0
ENDCHAR
STARTCHAR I
ENCODING -1 73
SWIDTH 0 0
DWIDTH 5 0
BBX 6 14 0 -1
BITMAP
1c00
1c00
1c00
3800
3800
3800
3800
7000
7000
7000
7000
e000
e000
e000
ENDCHAR
STARTCHAR J
ENCODING -1 74
SWIDTH 0 0
DWIDTH 10 0
BBX 11 14 0 -1
BITMAP
00e0
00e0
00e0
01c0
01c0
01c0
01c0
0380
0380
e380
e380
e700
7f00
3e00
ENDCHAR
STARTCHAR K
ENCODING -1 75
SWIDTH 0 0
DWIDTH 15 0
BBX 15 14 0 -1
BITMAP
1c3c
1c78
1cf0
39e0
3bc0
3f80
3f00
7f00
7780
73c0
71e0
e0f0
e078
e03c
ENDCHAR
STARTCHAR L
ENCODING -1 76
SWIDTH 0 0
DWIDTH 10 0
BBX 9 14 0 -1
BITMAP
1c00
1c00
1c00
3800
3800
3800
3800
7000
7000
7000
7000
e000
ff80
ff80
ENDCHAR
STARTCHAR M
ENCODING -1 77
SWIDTH 0 0
DWIDTH 17 0
BBX 18 14 0 -1
BITMAP
1c01c000
1c03c000
1c07c000
3e0f8000
3e1d8000
3e1b8000
363b8000
76338000
76770000
76e70000
76c70000
e3ce0000
e38e0000
e38e0000
ENDCHAR
STARTCHAR N
ENCODING -1 78
SWIDTH 0 0
DWIDTH 14 0
BBX 15 14 0 -1
BITMAP
1c0e
1c0e
1e0e
3e1c
3f1c
3b1c
3b9c
73b8
71b8
71f8
70f0
e0f0
e070
e070
ENDCHAR
STARTCHAR O
ENCODING -1 79
SWIDTH 0 0
DWIDTH 15 0
BBX 14 14 1 -1
BITMAP
03e0
0ff8
1e38
381c
701c
701c
e01c
e01c
e038
e038
e070
71e0
7fc0
1f00
ENDCHAR
STARTCHAR P
ENCODING -1 80
SWIDTH 0 0
DWIDTH 12 0
BBX 13 14 0 -1
BITMAP
1fe0
1ff0
1c38
3838
3838
3878
38f0
7fe0
7f80
7000
7000
e000
e000
e000
ENDCHAR
STARTCHAR Q
ENCODING -1 81
SWIDTH 0 0
DWIDTH 16 0
BBX 15 14 1 -1
BITMAP
03f0
0ffc
1e1c
380e
700e
700e
e00e
e00e
e01c
e19c
e1f8
7070
7ff8
1f9c
ENDCHAR
STARTCHAR R
ENCODING -1 82
SWIDTH 0 0
DWIDTH 13 0
BBX 13 14 0 -1
BITMAP
1fe0
1ff0
1c78
3838
3838
3870
3ff0
7fe0
7070
7070
7070
e0e0
e0e0
e0e0
ENDCHAR
STARTCHAR S
ENCODING -1 83
SWIDTH 0 0
DWIDTH 12 0
BBX 11 14 1 -1
BITMAP
0f80
3fc0
78e0
7060
7800
3c00
1f00
0f80
03c0
01c0
e1c0
e3c0
7f80
3e00
ENDCHAR
STARTCHAR T
ENCODING -1 84
SWIDTH 0 0
DWIDTH 11 0
BBX 11 14 2 -1
BITMAP
ffe0
ffe0
0e00
0e00
0e00
1c00
1c00
1c00
3800
3800
3800
7000
7000
7000
ENDCHAR
STARTCHAR U
ENCODING -1 85
SWIDTH 0 0
DWIDTH 13 0
BBX 13 14 1 -1
BITMAP
3838
3838
3838
7070
7070
7070
7070
e0e0
e0e0
e0e0
e1c0
73c0
7f80
1e00
ENDCHAR
STARTCHAR V
ENCODING -1 86
SWIDTH 0 0
DWIDTH 13 0
BBX 11 14 3 -1
BITMAP
e0e0
e0e0
e1c0
e1c0
e380
e380
e700
e700
ee00
6e00
7c00
7c00
7800
7000
ENDCHAR
STARTCHAR W
ENCODING -1 87
SWIDTH 0 0
DWIDTH 18 0
BBX 17 14 2 -1
BITMAP
e0c38000
e1c38000
e1c38000
e3c70000
e3c70000
e7ce0000
e6ce0000
eedc0000
ecdc0000
7cf80000
78f00000
78f00000
70e00000
70e00000
ENDCHAR
STARTCHAR X
ENCODING -1 88
SWIDTH 0 0
DWIDTH 12 0
BBX 15 14 -1 -1
BITMAP
1c0e
1c1e
0e3c
0e78
07f0
07e0
03c0
0780
0fc0
1fe0
3ce0
7870
f070
e038
ENDCHAR
STARTCHAR Y
ENCODING -1 89
SWIDTH 0 0
DWIDTH 12 0
BBX 11 14 3 -1
BITMAP
e0e0
e0e0
e1c0
e1c0
f380
7380
7700
7e00
3c00
3800
3800
7000
7000
7000
ENDCHAR
STARTCHAR Z
ENCODING -1 90
SWIDTH 0 0
DWIDTH 11 0
BBX 13 14 -1 -1
BITMAP
1ff8
1ff8
0038
0070
00e0
01c0
0380
0700
0e00
1c00
3800
7000
ffe0
ffe0
ENDCHAR
STARTCHAR [
ENCODING -1 91
SWIDTH 0 0
DWIDTH 6 0
BBX 9 18 0 -5
BITMAP
0f80
0f80
0e00
0e00
1c00
1c00
1c00
3800
3800
3800
3800
7000
7000
7000
e000
e000
f800
f800
ENDCHAR
STARTCHAR \
ENCODING -1 92
SWIDTH 0 0
DWIDTH 5 0
BBX 3 14 2 -1
BITMAP
c000
c000
c000
c000
c000
c000
c000
6000
6000
6000
6000
6000
6000
6000
ENDCHAR
STARTCHAR ]
ENCODING -1 93
SWIDTH 0 0
DWIDTH 6 0
BBX 9 18 -1 -5
BITMAP
0f80
0f80
0380
0380
0700
0700
0700
0e00
0e00
0e00
0e00
1c00
1c00
1c00
3800
3800
f800
f800
ENDCHAR
STARTCHAR ^
ENCODING -1 94
SWIDTH 0 0
DWIDTH 11 0
BBX 9 7 2 5
BITMAP
0600
0e00
1f00
3b00
7300
e180
c180
ENDCHAR
STARTCHAR _
ENCODING -1 95
SWIDTH 0 0
DWIDTH 10 0
BBX 10 2 -1 -5
BITMAP
ffc0
ffc0
ENDCHAR
STARTCHAR `
ENCODING -1 96
SWIDTH 0 0
DWIDTH 6 0
BBX 4 5 3 8
BITMAP
3000
6000
c000
e000
e000
ENDCHAR
STARTCHAR a
ENCODING -1 97
SWIDTH 0 0
DWIDTH 11 0
BBX 10 10 0 -1
BITMAP
1f80
3fc0
00c0
0fc0
3fc0
71c0
e180
e380
ff80
7b80
ENDCHAR
STARTCHAR b
ENCODING -1 98
SWIDTH 0 0
DWIDTH 12 0
BBX 11 14 0 -1
BITMAP
1c00
1c00
1c00
3800
3b80
3fc0
3ce0
78e0
70e0
70e0
71c0
f3c0
ff80
ee00
ENDCHAR
STARTCHAR c
ENCODING -1 99
SWIDTH 0 0
DWIDTH 10 0
BBX 10 10 0 -1
BITMAP
0f80
3fc0
79c0
7000
e000
e000
e180
e380
7f00
3e00
ENDCHAR
STARTCHAR d
ENCODING -1 100
SWIDTH 0 0
DWIDTH 11 0
BBX 12 14 0 -1
BITMAP
0070
0070
0070
00e0
0ee0
3fe0
7be0
71c0
e1c0
e1c0
e3c0
e780
7f80
3b80
ENDCHAR
STARTCHAR e
ENCODING -1 101
SWIDTH 0 0
DWIDTH 11 0
BBX 10 10 0 -1
BITMAP
0f00
3f80
79c0
71c0
ffc0
ffc0
e000
e180
7f80
3e00
ENDCHAR
STARTCHAR f
ENCODING -1 102
SWIDTH 0 0
DWIDTH 7 0
BBX 8 14 1 -1
BITMAP
0f00
1f00
1c00
3800
fe00
fe00
3800
7000
7000
7000
7000
e000
e000
e000
ENDCHAR
STARTCHAR g
ENCODING -1 103
SWIDTH 0 0
DWIDTH 11 0
BBX 11 14 0 -5
BITMAP
0ee0
3fe0
7be0
71c0
e1c0
e1c0
e380
f780
7f80
3b80
0300
c700
fe00
7c00
ENDCHAR
STARTCHAR h
ENCODING -1 104
SWIDTH 0 0
DWIDTH 11 0
BBX 11 14 0 -1
BITMAP
1c00
1c00
1c00
3800
3bc0
3fe0
3ce0
70e0
71c0
71c0
71c0
e380
e380
e380
ENDCHAR
STARTCHAR i
ENCODING -1 105
SWIDTH 0 0
DWIDTH 5 0
BBX 6 14 0 -1
BITMAP
1c00
1c00
0000
0000
3800
3800
3800
7000
7000
7000
7000
e000
e000
e000
ENDCHAR
STARTCHAR j
ENCODING -1 106
SWIDTH 0 0
DWIDTH 5 0
BBX 9 18 -3 -5
BITMAP
0380
0380
0000
0000
0700
0700
0700
0e00
0e00
0e00
0e00
1c00
1c00
1c00
1c00
3800
f800
f000
ENDCHAR
STARTCHAR k
ENCODING -1 107
SWIDTH 0 0
DWIDTH 10 0
BBX 10 14 0 -1
BITMAP
1c00
1c00
1c00
3800
39c0
3b80
3700
7e00
7c00
7c00
6e00
e700
e380
e180
ENDCHAR
STARTCHAR l
ENCODING -1 108
SWIDTH 0 0
DWIDTH 5 0
BBX 6 14 0 -1
BITMAP
1c00
1c00
1c00
3800
3800
3800
3800
7000
7000
7000
7000
e000
e000
e000
ENDCHAR
STARTCHAR m
ENCODING -1 109
SWIDTH 0 0
DWIDTH 15 0
BBX 15 10 0 -1
BITMAP
3b9c
3ffe
3dee
79ce
739c
739c
739c
e738
e738
e738
ENDCHAR
STARTCHAR n
ENCODING -1 110
SWIDTH 0 0
DWIDTH 11 0
BBX 11 10 0 -1
BITMAP
3bc0
3fe0
3ce0
78e0
71c0
71c0
71c0
e380
e380
e380
ENDCHAR
STARTCHAR o
ENCODING -1 111
SWIDTH 0 0
DWIDTH 11 0
BBX 10 10 0 -1
BITMAP
0f00
3f80
79c0
71c0
e1c0
e1c0
e380
e780
7f00
3c00
ENDCHAR
STARTCHAR p
ENCODING -1 112
SWIDTH 0 0
DWIDTH 12 0
BBX 12 14 -1 -5
BITMAP
1dc0
1fe0
1e70
3c70
3870
3870
38e0
79e0
7fc0
7700
7000
e000
e000
e000
ENDCHAR
STARTCHAR q
ENCODING -1 113
SWIDTH 0 0
DWIDTH 11 0
BBX 11 14 0 -5
BITMAP
0ee0
3fe0
7be0
71c0
e1c0
e1c0
e3c0
e780
7f80
3b80
0380
0700
0700
0700
ENDCHAR
STARTCHAR r
ENCODING -1 114
SWIDTH 0 0
DWIDTH 7 0
BBX 8 10 0 -1
BITMAP
3700
3f00
3800
7800
7000
7000
7000
e000
e000
e000
ENDCHAR
STARTCHAR s
ENCODING -1 115
SWIDTH 0 0
DWIDTH 10 0
BBX 10 10 0 -1
BITMAP
0f80
3fc0
79c0
7000
3f00
1f80
0380
e780
ff00
7c00
ENDCHAR
STARTCHAR t
ENCODING -1 116
SWIDTH 0 0
DWIDTH 7 0
BBX 7 13 1 -1
BITMAP
1c00
1c00
3800
fe00
fe00
3800
7000
7000
7000
e000
e000
f800
7800
ENDCHAR
STARTCHAR u
ENCODING -1 117
SWIDTH 0 0
DWIDTH 11 0
BBX 11 10 0 -1
BITMAP
38e0
38e0
38e0
71c0
71c0
71c0
e3c0
e780
ff80
7b80
ENDCHAR
STARTCHAR v
ENCODING -1 118
SWIDTH 0 0
DWIDTH 10 0
BBX 9 10 1 -1
BITMAP
e380
e380
e700
e700
ee00
ee00
fc00
f800
7800
7000
ENDCHAR
STARTCHAR w
ENCODING -1 119
SWIDTH 0 0
DWIDTH 14 0
BBX 13 10 1 -1
BITMAP
e738
e738
e738
e770
ef70
6f60
7be0
7bc0
7380
7380
ENDCHAR
STARTCHAR x
ENCODING -1 120
SWIDTH 0 0
DWIDTH 10 0
BBX 10 10 0 -1
BITMAP
30c0
39c0
1b80
1f00
0e00
1e00
3f00
7300
e380
c180
ENDCHAR
STARTCHAR y
ENCODING -1 121
SWIDTH 0 0
DWIDTH 10 0
BBX 10 14 0 -5
BITMAP
71c0
71c0
71c0
7380
7380
3300
3700
3e00
1e00
1c00
1c00
3800
f000
e000
ENDCHAR
STARTCHAR z
ENCODING -1 122
SWIDTH 0 0
DWIDTH 9 0
BBX 10 10 0 -1
BITMAP
3fc0
3fc0
0380
0700
0e00
1c00
3800
7000
ff00
ff00
ENDCHAR
STARTCHAR {
ENCODING -1 123
SWIDTH 0 0
DWIDTH 8 0
BBX 7 18 2 -5
BITMAP
0e00
1c00
1800
1800
1800
1800
3800
7000
e000
7000
3000
3000
6000
6000
6000
6000
7000
3800
ENDCHAR
STARTCHAR |
ENCODING -1 124
SWIDTH 0 0
DWIDTH 5 0
BBX 7 18 0 -5
BITMAP
0e00
0e00
0e00
1c00
1c00
1c00
1c00
3800
3800
3800
3800
7000
7000
7000
7000
e000
e000
e000
ENDCHAR
STARTCHAR }
ENCODING -1 125
SWIDTH 0 0
DWIDTH 9 0
BBX 7 18 2 -5
BITMAP
3800
1c00
0c00
0c00
1800
1800
1800
1c00
0e00
1c00
3800
3000
3000
3000
3000
3000
7000
e000
ENDCHAR
STARTCHAR ~
ENCODING -1 126
SWIDTH 0 0
DWIDTH 11 0
BBX 9 3 2 3
BITMAP
7980
ff80
cf00
ENDCHAR
ENDFONT
