STARTFONT 2.1
COMMENT Created by fdbbdf
FONT helvetica16
SIZE 16 78 78
FONTBOUNDINGBOX 18 18 -1 -5
STARTPROPERTIES 4
Ownership "  Copyright (c) 1984 Adobe Systems, Inc.  /adobe/fonttools/stdfontvec.ps HM18.bits  TOTAL BITMAP BYTES 2307  TOTAL BITMAP BYTES 2335  GUIDELINES -4 0 10 14 DONE  WIDTHERR -96 -194  "
FONT_ASCENT 13
FONT_DESCENT 5
DEFAULT_CHAR 32
ENDPROPERTIES
CHARS 95
STARTCHAR sp
ENCODING -1 32
SWIDTH 0 0
DWIDTH 5 0
BBX 0 0 0 0
BITMAP
ENDCHAR
STARTCHAR !
ENCODING -1 33
SWIDTH 0 0
DWIDTH 6 0
BBX 2 14 2 -1
BITMAP
c000
c000
c000
c000
c000
c000
c000
c000
c000
c000
0000
0000
c000
c000
ENDCHAR
STARTCHAR "
ENCODING -1 34
SWIDTH 0 0
DWIDTH 5 0
BBX 3 5 1 8
BITMAP
a000
a000
a000
a000
a000
ENDCHAR
STARTCHAR #
ENCODING -1 35
SWIDTH 0 0
DWIDTH 10 0
BBX 10 13 0 -1
BITMAP
0900
0900
0900
7fc0
7fc0
1200
1200
1200
ff80
ff80
2400
2400
2400
ENDCHAR
STARTCHAR $
ENCODING -1 36
SWIDTH 0 0
DWIDTH 10 0
BBX 9 16 0 -3
BITMAP
0800
3e00
6b00
c980
c980
e800
7800
3e00
0f00
0b80
c980
c980
6b00
3e00
0800
0800
ENDCHAR
STARTCHAR %
ENCODING -1 37
SWIDTH 0 0
DWIDTH 16 0
BBX 14 13 1 -1
BITMAP
7860
fcc0
ccc0
cd80
fd80
7b00
0300
0678
06fc
0ccc
0ccc
18fc
1878
ENDCHAR
STARTCHAR &
ENCODING -1 38
SWIDTH 0 0
DWIDTH 13 0
BBX 12 13 1 -1
BITMAP
3c00
7e00
6600
6600
3c00
7c00
ee60
c6e0
c3c0
c380
e7c0
7ee0
3c70
ENDCHAR
STARTCHAR '
ENCODING -1 39
SWIDTH 0 0
DWIDTH 4 0
BBX 2 5 1 8
BITMAP
c000
c000
4000
4000
8000
ENDCHAR
STARTCHAR (
ENCODING -1 40
SWIDTH 0 0
DWIDTH 6 0
BBX 4 18 1 -5
BITMAP
1000
3000
6000
6000
c000
c000
c000
c000
c000
c000
c000
c000
c000
c000
6000
6000
3000
1000
ENDCHAR
STARTCHAR )
ENCODING -1 41
SWIDTH 0 0
DWIDTH 6 0
BBX 4 18 1 -5
BITMAP
8000
c000
6000
6000
3000
3000
3000
3000
3000
3000
3000
3000
3000
3000
6000
6000
c000
8000
ENDCHAR
STARTCHAR *
ENCODING -1 42
SWIDTH 0 0
DWIDTH 7 0
BBX 5 7 1 6
BITMAP
2000
a800
7000
2000
7000
a800
2000
ENDCHAR
STARTCHAR +
ENCODING -1 43
SWIDTH 0 0
DWIDTH 11 0
BBX 10 10 1 0
BITMAP
0c00
0c00
0c00
0c00
ffc0
ffc0
0c00
0c00
0c00
0c00
ENDCHAR
STARTCHAR ,
ENCODING -1 44
SWIDTH 0 0
DWIDTH 5 0
BBX 2 5 1 -4
BITMAP
c000
c000
4000
4000
8000
ENDCHAR
STARTCHAR -
ENCODING -1 45
SWIDTH 0 0
DWIDTH 8 0
BBX 6 2 1 4
BITMAP
fc00
fc00
ENDCHAR
STARTCHAR .
ENCODING -1 46
SWIDTH 0 0
DWIDTH 5 0
BBX 2 2 1 -1
BITMAP
c000
c000
ENDCHAR
STARTCHAR /
ENCODING -1 47
SWIDTH 0 0
DWIDTH 5 0
BBX 5 14 0 -1
BITMAP
1800
1800
1800
1800
3000
3000
3000
6000
6000
6000
c000
c000
c000
c000
ENDCHAR
STARTCHAR 0
ENCODING -1 48
SWIDTH 0 0
DWIDTH 10 0
BBX 8 13 1 -1
BITMAP
3c00
7e00
e700
c300
c300
c300
c300
c300
c300
c300
e700
7e00
3c00
ENDCHAR
STARTCHAR 1
ENCODING -1 49
SWIDTH 0 0
DWIDTH 8 0
BBX 5 13 1 -1
BITMAP
1800
3800
f800
f800
1800
1800
1800
1800
1800
1800
1800
1800
1800
ENDCHAR
STARTCHAR 2
ENCODING -1 50
SWIDTH 0 0
DWIDTH 10 0
BBX 8 13 1 -1
BITMAP
3c00
7e00
e700
c300
0300
0700
0e00
1c00
3800
7000
e000
ff00
ff00
ENDCHAR
STARTCHAR 3
ENCODING -1 51
SWIDTH 0 0
DWIDTH 10 0
BBX 8 13 1 -1
BITMAP
3c00
7e00
e700
c300
0700
1e00
1e00
0700
0300
c300
e700
7e00
3c00
ENDCHAR
STARTCHAR 4
ENCODING -1 52
SWIDTH 0 0
DWIDTH 10 0
BBX 9 13 1 -1
BITMAP
0300
0700
0f00
1f00
3b00
7300
e300
c300
ff80
ff80
0300
0300
0300
ENDCHAR
STARTCHAR 5
ENCODING -1 53
SWIDTH 0 0
DWIDTH 10 0
BBX 8 13 1 -1
BITMAP
fe00
fe00
c000
c000
fc00
fe00
e700
0300
0300
c300
e700
7e00
3c00
ENDCHAR
STARTCHAR 6
ENCODING -1 54
SWIDTH 0 0
DWIDTH 10 0
BBX 8 13 1 -1
BITMAP
3c00
7e00
e600
c000
dc00
fe00
e700
c300
c300
c300
e700
7e00
3c00
ENDCHAR
STARTCHAR 7
ENCODING -1 55
SWIDTH 0 0
DWIDTH 10 0
BBX 8 13 1 -1
BITMAP
ff00
ff00
0300
0600
0c00
0c00
1800
1800
3000
3000
6000
6000
6000
ENDCHAR
STARTCHAR 8
ENCODING -1 56
SWIDTH 0 0
DWIDTH 10 0
BBX 8 13 1 -1
BITMAP
3c00
7e00
e700
c300
e700
7e00
7e00
e700
c300
c300
e700
7e00
3c00
ENDCHAR
STARTCHAR 9
ENCODING -1 57
SWIDTH 0 0
DWIDTH 10 0
BBX 8 13 1 -1
BITMAP
3c00
7e00
e700
c300
c300
c300
e700
7f00
3b00
0300
6700
7e00
3c00
ENDCHAR
STARTCHAR :
ENCODING -1 58
SWIDTH 0 0
DWIDTH 5 0
BBX 2 10 1 -1
BITMAP
c000
c000
0000
0000
0000
0000
0000
0000
c000
c000
ENDCHAR
STARTCHAR ;
ENCODING -1 59
SWIDTH 0 0
DWIDTH 5 0
BBX 2 13 1 -4
BITMAP
c000
c000
0000
0000
0000
0000
0000
0000
c000
c000
4000
4000
8000
ENDCHAR
STARTCHAR <
ENCODING -1 60
SWIDTH 0 0
DWIDTH 11 0
BBX 9 9 1 1
BITMAP
0180
0780
1e00
7800
e000
7800
1e00
0780
0180
ENDCHAR
STARTCHAR =
ENCODING -1 61
SWIDTH 0 0
DWIDTH 11 0
BBX 9 6 1 2
BITMAP
7f80
7f80
0000
0000
7f80
7f80
ENDCHAR
STARTCHAR >
ENCODING -1 62
SWIDTH 0 0
DWIDTH 11 0
BBX 9 9 1 1
BITMAP
c000
f000
3c00
0f00
0380
0f00
3c00
f000
c000
ENDCHAR
STARTCHAR ?
ENCODING -1 63
SWIDTH 0 0
DWIDTH 10 0
BBX 7 14 1 -1
BITMAP
7c00
fe00
c600
c600
0e00
1c00
3800
3000
3000
3000
0000
0000
3000
3000
ENDCHAR
STARTCHAR @
ENCODING -1 64
SWIDTH 0 0
DWIDTH 18 0
BBX 16 17 1 -4
BITMAP
07f0
1ffc
380e
7006
63b3
c7f3
ce63
cc63
cc63
cc66
ccee
cffc
67b8
7000
3800
1ff0
07f0
ENDCHAR
STARTCHAR A
ENCODING -1 65
SWIDTH 0 0
DWIDTH 12 0
BBX 12 14 0 -1
BITMAP
0600
0600
0f00
0f00
1980
1980
30c0
30c0
7fe0
7fe0
6060
c030
c030
c030
ENDCHAR
STARTCHAR B
ENCODING -1 66
SWIDTH 0 0
DWIDTH 13 0
BBX 11 14 1 -1
BITMAP
ff00
ff80
c1c0
c0c0
c0c0
c180
ff80
ffc0
c0e0
c060
c060
c0e0
ffc0
ff80
ENDCHAR
STARTCHAR C
ENCODING -1 67
SWIDTH 0 0
DWIDTH 14 0
BBX 12 14 1 -1
BITMAP
0f80
3fe0
7070
6030
e000
c000
c000
c000
c000
c000
6030
7070
3fe0
0f80
ENDCHAR
STARTCHAR D
ENCODING -1 68
SWIDTH 0 0
DWIDTH 13 0
BBX 11 14 1 -1
BITMAP
fe00
ff80
c1c0
c0c0
c060
c060
c060
c060
c060
c060
c0c0
c1c0
ff80
fe00
ENDCHAR
STARTCHAR E
ENCODING -1 69
SWIDTH 0 0
DWIDTH 11 0
BBX 9 14 1 -1
BITMAP
ff80
ff80
c000
c000
c000
c000
ff00
ff00
c000
c000
c000
c000
ff80
ff80
ENDCHAR
STARTCHAR F
ENCODING -1 70
SWIDTH 0 0
DWIDTH 11 0
BBX 9 14 1 -1
BITMAP
ff80
ff80
c000
c000
c000
c000
ff00
ff00
c000
c000
c000
c000
c000
c000
ENDCHAR
STARTCHAR G
ENCODING -1 71
SWIDTH 0 0
DWIDTH 14 0
BBX 12 14 1 -1
BITMAP
0f80
3fe0
7060
6030
c030
c000
c000
c1f0
c1f0
c030
6030
7070
3ff0
0fb0
ENDCHAR
STARTCHAR H
ENCODING -1 72
SWIDTH 0 0
DWIDTH 13 0
BBX 11 14 1 -1
BITMAP
c060
c060
c060
c060
c060
c060
ffe0
ffe0
c060
c060
c060
c060
c060
c060
ENDCHAR
STARTCHAR I
ENCODING -1 73
SWIDTH 0 0
DWIDTH 6 0
BBX 2 14 2 -1
BITMAP
c000
c000
c000
c000
c000
c000
c000
c000
c000
c000
c000
c000
c000
c000
ENDCHAR
STARTCHAR J
ENCODING -1 74
SWIDTH 0 0
DWIDTH 10 0
BBX 8 14 1 -1
BITMAP
0300
0300
0300
0300
0300
0300
0300
0300
0300
c300
c300
e700
7e00
3c00
ENDCHAR
STARTCHAR K
ENCODING -1 75
SWIDTH 0 0
DWIDTH 13 0
BBX 12 14 1 -1
BITMAP
c0e0
c1c0
c380
c700
ce00
dc00
f800
fc00
ce00
c700
c380
c1c0
c0e0
c070
ENDCHAR
STARTCHAR L
ENCODING -1 76
SWIDTH 0 0
DWIDTH 10 0
BBX 8 14 1 -1
BITMAP
c000
c000
c000
c000
c000
c000
c000
c000
c000
c000
c000
c000
ff00
ff00
ENDCHAR
STARTCHAR M
ENCODING -1 77
SWIDTH 0 0
DWIDTH 16 0
BBX 14 14 1 -1
BITMAP
c00c
c00c
e01c
e01c
f03c
f03c
d86c
d86c
cccc
cccc
c78c
c78c
c30c
c30c
ENDCHAR
STARTCHAR N
ENCODING -1 78
SWIDTH 0 0
DWIDTH 13 0
BBX 11 14 1 -1
BITMAP
e060
e060
f060
f060
d860
dc60
cc60
ce60
c660
c360
c360
c1e0
c0e0
c0e0
ENDCHAR
STARTCHAR O
ENCODING -1 79
SWIDTH 0 0
DWIDTH 15 0
BBX 13 14 1 -1
BITMAP
0f80
3fe0
7070
6030
e038
c018
c018
c018
c018
e038
6030
7070
3fe0
0f80
ENDCHAR
STARTCHAR P
ENCODING -1 80
SWIDTH 0 0
DWIDTH 12 0
BBX 10 14 1 -1
BITMAP
ff00
ff80
c1c0
c0c0
c0c0
c1c0
ff80
ff00
c000
c000
c000
c000
c000
c000
ENDCHAR
STARTCHAR Q
ENCODING -1 81
SWIDTH 0 0
DWIDTH 15 0
BBX 13 15 1 -2
BITMAP
0f80
3fe0
7070
6030
e038
c018
c018
c018
c018
e738
63b0
71f0
3fe0
0ff0
0038
ENDCHAR
STARTCHAR R
ENCODING -1 82
SWIDTH 0 0
DWIDTH 12 0
BBX 10 14 1 -1
BITMAP
ff00
ff80
c1c0
c0c0
c0c0
c1c0
ff80
ff00
c380
c180
c0c0
c0c0
c0c0
c0c0
ENDCHAR
STARTCHAR S
ENCODING -1 83
SWIDTH 0 0
DWIDTH 13 0
BBX 11 14 1 -1
BITMAP
1f00
7fc0
e0e0
c060
e000
7c00
1f00
07c0
01e0
0060
c060
e0e0
7fc0
1f00
ENDCHAR
STARTCHAR T
ENCODING -1 84
SWIDTH 0 0
DWIDTH 11 0
BBX 10 14 1 -1
BITMAP
ffc0
ffc0
0c00
0c00
0c00
0c00
0c00
0c00
0c00
0c00
0c00
0c00
0c00
0c00
ENDCHAR
STARTCHAR U
ENCODING -1 85
SWIDTH 0 0
DWIDTH 13 0
BBX 11 14 1 -1
BITMAP
c060
c060
c060
c060
c060
c060
c060
c060
c060
c060
c060
60c0
7fc0
1f00
ENDCHAR
STARTCHAR V
ENCODING -1 86
SWIDTH 0 0
DWIDTH 13 0
BBX 12 14 1 -1
BITMAP
c030
c030
c030
6060
6060
70e0
30c0
30c0
1980
1980
0f00
0f00
0600
0600
ENDCHAR
STARTCHAR W
ENCODING -1 87
SWIDTH 0 0
DWIDTH 18 0
BBX 16 14 1 -1
BITMAP
c183
c183
c183
c183
6186
63c6
63c6
6666
366c
366c
3c3c
1c38
1818
1818
ENDCHAR
STARTCHAR X
ENCODING -1 88
SWIDTH 0 0
DWIDTH 13 0
BBX 11 14 1 -1
BITMAP
c060
e0e0
71c0
3180
3b80
1f00
0e00
0e00
1f00
3b80
3180
71c0
e0e0
c060
ENDCHAR
STARTCHAR Y
ENCODING -1 89
SWIDTH 0 0
DWIDTH 13 0
BBX 12 14 1 -1
BITMAP
c030
e070
70e0
30c0
39c0
1f80
0f00
0600
0600
0600
0600
0600
0600
0600
ENDCHAR
STARTCHAR Z
ENCODING -1 90
SWIDTH 0 0
DWIDTH 12 0
BBX 10 14 1 -1
BITMAP
ffc0
ffc0
00c0
0180
0300
0600
0c00
1c00
1800
3000
6000
c000
ffc0
ffc0
ENDCHAR
STARTCHAR [
ENCODING -1 91
SWIDTH 0 0
DWIDTH 5 0
BBX 4 18 1 -5
BITMAP
f000
f000
c000
c000
c000
c000
c000
c000
c000
c000
c000
c000
c000
c000
c000
c000
f000
f000
ENDCHAR
STARTCHAR \
ENCODING -1 92
SWIDTH 0 0
DWIDTH 5 0
BBX 5 14 0 -1
BITMAP
c000
c000
c000
6000
6000
6000
7000
3000
3000
3000
1800
1800
1800
1800
ENDCHAR
STARTCHAR ]
ENCODING -1 93
SWIDTH 0 0
DWIDTH 5 0
BBX 4 18 0 -5
BITMAP
f000
f000
3000
3000
3000
3000
3000
3000
3000
3000
3000
3000
3000
3000
3000
3000
f000
f000
ENDCHAR
STARTCHAR ^
ENCODING -1 94
SWIDTH 0 0
DWIDTH 9 0
BBX 7 4 1 8
BITMAP
1000
3800
6c00
c600
ENDCHAR
STARTCHAR _
ENCODING -1 95
SWIDTH 0 0
DWIDTH 10 0
BBX 10 2 0 -5
BITMAP
ffc0
ffc0
ENDCHAR
STARTCHAR `
ENCODING -1 96
SWIDTH 0 0
DWIDTH 4 0
BBX 2 5 1 8
BITMAP
4000
8000
8000
c000
c000
ENDCHAR
STARTCHAR a
ENCODING -1 97
SWIDTH 0 0
DWIDTH 10 0
BBX 8 10 1 -1
BITMAP
3e00
7f00
6300
0700
7f00
fb00
c300
c700
ff00
7b00
ENDCHAR
STARTCHAR b
ENCODING -1 98
SWIDTH 0 0
DWIDTH 11 0
BBX 9 14 1 -1
BITMAP
c000
c000
c000
c000
de00
ff00
e380
c180
c180
c180
c180
e380
ff00
de00
ENDCHAR
STARTCHAR c
ENCODING -1 99
SWIDTH 0 0
DWIDTH 10 0
BBX 8 10 1 -1
BITMAP
3e00
7f00
e300
c000
c000
c000
c000
e300
7f00
3e00
ENDCHAR
STARTCHAR d
ENCODING -1 100
SWIDTH 0 0
DWIDTH 11 0
BBX 9 14 1 -1
BITMAP
0180
0180
0180
0180
3d80
7f80
e380
c180
c180
c180
c180
e380
7f80
3d80
ENDCHAR
STARTCHAR e
ENCODING -1 101
SWIDTH 0 0
DWIDTH 10 0
BBX 8 10 1 -1
BITMAP
3c00
7e00
e700
c300
ff00
ff00
c000
e300
7f00
3e00
ENDCHAR
STARTCHAR f
ENCODING -1 102
SWIDTH 0 0
DWIDTH 6 0
BBX 6 14 0 -1
BITMAP
1c00
3c00
3000
3000
fc00
fc00
3000
3000
3000
3000
3000
3000
3000
3000
ENDCHAR
STARTCHAR g
ENCODING -1 103
SWIDTH 0 0
DWIDTH 11 0
BBX 9 14 1 -5
BITMAP
3d80
7f80
e380
c180
c180
c180
c180
e380
7f80
3d80
0180
6380
7f00
3e00
ENDCHAR
STARTCHAR h
ENCODING -1 104
SWIDTH 0 0
DWIDTH 10 0
BBX 8 14 1 -1
BITMAP
c000
c000
c000
c000
de00
ff00
e300
c300
c300
c300
c300
c300
c300
c300
ENDCHAR
STARTCHAR i
ENCODING -1 105
SWIDTH 0 0
DWIDTH 4 0
BBX 2 14 1 -1
BITMAP
c000
c000
0000
0000
c000
c000
c000
c000
c000
c000
c000
c000
c000
c000
ENDCHAR
STARTCHAR j
ENCODING -1 106
SWIDTH 0 0
DWIDTH 4 0
BBX 4 18 -1 -5
BITMAP
3000
3000
0000
0000
3000
3000
3000
3000
3000
3000
3000
3000
3000
3000
3000
3000
f000
e000
ENDCHAR
STARTCHAR k
ENCODING -1 107
SWIDTH 0 0
DWIDTH 9 0
BBX 8 14 1 -1
BITMAP
c000
c000
c000
c000
c700
ce00
dc00
f800
f000
f800
dc00
ce00
c700
c300
ENDCHAR
STARTCHAR l
ENCODING -1 108
SWIDTH 0 0
DWIDTH 4 0
BBX 2 14 1 -1
BITMAP
c000
c000
c000
c000
c000
c000
c000
c000
c000
c000
c000
c000
c000
c000
ENDCHAR
STARTCHAR m
ENCODING -1 109
SWIDTH 0 0
DWIDTH 14 0
BBX 12 10 1 -1
BITMAP
dce0
fff0
e730
c630
c630
c630
c630
c630
c630
c630
ENDCHAR
STARTCHAR n
ENCODING -1 110
SWIDTH 0 0
DWIDTH 10 0
BBX 8 10 1 -1
BITMAP
ce00
df00
f300
e300
c300
c300
c300
c300
c300
c300
ENDCHAR
STARTCHAR o
ENCODING -1 111
SWIDTH 0 0
DWIDTH 11 0
BBX 9 10 1 -1
BITMAP
3e00
7f00
e380
c180
c180
c180
c180
e380
7f00
3e00
ENDCHAR
STARTCHAR p
ENCODING -1 112
SWIDTH 0 0
DWIDTH 11 0
BBX 9 14 1 -5
BITMAP
de00
ff00
e380
c180
c180
c180
c180
e380
ff00
de00
c000
c000
c000
c000
ENDCHAR
STARTCHAR q
ENCODING -1 113
SWIDTH 0 0
DWIDTH 11 0
BBX 9 14 1 -5
BITMAP
3d80
7f80
e380
c180
c180
c180
c180
e380
7f80
3d80
0180
0180
0180
0180
ENDCHAR
STARTCHAR r
ENCODING -1 114
SWIDTH 0 0
DWIDTH 6 0
BBX 5 10 1 -1
BITMAP
d800
f800
e000
c000
c000
c000
c000
c000
c000
c000
ENDCHAR
STARTCHAR s
ENCODING -1 115
SWIDTH 0 0
DWIDTH 9 0
BBX 7 10 1 -1
BITMAP
7c00
fe00
c600
e000
7800
1c00
0600
c600
fe00
7c00
ENDCHAR
STARTCHAR t
ENCODING -1 116
SWIDTH 0 0
DWIDTH 7 0
BBX 6 13 0 -1
BITMAP
3000
3000
3000
fc00
fc00
3000
3000
3000
3000
3000
3000
3c00
1c00
ENDCHAR
STARTCHAR u
ENCODING -1 117
SWIDTH 0 0
DWIDTH 10 0
BBX 8 10 1 -1
BITMAP
c300
c300
c300
c300
c300
c300
c700
cf00
fb00
7300
ENDCHAR
STARTCHAR v
ENCODING -1 118
SWIDTH 0 0
DWIDTH 10 0
BBX 8 10 1 -1
BITMAP
c300
c300
c300
c300
6600
6600
3c00
3c00
1800
1800
ENDCHAR
STARTCHAR w
ENCODING -1 119
SWIDTH 0 0
DWIDTH 14 0
BBX 12 10 1 -1
BITMAP
c630
c630
c630
c630
c630
ef70
6960
79e0
30c0
30c0
ENDCHAR
STARTCHAR x
ENCODING -1 120
SWIDTH 0 0
DWIDTH 10 0
BBX 8 10 1 -1
BITMAP
c300
e700
6600
7e00
3c00
3c00
7e00
6600
e700
c300
ENDCHAR
STARTCHAR y
ENCODING -1 121
SWIDTH 0 0
DWIDTH 10 0
BBX 8 14 1 -5
BITMAP
c300
c300
c300
c300
6600
6600
3c00
1c00
1800
1800
3000
3000
6000
6000
ENDCHAR
STARTCHAR z
ENCODING -1 122
SWIDTH 0 0
DWIDTH 9 0
BBX 7 10 1 -1
BITMAP
fe00
fe00
0600
0c00
1800
3000
6000
c000
fe00
fe00
ENDCHAR
STARTCHAR {
ENCODING -1 123
SWIDTH 0 0
DWIDTH 6 0
BBX 6 18 0 -5
BITMAP
0c00
1800
3000
3000
3000
3000
3000
6000
c000
6000
3000
3000
3000
3000
3000
3000
1800
0c00
ENDCHAR
STARTCHAR |
ENCODING -1 124
SWIDTH 0 0
DWIDTH 4 0
BBX 2 18 1 -5
BITMAP
c000
c000
c000
c000
c000
c000
c000
c000
c000
c000
c000
c000
c000
c000
c000
c000
c000
c000
ENDCHAR
STARTCHAR }
ENCODING -1 125
SWIDTH 0 0
DWIDTH 6 0
BBX 6 18 0 -5
BITMAP
c000
6000
3000
3000
3000
3000
3000
1800
0c00
1800
3000
3000
3000
3000
3000
3000
6000
c000
ENDCHAR
STARTCHAR ~
ENCODING -1 126
SWIDTH 0 0
DWIDTH 10 0
BBX 8 3 1 3
BITMAP
7300
ff00
ce00
ENDCHAR
ENDFONT
