STARTFONT 2.1
COMMENT Created by fdbbdf
FONT helvetica22
SIZE 22 78 78
FONTBOUNDINGBOX 24 25 0 -6
STARTPROPERTIES 4
Ownership "  Copyright (c) 1984 Adobe Systems, Inc.  /adobe/fonttools/bitmaps/stdfontvec.ps HM24.bits  TOTAL BITMAP BYTES 3882  GUIDELINES -5 0 14 19 DONE  WIDTHERR -91 -124  "
FONT_ASCENT 19
FONT_DESCENT 6
DEFAULT_CHAR 32
ENDPROPERTIES
CHARS 95
STARTCHAR sp
ENCODING -1 32
SWIDTH 0 0
DWIDTH 7 0
BBX 0 0 0 0
BITMAP
ENDCHAR
STARTCHAR !
ENCODING -1 33
SWIDTH 0 0
DWIDTH 6 0
BBX 2 19 2 -1
BITMAP
c000
c000
c000
c000
c000
c000
c000
c000
c000
c000
c000
c000
c000
c000
0000
0000
c000
c000
c000
ENDCHAR
STARTCHAR "
ENCODING -1 34
SWIDTH 0 0
DWIDTH 8 0
BBX 6 6 1 12
BITMAP
cc00
cc00
cc00
cc00
cc00
cc00
ENDCHAR
STARTCHAR #
ENCODING -1 35
SWIDTH 0 0
DWIDTH 14 0
BBX 11 17 2 -1
BITMAP
0cc0
0cc0
0cc0
1980
ffe0
ffe0
1980
1980
3300
3300
ffe0
ffe0
3300
3300
6600
6600
6600
ENDCHAR
STARTCHAR $
ENCODING -1 36
SWIDTH 0 0
DWIDTH 13 0
BBX 11 22 1 -3
BITMAP
0600
0600
1f00
7fc0
66c0
c660
c660
c600
6600
7e00
1f00
07c0
06c0
0660
c660
c660
c660
66c0
7fc0
1f00
0600
0600
ENDCHAR
STARTCHAR %
ENCODING -1 37
SWIDTH 0 0
DWIDTH 22 0
BBX 19 18 1 -1
BITMAP
00060000
3c0c0000
7e0c0000
c3180000
c3180000
c3300000
c3300000
7e600000
3c600000
00c00000
00c78000
018fc000
01986000
03186000
03186000
06186000
060fc000
04078000
ENDCHAR
STARTCHAR &
ENCODING -1 38
SWIDTH 0 0
DWIDTH 17 0
BBX 14 18 1 -1
BITMAP
0f00
1f80
39c0
30c0
30c0
30c0
1980
1f80
0e00
1f00
7b8c
61dc
c0f8
c070
c0f8
e1dc
7f8c
1e00
ENDCHAR
STARTCHAR '
ENCODING -1 39
SWIDTH 0 0
DWIDTH 6 0
BBX 2 6 2 12
BITMAP
c000
c000
c000
4000
4000
8000
ENDCHAR
STARTCHAR (
ENCODING -1 40
SWIDTH 0 0
DWIDTH 8 0
BBX 5 24 2 -6
BITMAP
1800
1800
3000
3000
6000
6000
6000
c000
c000
c000
c000
c000
c000
c000
c000
c000
c000
6000
6000
6000
3000
3000
1800
1800
ENDCHAR
STARTCHAR )
ENCODING -1 41
SWIDTH 0 0
DWIDTH 8 0
BBX 5 24 1 -6
BITMAP
c000
c000
6000
6000
3000
3000
3000
1800
1800
1800
1800
1800
1800
1800
1800
1800
1800
3000
3000
3000
6000
6000
c000
c000
ENDCHAR
STARTCHAR *
ENCODING -1 42
SWIDTH 0 0
DWIDTH 10 0
BBX 7 7 1 11
BITMAP
4400
6c00
3800
fe00
3800
6c00
4400
ENDCHAR
STARTCHAR +
ENCODING -1 43
SWIDTH 0 0
DWIDTH 14 0
BBX 12 12 1 1
BITMAP
0600
0600
0600
0600
0600
fff0
fff0
0600
0600
0600
0600
0600
ENDCHAR
STARTCHAR ,
ENCODING -1 44
SWIDTH 0 0
DWIDTH 6 0
BBX 2 6 2 -4
BITMAP
c000
c000
c000
4000
4000
8000
ENDCHAR
STARTCHAR -
ENCODING -1 45
SWIDTH 0 0
DWIDTH 10 0
BBX 8 2 1 6
BITMAP
ff00
ff00
ENDCHAR
STARTCHAR .
ENCODING -1 46
SWIDTH 0 0
DWIDTH 6 0
BBX 2 3 2 -1
BITMAP
c000
c000
c000
ENDCHAR
STARTCHAR /
ENCODING -1 47
SWIDTH 0 0
DWIDTH 7 0
BBX 7 19 0 -1
BITMAP
0600
0600
0600
0c00
0c00
0c00
1800
1800
1800
1800
3000
3000
3000
6000
6000
6000
c000
c000
c000
ENDCHAR
STARTCHAR 0
ENCODING -1 48
SWIDTH 0 0
DWIDTH 13 0
BBX 11 18 1 -1
BITMAP
1f00
3f80
71c0
60c0
60c0
c060
c060
c060
c060
c060
c060
c060
c060
60c0
60c0
71c0
3f80
1f00
ENDCHAR
STARTCHAR 1
ENCODING -1 49
SWIDTH 0 0
DWIDTH 9 0
BBX 6 18 1 -1
BITMAP
0c00
0c00
1c00
fc00
fc00
0c00
0c00
0c00
0c00
0c00
0c00
0c00
0c00
0c00
0c00
0c00
0c00
0c00
ENDCHAR
STARTCHAR 2
ENCODING -1 50
SWIDTH 0 0
DWIDTH 13 0
BBX 11 18 1 -1
BITMAP
1f00
7fc0
60c0
c060
c060
c060
0060
00c0
01c0
0380
0700
1c00
3800
7000
e000
c000
ffe0
ffe0
ENDCHAR
STARTCHAR 3
ENCODING -1 51
SWIDTH 0 0
DWIDTH 13 0
BBX 11 18 1 -1
BITMAP
1e00
7f80
6180
c0c0
c0c0
00c0
00c0
0180
0f80
0fc0
00e0
0060
0060
c060
c060
60c0
7fc0
1f00
ENDCHAR
STARTCHAR 4
ENCODING -1 52
SWIDTH 0 0
DWIDTH 13 0
BBX 11 18 1 -1
BITMAP
0180
0380
0380
0780
0d80
0d80
1980
3980
3180
6180
e180
c180
ffe0
ffe0
0180
0180
0180
0180
ENDCHAR
STARTCHAR 5
ENCODING -1 53
SWIDTH 0 0
DWIDTH 13 0
BBX 11 18 1 -1
BITMAP
7fc0
7fc0
6000
6000
6000
6000
7e00
7f80
61c0
00c0
0060
0060
0060
c060
c0c0
61c0
7f80
1e00
ENDCHAR
STARTCHAR 6
ENCODING -1 54
SWIDTH 0 0
DWIDTH 13 0
BBX 11 18 1 -1
BITMAP
1f00
7fc0
70c0
e060
c060
c000
df00
ffc0
f1c0
e0e0
c060
c060
c060
c060
e0e0
71c0
7fc0
1f00
ENDCHAR
STARTCHAR 7
ENCODING -1 55
SWIDTH 0 0
DWIDTH 13 0
BBX 11 18 1 -1
BITMAP
ffe0
ffe0
00e0
00c0
0180
0180
0300
0300
0600
0600
0c00
0c00
1c00
1800
1800
3800
3000
3000
ENDCHAR
STARTCHAR 8
ENCODING -1 56
SWIDTH 0 0
DWIDTH 13 0
BBX 11 18 1 -1
BITMAP
1f00
7fc0
60c0
c060
c060
c060
c060
60c0
3f80
7fc0
60c0
c060
c060
c060
c060
60c0
7fc0
1f00
ENDCHAR
STARTCHAR 9
ENCODING -1 57
SWIDTH 0 0
DWIDTH 13 0
BBX 11 18 1 -1
BITMAP
1f00
7fc0
71c0
e0e0
c060
c060
c060
c060
e0e0
71e0
7fe0
1f60
0060
c060
c0e0
61c0
7fc0
1f00
ENDCHAR
STARTCHAR :
ENCODING -1 58
SWIDTH 0 0
DWIDTH 6 0
BBX 2 14 2 -1
BITMAP
c000
c000
c000
0000
0000
0000
0000
0000
0000
0000
0000
c000
c000
c000
ENDCHAR
STARTCHAR ;
ENCODING -1 59
SWIDTH 0 0
DWIDTH 6 0
BBX 2 17 2 -4
BITMAP
c000
c000
c000
0000
0000
0000
0000
0000
0000
0000
0000
c000
c000
c000
4000
4000
8000
ENDCHAR
STARTCHAR <
ENCODING -1 60
SWIDTH 0 0
DWIDTH 15 0
BBX 12 12 1 1
BITMAP
0030
00f0
03c0
0f00
3c00
e000
e000
3c00
0f00
03c0
00f0
0030
ENDCHAR
STARTCHAR =
ENCODING -1 61
SWIDTH 0 0
DWIDTH 12 0
BBX 10 6 1 4
BITMAP
7fc0
7fc0
0000
0000
7fc0
7fc0
ENDCHAR
STARTCHAR >
ENCODING -1 62
SWIDTH 0 0
DWIDTH 15 0
BBX 12 12 1 1
BITMAP
c000
f000
3c00
0f00
03c0
0070
0070
03c0
0f00
3c00
f000
c000
ENDCHAR
STARTCHAR ?
ENCODING -1 63
SWIDTH 0 0
DWIDTH 12 0
BBX 10 19 1 -1
BITMAP
1f00
7f80
71c0
e0c0
c0c0
c0c0
01c0
0380
0700
0600
0c00
0c00
0c00
0c00
0000
0000
0c00
0c00
0c00
ENDCHAR
STARTCHAR @
ENCODING -1 64
SWIDTH 0 0
DWIDTH 25 0
BBX 22 23 2 -5
BITMAP
00ff0000
03ffc000
0f01e000
1c007000
38001800
30001800
607b0c00
60fb0c00
c1c70c00
c3860c00
c3060c00
c6060c00
c60c1c00
c60c1800
c60c3800
e71c7000
63f7e000
71e38000
38000000
1c000000
0f018000
07ff8000
01fe0000
ENDCHAR
STARTCHAR A
ENCODING -1 65
SWIDTH 0 0
DWIDTH 17 0
BBX 15 19 1 -1
BITMAP
0380
0380
06c0
06c0
06c0
0c60
0c60
1830
1830
1830
3018
3ff8
3ff8
600c
600c
600c
c006
c006
c006
ENDCHAR
STARTCHAR B
ENCODING -1 66
SWIDTH 0 0
DWIDTH 17 0
BBX 14 19 2 -1
BITMAP
ffc0
fff0
c030
c018
c018
c018
c030
c070
ffe0
fff0
c038
c018
c00c
c00c
c00c
c01c
c038
fff8
ffe0
ENDCHAR
STARTCHAR C
ENCODING -1 67
SWIDTH 0 0
DWIDTH 18 0
BBX 16 19 1 -1
BITMAP
07e0
1ff8
3c3c
700c
6006
e006
c000
c000
c000
c000
c000
c000
c000
e006
6006
700c
3c1c
1ff8
07e0
ENDCHAR
STARTCHAR D
ENCODING -1 68
SWIDTH 0 0
DWIDTH 18 0
BBX 15 19 2 -1
BITMAP
ffc0
fff0
c078
c01c
c00c
c00e
c006
c006
c006
c006
c006
c006
c006
c00e
c00c
c01c
c078
fff0
ffc0
ENDCHAR
STARTCHAR E
ENCODING -1 69
SWIDTH 0 0
DWIDTH 16 0
BBX 12 19 2 -1
BITMAP
fff0
fff0
c000
c000
c000
c000
c000
c000
ffe0
ffe0
c000
c000
c000
c000
c000
c000
c000
fff0
fff0
ENDCHAR
STARTCHAR F
ENCODING -1 70
SWIDTH 0 0
DWIDTH 14 0
BBX 11 19 2 -1
BITMAP
ffe0
ffe0
c000
c000
c000
c000
c000
c000
c000
ffc0
ffc0
c000
c000
c000
c000
c000
c000
c000
c000
ENDCHAR
STARTCHAR G
ENCODING -1 71
SWIDTH 0 0
DWIDTH 19 0
BBX 16 19 1 -1
BITMAP
07e0
1ff8
3c3c
700c
6006
e006
c000
c000
c000
c07f
c07f
c003
c003
e003
6007
700f
3c3f
1ffb
07e3
ENDCHAR
STARTCHAR H
ENCODING -1 72
SWIDTH 0 0
DWIDTH 18 0
BBX 14 19 2 -1
BITMAP
c00c
c00c
c00c
c00c
c00c
c00c
c00c
c00c
fffc
fffc
c00c
c00c
c00c
c00c
c00c
c00c
c00c
c00c
c00c
ENDCHAR
STARTCHAR I
ENCODING -1 73
SWIDTH 0 0
DWIDTH 8 0
BBX 2 19 3 -1
BITMAP
c000
c000
c000
c000
c000
c000
c000
c000
c000
c000
c000
c000
c000
c000
c000
c000
c000
c000
c000
ENDCHAR
STARTCHAR J
ENCODING -1 74
SWIDTH 0 0
DWIDTH 13 0
BBX 10 19 1 -1
BITMAP
00c0
00c0
00c0
00c0
00c0
00c0
00c0
00c0
00c0
00c0
00c0
00c0
c0c0
c0c0
c0c0
c0c0
6180
7f80
3f00
ENDCHAR
STARTCHAR K
ENCODING -1 75
SWIDTH 0 0
DWIDTH 18 0
BBX 15 19 2 -1
BITMAP
c038
c070
c0e0
c1c0
c380
c700
ce00
dc00
fc00
fe00
e700
c380
c1c0
c0e0
c070
c038
c01c
c00e
c006
ENDCHAR
STARTCHAR L
ENCODING -1 76
SWIDTH 0 0
DWIDTH 14 0
BBX 11 19 2 -1
BITMAP
c000
c000
c000
c000
c000
c000
c000
c000
c000
c000
c000
c000
c000
c000
c000
c000
c000
ffe0
ffe0
ENDCHAR
STARTCHAR M
ENCODING -1 77
SWIDTH 0 0
DWIDTH 21 0
BBX 17 19 2 -1
BITMAP
e0038000
e0038000
f0078000
f0078000
f0078000
d80d8000
d80d8000
d80d8000
cc198000
cc198000
cc198000
c6318000
c6318000
c6318000
c3618000
c3618000
c3e18000
c1c18000
c1c18000
ENDCHAR
STARTCHAR N
ENCODING -1 78
SWIDTH 0 0
DWIDTH 18 0
BBX 14 19 2 -1
BITMAP
f00c
f00c
f80c
d80c
dc0c
cc0c
ce0c
c60c
c70c
c30c
c38c
c18c
c1cc
c0cc
c0ec
c06c
c07c
c03c
c03c
ENDCHAR
STARTCHAR O
ENCODING -1 79
SWIDTH 0 0
DWIDTH 18 0
BBX 16 19 1 -1
BITMAP
07e0
1ff8
3c3c
700e
6006
e007
c003
c003
c003
c003
c003
c003
c003
e007
6006
700e
3c3c
1ff8
07e0
ENDCHAR
STARTCHAR P
ENCODING -1 80
SWIDTH 0 0
DWIDTH 16 0
BBX 13 19 2 -1
BITMAP
ffe0
fff0
c030
c018
c018
c018
c018
c030
fff0
ffc0
c000
c000
c000
c000
c000
c000
c000
c000
c000
ENDCHAR
STARTCHAR Q
ENCODING -1 81
SWIDTH 0 0
DWIDTH 18 0
BBX 16 19 1 -1
BITMAP
07e0
1ff8
3c3c
700e
6006
e007
c003
c003
c003
c003
c003
c003
c003
e007
6076
703e
3c1c
1ffe
07e7
ENDCHAR
STARTCHAR R
ENCODING -1 82
SWIDTH 0 0
DWIDTH 17 0
BBX 13 19 2 -1
BITMAP
ffe0
fff0
c030
c018
c018
c018
c018
c030
fff0
ffe0
c070
c030
c018
c018
c018
c018
c018
c018
c018
ENDCHAR
STARTCHAR S
ENCODING -1 83
SWIDTH 0 0
DWIDTH 15 0
BBX 14 19 1 -1
BITMAP
1f80
7fe0
6060
c030
c030
c000
6000
7c00
1f80
03e0
0070
0030
0018
c018
c018
6018
7030
3ff0
0fc0
ENDCHAR
STARTCHAR T
ENCODING -1 84
SWIDTH 0 0
DWIDTH 16 0
BBX 14 19 1 -1
BITMAP
fffc
fffc
0300
0300
0300
0300
0300
0300
0300
0300
0300
0300
0300
0300
0300
0300
0300
0300
0300
ENDCHAR
STARTCHAR U
ENCODING -1 85
SWIDTH 0 0
DWIDTH 18 0
BBX 14 19 2 -1
BITMAP
c00c
c00c
c00c
c00c
c00c
c00c
c00c
c00c
c00c
c00c
c00c
c00c
c00c
c00c
c00c
6018
7038
3ff0
0fc0
ENDCHAR
STARTCHAR V
ENCODING -1 86
SWIDTH 0 0
DWIDTH 17 0
BBX 15 19 1 -1
BITMAP
c006
c006
e00e
600c
600c
701c
3018
3838
1830
1830
1c70
0c60
0c60
0ee0
06c0
06c0
0380
0380
0380
ENDCHAR
STARTCHAR W
ENCODING -1 87
SWIDTH 0 0
DWIDTH 22 0
BBX 20 19 1 -1
BITMAP
c0603000
c0603000
c0603000
60f06000
60f06000
60906000
61986000
7198e000
3198c000
3198c000
330cc000
330cc000
1b0d8000
1b0d8000
1e078000
1e078000
0e070000
0c030000
0c030000
ENDCHAR
STARTCHAR X
ENCODING -1 88
SWIDTH 0 0
DWIDTH 17 0
BBX 15 19 1 -1
BITMAP
c006
e00e
701c
3018
3838
1c70
0ee0
07c0
0380
0380
07c0
0ee0
0c60
1830
3838
3018
600c
e00e
c006
ENDCHAR
STARTCHAR Y
ENCODING -1 89
SWIDTH 0 0
DWIDTH 15 0
BBX 14 19 1 -1
BITMAP
c00c
e01c
6018
7038
3030
3870
1860
1ce0
0cc0
0fc0
0780
0780
0300
0300
0300
0300
0300
0300
0300
ENDCHAR
STARTCHAR Z
ENCODING -1 90
SWIDTH 0 0
DWIDTH 15 0
BBX 13 19 1 -1
BITMAP
fff8
fff8
0038
0070
00e0
00e0
01c0
0380
0380
0700
0e00
0e00
1c00
3800
3800
7000
e000
fff8
fff8
ENDCHAR
STARTCHAR [
ENCODING -1 91
SWIDTH 0 0
DWIDTH 7 0
BBX 4 24 2 -6
BITMAP
f000
f000
c000
c000
c000
c000
c000
c000
c000
c000
c000
c000
c000
c000
c000
c000
c000
c000
c000
c000
c000
c000
f000
f000
ENDCHAR
STARTCHAR \
ENCODING -1 92
SWIDTH 0 0
DWIDTH 7 0
BBX 7 19 0 -1
BITMAP
c000
c000
c000
6000
6000
6000
3000
3000
3000
3000
1800
1800
1800
0c00
0c00
0c00
0600
0600
0600
ENDCHAR
STARTCHAR ]
ENCODING -1 93
SWIDTH 0 0
DWIDTH 7 0
BBX 4 24 2 -6
BITMAP
f000
f000
3000
3000
3000
3000
3000
3000
3000
3000
3000
3000
3000
3000
3000
3000
3000
3000
3000
3000
3000
3000
f000
f000
ENDCHAR
STARTCHAR ^
ENCODING -1 94
SWIDTH 0 0
DWIDTH 12 0
BBX 10 9 1 9
BITMAP
0c00
0c00
1e00
1200
3300
6180
6180
c0c0
c0c0
ENDCHAR
STARTCHAR _
ENCODING -1 95
SWIDTH 0 0
DWIDTH 14 0
BBX 14 2 0 -6
BITMAP
fffc
fffc
ENDCHAR
STARTCHAR `
ENCODING -1 96
SWIDTH 0 0
DWIDTH 6 0
BBX 2 6 2 12
BITMAP
4000
8000
8000
c000
c000
c000
ENDCHAR
STARTCHAR a
ENCODING -1 97
SWIDTH 0 0
DWIDTH 13 0
BBX 12 14 1 -1
BITMAP
1f00
3f80
71c0
60c0
01c0
0fc0
3fc0
78c0
e0c0
c0c0
c1c0
e3c0
7ee0
3c60
ENDCHAR
STARTCHAR b
ENCODING -1 98
SWIDTH 0 0
DWIDTH 14 0
BBX 11 19 2 -1
BITMAP
c000
c000
c000
c000
c000
cf00
ff80
f1c0
e0c0
c060
c060
c060
c060
c060
c060
e0c0
f1c0
ff80
cf00
ENDCHAR
STARTCHAR c
ENCODING -1 99
SWIDTH 0 0
DWIDTH 12 0
BBX 10 14 1 -1
BITMAP
1f00
3f80
71c0
60c0
c000
c000
c000
c000
c000
c000
60c0
71c0
3f80
1f00
ENDCHAR
STARTCHAR d
ENCODING -1 100
SWIDTH 0 0
DWIDTH 14 0
BBX 11 19 1 -1
BITMAP
0060
0060
0060
0060
0060
1e60
3fe0
71e0
60e0
c060
c060
c060
c060
c060
c060
60e0
71e0
3fe0
1e60
ENDCHAR
STARTCHAR e
ENCODING -1 101
SWIDTH 0 0
DWIDTH 13 0
BBX 11 14 1 -1
BITMAP
0f00
3fc0
71c0
6060
c060
c060
ffe0
ffe0
c000
c000
6060
70e0
3fc0
0f00
ENDCHAR
STARTCHAR f
ENCODING -1 102
SWIDTH 0 0
DWIDTH 9 0
BBX 7 19 1 -1
BITMAP
1e00
3e00
3000
3000
3000
fe00
fe00
3000
3000
3000
3000
3000
3000
3000
3000
3000
3000
3000
3000
ENDCHAR
STARTCHAR g
ENCODING -1 103
SWIDTH 0 0
DWIDTH 14 0
BBX 11 19 1 -6
BITMAP
1e60
3fe0
71e0
60e0
c060
c060
c060
c060
c060
c060
60e0
71e0
3fe0
1e60
0060
6060
70c0
3fc0
0f00
ENDCHAR
STARTCHAR h
ENCODING -1 104
SWIDTH 0 0
DWIDTH 13 0
BBX 10 19 2 -1
BITMAP
c000
c000
c000
c000
c000
cf00
df80
f180
e0c0
c0c0
c0c0
c0c0
c0c0
c0c0
c0c0
c0c0
c0c0
c0c0
c0c0
ENDCHAR
STARTCHAR i
ENCODING -1 105
SWIDTH 0 0
DWIDTH 6 0
BBX 2 19 2 -1
BITMAP
c000
c000
c000
0000
0000
c000
c000
c000
c000
c000
c000
c000
c000
c000
c000
c000
c000
c000
c000
ENDCHAR
STARTCHAR j
ENCODING -1 106
SWIDTH 0 0
DWIDTH 6 0
BBX 5 24 0 -6
BITMAP
3000
3000
3000
0000
0000
3000
3000
3000
3000
3000
3000
3000
3000
3000
3000
3000
3000
3000
3000
3000
3000
3000
f000
e000
ENDCHAR
STARTCHAR k
ENCODING -1 107
SWIDTH 0 0
DWIDTH 12 0
BBX 10 19 2 -1
BITMAP
c000
c000
c000
c000
c000
c180
c380
c700
ce00
dc00
f800
f000
f800
dc00
ce00
c700
c380
c1c0
c0c0
ENDCHAR
STARTCHAR l
ENCODING -1 108
SWIDTH 0 0
DWIDTH 6 0
BBX 2 19 2 -1
BITMAP
c000
c000
c000
c000
c000
c000
c000
c000
c000
c000
c000
c000
c000
c000
c000
c000
c000
c000
c000
ENDCHAR
STARTCHAR m
ENCODING -1 109
SWIDTH 0 0
DWIDTH 20 0
BBX 16 14 2 -1
BITMAP
de3c
ff7e
e3c6
c183
c183
c183
c183
c183
c183
c183
c183
c183
c183
c183
ENDCHAR
STARTCHAR n
ENCODING -1 110
SWIDTH 0 0
DWIDTH 14 0
BBX 10 14 2 -1
BITMAP
cf00
df80
f180
e0c0
c0c0
c0c0
c0c0
c0c0
c0c0
c0c0
c0c0
c0c0
c0c0
c0c0
ENDCHAR
STARTCHAR o
ENCODING -1 111
SWIDTH 0 0
DWIDTH 13 0
BBX 11 14 1 -1
BITMAP
1f00
3f80
71c0
60c0
c060
c060
c060
c060
c060
c060
60c0
71c0
3f80
1f00
ENDCHAR
STARTCHAR p
ENCODING -1 112
SWIDTH 0 0
DWIDTH 14 0
BBX 11 19 2 -6
BITMAP
cf00
ff80
f1c0
e0c0
c060
c060
c060
c060
c060
c060
e0c0
f1c0
ff80
cf00
c000
c000
c000
c000
c000
ENDCHAR
STARTCHAR q
ENCODING -1 113
SWIDTH 0 0
DWIDTH 14 0
BBX 11 19 1 -6
BITMAP
1e60
3fe0
71e0
60e0
c060
c060
c060
c060
c060
c060
60e0
71e0
3fe0
1e60
0060
0060
0060
0060
0060
ENDCHAR
STARTCHAR r
ENCODING -1 114
SWIDTH 0 0
DWIDTH 9 0
BBX 8 15 2 -2
BITMAP
ce00
de00
f800
f000
e000
c000
c000
c000
c000
c000
c000
c000
c000
c000
0000
ENDCHAR
STARTCHAR s
ENCODING -1 115
SWIDTH 0 0
DWIDTH 12 0
BBX 11 14 1 -1
BITMAP
3f00
7f80
e1c0
c0c0
c000
f000
7e00
1f80
01c0
00c0
c0c0
e1c0
7f80
3f00
ENDCHAR
STARTCHAR t
ENCODING -1 116
SWIDTH 0 0
DWIDTH 8 0
BBX 6 18 1 -1
BITMAP
3000
3000
3000
3000
fc00
fc00
3000
3000
3000
3000
3000
3000
3000
3000
3000
3000
3c00
1c00
ENDCHAR
STARTCHAR u
ENCODING -1 117
SWIDTH 0 0
DWIDTH 14 0
BBX 10 14 2 -1
BITMAP
c0c0
c0c0
c0c0
c0c0
c0c0
c0c0
c0c0
c0c0
c0c0
c0c0
c1c0
e3c0
7ec0
3cc0
ENDCHAR
STARTCHAR v
ENCODING -1 118
SWIDTH 0 0
DWIDTH 13 0
BBX 11 14 1 -1
BITMAP
c060
c060
60c0
60c0
60c0
3180
3180
3180
1b00
1b00
1b00
0e00
0e00
0e00
ENDCHAR
STARTCHAR w
ENCODING -1 119
SWIDTH 0 0
DWIDTH 18 0
BBX 18 14 0 -1
BITMAP
c0c0c000
c0c0c000
60c18000
61e18000
61e18000
31230000
33330000
33330000
1b360000
1a160000
1e1e0000
0e1c0000
0c0c0000
0c0c0000
ENDCHAR
STARTCHAR x
ENCODING -1 120
SWIDTH 0 0
DWIDTH 12 0
BBX 10 14 1 -1
BITMAP
c0c0
e1c0
6180
3300
3f00
1e00
0c00
1e00
1e00
3300
7380
6180
e1c0
c0c0
ENDCHAR
STARTCHAR y
ENCODING -1 121
SWIDTH 0 0
DWIDTH 13 0
BBX 12 19 0 -6
BITMAP
c030
c030
6060
6060
3060
30c0
30c0
18c0
1980
0d80
0d80
0f00
0700
0600
0600
0600
0c00
3c00
3800
ENDCHAR
STARTCHAR z
ENCODING -1 122
SWIDTH 0 0
DWIDTH 12 0
BBX 10 14 1 -1
BITMAP
7fc0
7fc0
0180
0380
0700
0600
0e00
1c00
1800
3800
7000
6000
ffc0
ffc0
ENDCHAR
STARTCHAR {
ENCODING -1 123
SWIDTH 0 0
DWIDTH 8 0
BBX 6 24 1 -6
BITMAP
0c00
1800
3000
3000
3000
3000
3000
3000
3000
3000
6000
c000
c000
6000
3000
3000
3000
3000
3000
3000
3000
3000
1800
0c00
ENDCHAR
STARTCHAR |
ENCODING -1 124
SWIDTH 0 0
DWIDTH 6 0
BBX 2 24 2 -6
BITMAP
c000
c000
c000
c000
c000
c000
c000
c000
c000
c000
c000
c000
c000
c000
c000
c000
c000
c000
c000
c000
c000
c000
c000
c000
ENDCHAR
STARTCHAR }
ENCODING -1 125
SWIDTH 0 0
DWIDTH 8 0
BBX 6 24 1 -6
BITMAP
c000
6000
3000
3000
3000
3000
3000
3000
3000
3000
1800
0c00
0c00
1800
3000
3000
3000
3000
3000
3000
3000
3000
6000
c000
ENDCHAR
STARTCHAR ~
ENCODING -1 126
SWIDTH 0 0
DWIDTH 14 0
BBX 10 4 2 4
BITMAP
70c0
fcc0
cfc0
c380
ENDCHAR
ENDFONT
