STARTFONT 2.1
COMMENT Created by fdbbdf
FONT times16bi
SIZE 16 78 78
FONTBOUNDINGBOX 21 19 -3 -6
STARTPROPERTIES 4
Ownership "  Copyright (c) 1984 Adobe Systems, Inc.  /adobe/fonttools/bitmaps/stdfontvec.ps TI18.bits  TOTAL BITMAP BYTES 2425  GUIDELINES -4 0 8 13 DONE  WIDTHERR -41 -42  "
FONT_ASCENT 13
FONT_DESCENT 6
DEFAULT_CHAR 32
ENDPROPERTIES
CHARS 95
STARTCHAR sp
ENCODING -1 32
SWIDTH 0 0
DWIDTH 5 0
BBX 0 0 0 0
BITMAP
ENDCHAR
STARTCHAR !
ENCODING -1 33
SWIDTH 0 0
DWIDTH 7 0
BBX 6 13 1 -1
BITMAP
1c00
1c00
1800
3800
3800
3000
7000
6000
6000
0000
0000
c000
c000
ENDCHAR
STARTCHAR "
ENCODING -1 34
SWIDTH 0 0
DWIDTH 9 0
BBX 7 5 1 7
BITMAP
6600
6600
cc00
cc00
0000
ENDCHAR
STARTCHAR #
ENCODING -1 35
SWIDTH 0 0
DWIDTH 9 0
BBX 9 13 0 -1
BITMAP
1b00
1b00
1b00
7f80
7f80
3600
3600
3600
ff00
ff00
6c00
6c00
6c00
ENDCHAR
STARTCHAR $
ENCODING -1 36
SWIDTH 0 0
DWIDTH 9 0
BBX 8 17 0 -4
BITMAP
0200
0200
1e00
3700
6500
6800
7800
3c00
1e00
1f00
1700
1300
a300
e600
7c00
4000
4000
ENDCHAR
STARTCHAR %
ENCODING -1 37
SWIDTH 0 0
DWIDTH 15 0
BBX 14 13 0 -1
BITMAP
3830
7ff0
e460
c4c0
ccc0
d980
71b8
037c
06e4
06c4
0ccc
0cd8
1870
ENDCHAR
STARTCHAR &
ENCODING -1 38
SWIDTH 0 0
DWIDTH 15 0
BBX 13 13 1 -1
BITMAP
0780
0ec0
0c40
0cc0
0d80
0f00
3e78
7730
e760
e3c0
e380
f7d8
7cf0
ENDCHAR
STARTCHAR '
ENCODING -1 39
SWIDTH 0 0
DWIDTH 5 0
BBX 3 5 2 7
BITMAP
e000
e000
6000
4000
8000
ENDCHAR
STARTCHAR (
ENCODING -1 40
SWIDTH 0 0
DWIDTH 6 0
BBX 6 16 0 -4
BITMAP
0c00
1800
3000
3000
6000
6000
c000
c000
c000
c000
c000
c000
c000
6000
6000
3000
ENDCHAR
STARTCHAR )
ENCODING -1 41
SWIDTH 0 0
DWIDTH 7 0
BBX 6 16 0 -4
BITMAP
3000
1800
1800
0c00
0c00
0c00
0c00
0c00
0c00
0c00
1800
1800
3000
3000
6000
c000
ENDCHAR
STARTCHAR *
ENCODING -1 42
SWIDTH 0 0
DWIDTH 10 0
BBX 8 8 1 4
BITMAP
0000
1800
db00
7e00
3c00
7e00
db00
1800
ENDCHAR
STARTCHAR +
ENCODING -1 43
SWIDTH 0 0
DWIDTH 10 0
BBX 8 8 1 1
BITMAP
1800
1800
1800
ff00
ff00
1800
1800
1800
ENDCHAR
STARTCHAR ,
ENCODING -1 44
SWIDTH 0 0
DWIDTH 5 0
BBX 3 4 0 -3
BITMAP
6000
6000
2000
c000
ENDCHAR
STARTCHAR -
ENCODING -1 45
SWIDTH 0 0
DWIDTH 8 0
BBX 6 2 1 4
BITMAP
fc00
fc00
ENDCHAR
STARTCHAR .
ENCODING -1 46
SWIDTH 0 0
DWIDTH 5 0
BBX 2 2 1 -1
BITMAP
c000
c000
ENDCHAR
STARTCHAR /
ENCODING -1 47
SWIDTH 0 0
DWIDTH 6 0
BBX 6 13 0 -1
BITMAP
0c00
0c00
1800
1800
1800
3000
3000
6000
6000
6000
c000
c000
c000
ENDCHAR
STARTCHAR 0
ENCODING -1 48
SWIDTH 0 0
DWIDTH 9 0
BBX 8 13 0 -1
BITMAP
1c00
3a00
7300
7300
e300
e300
e700
c700
c700
ce00
ce00
5c00
3800
ENDCHAR
STARTCHAR 1
ENCODING -1 49
SWIDTH 0 0
DWIDTH 9 0
BBX 7 13 0 -1
BITMAP
0e00
3e00
0e00
0c00
0c00
1c00
1c00
1800
1800
3800
3800
3800
fe00
ENDCHAR
STARTCHAR 2
ENCODING -1 50
SWIDTH 0 0
DWIDTH 9 0
BBX 9 13 -1 -1
BITMAP
1f00
3f80
4380
0180
0180
0300
0600
0c00
1800
3000
6180
ff00
fe00
ENDCHAR
STARTCHAR 3
ENCODING -1 51
SWIDTH 0 0
DWIDTH 9 0
BBX 9 13 -1 -1
BITMAP
1e00
3700
2300
0300
0600
1c00
1e00
0700
0700
0700
6700
6e00
3c00
ENDCHAR
STARTCHAR 4
ENCODING -1 52
SWIDTH 0 0
DWIDTH 9 0
BBX 8 13 0 -1
BITMAP
0300
0700
0f00
1b00
3300
3600
6600
c600
ff00
ff00
0c00
0c00
0c00
ENDCHAR
STARTCHAR 5
ENCODING -1 53
SWIDTH 0 0
DWIDTH 9 0
BBX 8 13 0 -1
BITMAP
1f00
3f00
3e00
6000
6000
7c00
0e00
0700
0700
0700
c600
cc00
7800
ENDCHAR
STARTCHAR 6
ENCODING -1 54
SWIDTH 0 0
DWIDTH 9 0
BBX 8 13 0 -1
BITMAP
0300
0e00
1c00
3800
7000
6e00
ff00
e300
c300
c300
c700
6e00
3c00
ENDCHAR
STARTCHAR 7
ENCODING -1 55
SWIDTH 0 0
DWIDTH 9 0
BBX 9 13 0 -1
BITMAP
3f80
3f80
7f80
4300
0600
0600
0c00
1800
1800
3000
3000
6000
6000
ENDCHAR
STARTCHAR 8
ENCODING -1 56
SWIDTH 0 0
DWIDTH 9 0
BBX 9 13 0 -1
BITMAP
1e00
3b00
7180
7180
7b00
3e00
3c00
6e00
c700
c700
c700
6e00
3c00
ENDCHAR
STARTCHAR 9
ENCODING -1 57
SWIDTH 0 0
DWIDTH 10 0
BBX 9 13 0 -1
BITMAP
1e00
3b00
7180
7180
7180
7380
3380
1f00
0700
0e00
1c00
3800
e000
ENDCHAR
STARTCHAR :
ENCODING -1 58
SWIDTH 0 0
DWIDTH 6 0
BBX 4 8 1 -1
BITMAP
3000
3000
0000
0000
0000
0000
c000
c000
ENDCHAR
STARTCHAR ;
ENCODING -1 59
SWIDTH 0 0
DWIDTH 7 0
BBX 5 10 0 -3
BITMAP
1800
1800
0000
0000
0000
0000
6000
6000
2000
c000
ENDCHAR
STARTCHAR <
ENCODING -1 60
SWIDTH 0 0
DWIDTH 12 0
BBX 10 8 1 0
BITMAP
01c0
0700
1c00
7000
e000
3800
0e00
0380
ENDCHAR
STARTCHAR =
ENCODING -1 61
SWIDTH 0 0
DWIDTH 11 0
BBX 8 6 1 1
BITMAP
7f00
7f00
0000
0000
7f00
7f00
ENDCHAR
STARTCHAR >
ENCODING -1 62
SWIDTH 0 0
DWIDTH 12 0
BBX 10 8 1 0
BITMAP
7000
1c00
0700
01c0
0380
0e00
3800
e000
ENDCHAR
STARTCHAR ?
ENCODING -1 63
SWIDTH 0 0
DWIDTH 9 0
BBX 7 13 2 -1
BITMAP
3c00
6600
6600
0e00
1c00
3800
3000
6000
6000
0000
0000
c000
c000
ENDCHAR
STARTCHAR @
ENCODING -1 64
SWIDTH 0 0
DWIDTH 17 0
BBX 15 15 1 -4
BITMAP
03e0
0ff8
1c1c
380c
71de
6376
e676
c666
cc66
cce6
efec
6738
7000
3c30
0fe0
ENDCHAR
STARTCHAR A
ENCODING -1 65
SWIDTH 0 0
DWIDTH 14 0
BBX 14 13 -1 -1
BITMAP
0080
01c0
01c0
03c0
02e0
06e0
0c60
0870
1ff0
3030
2038
6038
f87c
ENDCHAR
STARTCHAR B
ENCODING -1 66
SWIDTH 0 0
DWIDTH 13 0
BBX 12 13 0 -1
BITMAP
3fe0
1cf0
1c70
1870
1860
38c0
3fe0
38f0
3070
7070
70f0
71e0
ff80
ENDCHAR
STARTCHAR C
ENCODING -1 67
SWIDTH 0 0
DWIDTH 13 0
BBX 12 13 1 -1
BITMAP
07d0
1e70
3830
7010
7000
e000
e000
e000
e000
f000
7060
79c0
1f00
ENDCHAR
STARTCHAR D
ENCODING -1 68
SWIDTH 0 0
DWIDTH 14 0
BBX 13 13 0 -1
BITMAP
3fc0
1c60
1c30
1c38
3838
3838
3838
3838
7070
70f0
70e0
73c0
ff00
ENDCHAR
STARTCHAR E
ENCODING -1 69
SWIDTH 0 0
DWIDTH 12 0
BBX 12 13 0 -1
BITMAP
3ff0
1c70
1c20
1c20
3880
3980
3f80
3980
3100
7020
7060
70e0
ffc0
ENDCHAR
STARTCHAR F
ENCODING -1 70
SWIDTH 0 0
DWIDTH 12 0
BBX 12 13 0 -1
BITMAP
3ff0
1c70
1c20
1c20
1880
3980
3f80
3980
3100
7000
7000
7000
f800
ENDCHAR
STARTCHAR G
ENCODING -1 71
SWIDTH 0 0
DWIDTH 14 0
BBX 12 13 1 -1
BITMAP
07d0
1e70
3830
7010
7000
e000
e000
e1f0
e0e0
f0e0
71c0
7dc0
1f80
ENDCHAR
STARTCHAR H
ENCODING -1 72
SWIDTH 0 0
DWIDTH 15 0
BBX 15 13 0 -1
BITMAP
3e3e
1c1c
1c1c
1c1c
3838
3838
3ff8
3838
3838
7070
7070
7070
f8f8
ENDCHAR
STARTCHAR I
ENCODING -1 73
SWIDTH 0 0
DWIDTH 7 0
BBX 7 13 0 -1
BITMAP
3e00
1c00
1c00
1c00
3800
3800
3800
3800
7000
7000
7000
7000
f800
ENDCHAR
STARTCHAR J
ENCODING -1 74
SWIDTH 0 0
DWIDTH 9 0
BBX 10 14 -1 -2
BITMAP
07c0
0380
0380
0300
0700
0700
0700
0600
0e00
0e00
0e00
ec00
ec00
7800
ENDCHAR
STARTCHAR K
ENCODING -1 75
SWIDTH 0 0
DWIDTH 12 0
BBX 14 13 -1 -1
BITMAP
3e7c
1c30
1c60
1cc0
3980
3b00
3f00
3b80
3380
71c0
71c0
70e0
f9f0
ENDCHAR
STARTCHAR L
ENCODING -1 76
SWIDTH 0 0
DWIDTH 12 0
BBX 11 13 0 -1
BITMAP
3e00
1c00
1c00
1c00
3800
3800
3800
3800
3000
7020
7060
70e0
ffc0
ENDCHAR
STARTCHAR M
ENCODING -1 77
SWIDTH 0 0
DWIDTH 17 0
BBX 18 13 0 -1
BITMAP
3e0fc000
1e0f8000
1e1f0000
1e170000
1f370000
37260000
376e0000
374e0000
33cc0000
638c0000
639c0000
631c0000
f33e0000
ENDCHAR
STARTCHAR N
ENCODING -1 78
SWIDTH 0 0
DWIDTH 13 0
BBX 15 13 -1 -1
BITMAP
3c1e
1c0c
1e0c
1e0c
3718
3318
3398
3198
61d0
60f0
60e0
6060
f060
ENDCHAR
STARTCHAR O
ENCODING -1 79
SWIDTH 0 0
DWIDTH 14 0
BBX 12 13 1 -1
BITMAP
07c0
1ce0
3870
7070
7070
e070
e070
e070
e0e0
e0e0
e1c0
7380
3e00
ENDCHAR
STARTCHAR P
ENCODING -1 80
SWIDTH 0 0
DWIDTH 12 0
BBX 12 13 0 -1
BITMAP
3fe0
1cf0
1c70
1c70
3870
38e0
3f80
3800
3000
7000
7000
7000
f800
ENDCHAR
STARTCHAR Q
ENCODING -1 81
SWIDTH 0 0
DWIDTH 14 0
BBX 12 17 1 -5
BITMAP
07c0
1ce0
3870
7070
7070
e070
e070
e070
e0e0
e0e0
e1c0
7380
3e00
1800
3000
7e20
0fc0
ENDCHAR
STARTCHAR R
ENCODING -1 82
SWIDTH 0 0
DWIDTH 12 0
BBX 12 13 0 -1
BITMAP
3fe0
1cf0
1c70
1c70
3870
38e0
3fc0
3b80
3380
71c0
71c0
70e0
f8f0
ENDCHAR
STARTCHAR S
ENCODING -1 83
SWIDTH 0 0
DWIDTH 11 0
BBX 10 13 0 -1
BITMAP
0f40
1dc0
38c0
3840
3c00
1e00
0f00
0780
0380
8380
c380
e700
be00
ENDCHAR
STARTCHAR T
ENCODING -1 84
SWIDTH 0 0
DWIDTH 11 0
BBX 11 13 1 -1
BITMAP
ffe0
ce60
8e20
0e00
1c00
1c00
1c00
1c00
1800
3800
3800
3800
7c00
ENDCHAR
STARTCHAR U
ENCODING -1 85
SWIDTH 0 0
DWIDTH 14 0
BBX 14 13 1 -1
BITMAP
7e7c
3838
3830
7830
7030
7060
7060
e060
e0c0
e0c0
e180
7380
3e00
ENDCHAR
STARTCHAR V
ENCODING -1 86
SWIDTH 0 0
DWIDTH 13 0
BBX 12 13 2 -1
BITMAP
f9f0
70e0
70c0
7180
7180
7300
7300
7600
7c00
7800
7800
7000
6000
ENDCHAR
STARTCHAR W
ENCODING -1 87
SWIDTH 0 0
DWIDTH 17 0
BBX 17 13 1 -1
BITMAP
f3e78000
71c30000
71c60000
71c40000
71cc0000
73c80000
72d80000
34d00000
3cf00000
38e00000
38e00000
30c00000
30c00000
ENDCHAR
STARTCHAR X
ENCODING -1 88
SWIDTH 0 0
DWIDTH 13 0
BBX 15 13 -1 -1
BITMAP
3f3e
0e18
0e30
0760
07c0
0380
0380
07c0
0dc0
19c0
30e0
60e0
f1f8
ENDCHAR
STARTCHAR Y
ENCODING -1 89
SWIDTH 0 0
DWIDTH 10 0
BBX 12 13 0 -1
BITMAP
f8f0
7060
70c0
3980
3b00
1e00
1c00
1c00
1c00
3800
3800
3800
fe00
ENDCHAR
STARTCHAR Z
ENCODING -1 90
SWIDTH 0 0
DWIDTH 11 0
BBX 13 13 -1 -1
BITMAP
1ff8
3870
20e0
01c0
0380
0700
0f00
0e00
1c00
3820
7060
e0e0
ffc0
ENDCHAR
STARTCHAR [
ENCODING -1 91
SWIDTH 0 0
DWIDTH 7 0
BBX 8 16 -1 -4
BITMAP
0f00
0c00
1800
1800
1800
1800
3000
3000
3000
3000
6000
6000
6000
6000
c000
f000
ENDCHAR
STARTCHAR \
ENCODING -1 92
SWIDTH 0 0
DWIDTH 8 0
BBX 6 13 1 -1
BITMAP
c000
c000
6000
6000
6000
3000
3000
1800
1800
1800
0c00
0c00
0c00
ENDCHAR
STARTCHAR ]
ENCODING -1 93
SWIDTH 0 0
DWIDTH 6 0
BBX 8 16 -2 -4
BITMAP
0f00
0300
0600
0600
0600
0600
0c00
0c00
0c00
0c00
1800
1800
1800
1800
3000
f000
ENDCHAR
STARTCHAR ^
ENCODING -1 94
SWIDTH 0 0
DWIDTH 11 0
BBX 8 8 1 4
BITMAP
0c00
1c00
1c00
3600
6600
6600
c300
c300
ENDCHAR
STARTCHAR _
ENCODING -1 95
SWIDTH 0 0
DWIDTH 9 0
BBX 9 1 0 -4
BITMAP
ff80
ENDCHAR
STARTCHAR `
ENCODING -1 96
SWIDTH 0 0
DWIDTH 5 0
BBX 3 5 1 7
BITMAP
2000
4000
c000
e000
e000
ENDCHAR
STARTCHAR a
ENCODING -1 97
SWIDTH 0 0
DWIDTH 11 0
BBX 10 8 0 -1
BITMAP
1ec0
7bc0
7380
e380
e700
e700
ef40
7b80
ENDCHAR
STARTCHAR b
ENCODING -1 98
SWIDTH 0 0
DWIDTH 10 0
BBX 10 13 -1 -1
BITMAP
3c00
1c00
1c00
1c00
1800
3b80
3dc0
39c0
39c0
71c0
7380
7300
fc00
ENDCHAR
STARTCHAR c
ENCODING -1 99
SWIDTH 0 0
DWIDTH 9 0
BBX 8 8 0 -1
BITMAP
1f00
7300
6000
e000
e000
e100
f600
7800
ENDCHAR
STARTCHAR d
ENCODING -1 100
SWIDTH 0 0
DWIDTH 11 0
BBX 10 13 0 -1
BITMAP
03c0
01c0
01c0
0180
0380
1b80
7780
6300
e300
e300
e300
e740
7b80
ENDCHAR
STARTCHAR e
ENCODING -1 101
SWIDTH 0 0
DWIDTH 9 0
BBX 8 8 0 -1
BITMAP
1e00
7700
6700
ee00
f800
e300
f600
7c00
ENDCHAR
STARTCHAR f
ENCODING -1 102
SWIDTH 0 0
DWIDTH 9 0
BBX 10 17 -1 -5
BITMAP
03c0
07c0
0640
0e00
0e00
3fc0
0e00
0e00
0e00
0c00
1c00
1c00
1c00
1c00
d800
d800
7000
ENDCHAR
STARTCHAR g
ENCODING -1 103
SWIDTH 0 0
DWIDTH 9 0
BBX 10 13 -1 -6
BITMAP
1f40
3bc0
7180
6380
6700
3e00
3000
3c00
6f00
c380
c380
e700
7e00
ENDCHAR
STARTCHAR h
ENCODING -1 104
SWIDTH 0 0
DWIDTH 11 0
BBX 10 13 0 -1
BITMAP
7800
3800
3800
3800
7000
7700
7f80
7380
6380
e700
e700
e740
e380
ENDCHAR
STARTCHAR i
ENCODING -1 105
SWIDTH 0 0
DWIDTH 6 0
BBX 5 13 0 -1
BITMAP
3800
3800
0000
0000
0000
f000
7000
7000
6000
e000
e000
e800
7000
ENDCHAR
STARTCHAR j
ENCODING -1 106
SWIDTH 0 0
DWIDTH 5 0
BBX 8 17 -3 -5
BITMAP
0700
0700
0000
0000
0000
1e00
0e00
0e00
0e00
0c00
0c00
1c00
1c00
1c00
d800
d800
7000
ENDCHAR
STARTCHAR k
ENCODING -1 107
SWIDTH 0 0
DWIDTH 10 0
BBX 10 13 -1 -1
BITMAP
3c00
1c00
1800
1800
3800
39c0
3180
3200
7c00
7600
6600
e780
e300
ENDCHAR
STARTCHAR l
ENCODING -1 108
SWIDTH 0 0
DWIDTH 6 0
BBX 5 13 0 -1
BITMAP
7800
3800
3800
3000
7000
7000
7000
7000
6000
e000
e000
e800
7000
ENDCHAR
STARTCHAR m
ENCODING -1 109
SWIDTH 0 0
DWIDTH 15 0
BBX 14 8 0 -1
BITMAP
f770
7bb8
7338
7338
6330
e670
e674
e638
ENDCHAR
STARTCHAR n
ENCODING -1 110
SWIDTH 0 0
DWIDTH 11 0
BBX 10 8 0 -1
BITMAP
f700
7b80
7380
7380
6300
e700
e740
e380
ENDCHAR
STARTCHAR o
ENCODING -1 111
SWIDTH 0 0
DWIDTH 10 0
BBX 9 8 0 -1
BITMAP
1f00
7380
6380
e380
e380
e300
e700
7c00
ENDCHAR
STARTCHAR p
ENCODING -1 112
SWIDTH 0 0
DWIDTH 10 0
BBX 11 12 -1 -5
BITMAP
3bc0
1ee0
1ce0
1ce0
38e0
38c0
39c0
3700
7000
7000
6000
f000
ENDCHAR
STARTCHAR q
ENCODING -1 113
SWIDTH 0 0
DWIDTH 10 0
BBX 9 12 0 -5
BITMAP
1d80
7780
6380
e380
e300
e700
ef00
7700
0600
0e00
0e00
1f00
ENDCHAR
STARTCHAR r
ENCODING -1 114
SWIDTH 0 0
DWIDTH 8 0
BBX 7 8 0 -1
BITMAP
ee00
7e00
7000
7000
6000
e000
e000
e000
ENDCHAR
STARTCHAR s
ENCODING -1 115
SWIDTH 0 0
DWIDTH 8 0
BBX 8 8 -1 -1
BITMAP
3e00
7600
7200
3800
1c00
8e00
ce00
fc00
ENDCHAR
STARTCHAR t
ENCODING -1 116
SWIDTH 0 0
DWIDTH 7 0
BBX 6 10 0 -1
BITMAP
3000
7000
fc00
7000
7000
6000
e000
e000
e800
7000
ENDCHAR
STARTCHAR u
ENCODING -1 117
SWIDTH 0 0
DWIDTH 11 0
BBX 10 8 0 -1
BITMAP
f380
7380
7300
6700
e700
ef00
fb40
7380
ENDCHAR
STARTCHAR v
ENCODING -1 118
SWIDTH 0 0
DWIDTH 8 0
BBX 8 8 -1 -1
BITMAP
f700
7300
7300
7200
3600
3c00
3800
3000
ENDCHAR
STARTCHAR w
ENCODING -1 119
SWIDTH 0 0
DWIDTH 12 0
BBX 12 8 -1 -1
BITMAP
e330
6330
7310
7390
37a0
39e0
31c0
2180
ENDCHAR
STARTCHAR x
ENCODING -1 120
SWIDTH 0 0
DWIDTH 10 0
BBX 9 8 0 -1
BITMAP
7380
3b00
1e00
1c00
3c00
6e00
ce80
e700
ENDCHAR
STARTCHAR y
ENCODING -1 121
SWIDTH 0 0
DWIDTH 9 0
BBX 9 12 -1 -5
BITMAP
7180
3180
3880
3980
1900
1b00
1e00
0c00
0c00
c800
d800
7000
ENDCHAR
STARTCHAR z
ENCODING -1 122
SWIDTH 0 0
DWIDTH 8 0
BBX 7 9 0 -2
BITMAP
3e00
7e00
4c00
1800
3000
6000
e600
f600
1c00
ENDCHAR
STARTCHAR {
ENCODING -1 123
SWIDTH 0 0
DWIDTH 6 0
BBX 7 16 0 -4
BITMAP
0e00
1800
3000
3000
3000
3000
6000
c000
6000
6000
6000
c000
c000
c000
c000
7000
ENDCHAR
STARTCHAR |
ENCODING -1 124
SWIDTH 0 0
DWIDTH 5 0
BBX 5 17 0 -5
BITMAP
1800
1800
1800
1800
3800
3000
3000
3000
7000
6000
6000
6000
e000
c000
c000
c000
c000
ENDCHAR
STARTCHAR }
ENCODING -1 125
SWIDTH 0 0
DWIDTH 7 0
BBX 7 16 -1 -4
BITMAP
1c00
0600
0600
0600
0600
0c00
0c00
0c00
0600
0c00
1800
1800
1800
1800
3000
e000
ENDCHAR
STARTCHAR ~
ENCODING -1 126
SWIDTH 0 0
DWIDTH 10 0
BBX 8 3 1 3
BITMAP
7100
ff00
8e00
ENDCHAR
ENDFONT
