STARTFONT 2.1
COMMENT Created by fdbbdf
FONT times16i
SIZE 16 78 78
FONTBOUNDINGBOX 18 18 -1 -5
STARTPROPERTIES 4
Ownership "  Copyright (c) 1984 Adobe Systems, Inc.  /adobe/fonttools/bitmaps/stdfontvec.ps TI18.bits  TOTAL BITMAP BYTES 2425  GUIDELINES -4 0 8 13 DONE  WIDTHERR -86 -153  "
FONT_ASCENT 13
FONT_DESCENT 5
DEFAULT_CHAR 32
ENDPROPERTIES
CHARS 95
STARTCHAR sp
ENCODING -1 32
SWIDTH 0 0
DWIDTH 5 0
BBX 0 0 0 0
BITMAP
ENDCHAR
STARTCHAR !
ENCODING -1 33
SWIDTH 0 0
DWIDTH 6 0
BBX 5 13 1 -1
BITMAP
1800
1800
1800
3000
3000
3000
2000
6000
4000
4000
0000
c000
c000
ENDCHAR
STARTCHAR "
ENCODING -1 34
SWIDTH 0 0
DWIDTH 8 0
BBX 6 4 2 8
BITMAP
cc00
cc00
cc00
8800
ENDCHAR
STARTCHAR #
ENCODING -1 35
SWIDTH 0 0
DWIDTH 9 0
BBX 10 13 0 -1
BITMAP
0900
0900
0900
0900
7fc0
1200
1200
1200
ff80
2400
2400
2400
2400
ENDCHAR
STARTCHAR $
ENCODING -1 36
SWIDTH 0 0
DWIDTH 9 0
BBX 9 17 0 -4
BITMAP
0200
0200
0f00
1580
3480
3400
3c00
1c00
0e00
0f00
0b00
1300
9300
d600
7c00
2000
2000
ENDCHAR
STARTCHAR %
ENCODING -1 37
SWIDTH 0 0
DWIDTH 15 0
BBX 14 13 1 -1
BITMAP
3830
77f0
e460
c4c0
c580
c900
7338
0674
04e4
0cc4
18c4
30c8
3070
ENDCHAR
STARTCHAR &
ENCODING -1 38
SWIDTH 0 0
DWIDTH 14 0
BBX 12 13 1 -1
BITMAP
0300
0780
0480
0500
0600
0c00
1cf0
34c0
6280
c300
c300
e5b0
78e0
ENDCHAR
STARTCHAR '
ENCODING -1 39
SWIDTH 0 0
DWIDTH 6 0
BBX 2 4 3 8
BITMAP
c000
c000
4000
8000
ENDCHAR
STARTCHAR (
ENCODING -1 40
SWIDTH 0 0
DWIDTH 6 0
BBX 5 17 1 -5
BITMAP
0800
1000
3000
2000
6000
6000
c000
c000
c000
c000
c000
c000
c000
c000
4000
4000
2000
ENDCHAR
STARTCHAR )
ENCODING -1 41
SWIDTH 0 0
DWIDTH 6 0
BBX 5 17 0 -5
BITMAP
2000
1000
1000
1800
1800
1800
1800
1800
1800
1800
1000
3000
3000
2000
6000
4000
8000
ENDCHAR
STARTCHAR *
ENCODING -1 42
SWIDTH 0 0
DWIDTH 9 0
BBX 7 7 1 5
BITMAP
1000
d600
7c00
3800
7c00
d600
1000
ENDCHAR
STARTCHAR +
ENCODING -1 43
SWIDTH 0 0
DWIDTH 10 0
BBX 7 7 1 1
BITMAP
1000
1000
1000
fe00
1000
1000
1000
ENDCHAR
STARTCHAR ,
ENCODING -1 44
SWIDTH 0 0
DWIDTH 4 0
BBX 3 4 1 -3
BITMAP
6000
6000
6000
c000
ENDCHAR
STARTCHAR -
ENCODING -1 45
SWIDTH 0 0
DWIDTH 8 0
BBX 6 1 1 4
BITMAP
fc00
ENDCHAR
STARTCHAR .
ENCODING -1 46
SWIDTH 0 0
DWIDTH 4 0
BBX 2 2 1 -1
BITMAP
c000
c000
ENDCHAR
STARTCHAR /
ENCODING -1 47
SWIDTH 0 0
DWIDTH 5 0
BBX 5 13 1 -1
BITMAP
0800
0800
1800
1000
1000
3000
2000
6000
6000
4000
c000
8000
8000
ENDCHAR
STARTCHAR 0
ENCODING -1 48
SWIDTH 0 0
DWIDTH 9 0
BBX 9 13 0 -1
BITMAP
0e00
1b00
3180
3180
6180
6180
6300
c300
c300
c600
c600
6c00
3800
ENDCHAR
STARTCHAR 1
ENCODING -1 49
SWIDTH 0 0
DWIDTH 9 0
BBX 6 13 1 -1
BITMAP
0c00
1c00
6c00
0c00
1800
1800
1800
1800
3000
3000
3000
3000
fc00
ENDCHAR
STARTCHAR 2
ENCODING -1 50
SWIDTH 0 0
DWIDTH 9 0
BBX 8 13 0 -1
BITMAP
1e00
3f00
4300
0300
0300
0700
0600
0c00
1800
3000
6200
fe00
fe00
ENDCHAR
STARTCHAR 3
ENCODING -1 51
SWIDTH 0 0
DWIDTH 9 0
BBX 9 13 0 -1
BITMAP
0f00
1980
0180
0180
0300
1c00
0600
0300
0300
0300
0700
ce00
7800
ENDCHAR
STARTCHAR 4
ENCODING -1 52
SWIDTH 0 0
DWIDTH 9 0
BBX 8 13 0 -1
BITMAP
0300
0700
0f00
1b00
1300
2600
6600
4600
c600
ff00
0c00
0c00
0c00
ENDCHAR
STARTCHAR 5
ENCODING -1 53
SWIDTH 0 0
DWIDTH 9 0
BBX 9 13 0 -1
BITMAP
1f80
1f00
3000
3000
3c00
0e00
0300
0300
0300
0300
0600
cc00
f800
ENDCHAR
STARTCHAR 6
ENCODING -1 54
SWIDTH 0 0
DWIDTH 9 0
BBX 10 13 0 -1
BITMAP
01c0
0700
0c00
1800
3000
7e00
7300
e180
c180
c180
c300
6700
3c00
ENDCHAR
STARTCHAR 7
ENCODING -1 55
SWIDTH 0 0
DWIDTH 9 0
BBX 8 13 1 -1
BITMAP
7f00
e300
8600
0600
0c00
0c00
1800
1800
3000
6000
6000
c000
c000
ENDCHAR
STARTCHAR 8
ENCODING -1 56
SWIDTH 0 0
DWIDTH 9 0
BBX 9 13 0 -1
BITMAP
1f00
3180
3180
3180
1b00
0c00
3e00
6600
c300
c300
c300
c600
7c00
ENDCHAR
STARTCHAR 9
ENCODING -1 57
SWIDTH 0 0
DWIDTH 9 0
BBX 9 13 0 -1
BITMAP
0e00
3b00
3180
6180
6180
6180
6180
7300
3f00
0600
0c00
3800
e000
ENDCHAR
STARTCHAR :
ENCODING -1 58
SWIDTH 0 0
DWIDTH 6 0
BBX 3 8 2 -1
BITMAP
6000
6000
0000
0000
0000
0000
c000
c000
ENDCHAR
STARTCHAR ;
ENCODING -1 59
SWIDTH 0 0
DWIDTH 6 0
BBX 5 10 1 -3
BITMAP
1800
1800
0000
0000
0000
0000
6000
6000
6000
c000
ENDCHAR
STARTCHAR <
ENCODING -1 60
SWIDTH 0 0
DWIDTH 12 0
BBX 9 8 1 0
BITMAP
0180
0700
1c00
7000
e000
3800
0e00
0300
ENDCHAR
STARTCHAR =
ENCODING -1 61
SWIDTH 0 0
DWIDTH 11 0
BBX 8 4 1 2
BITMAP
7f00
0000
0000
7f00
ENDCHAR
STARTCHAR >
ENCODING -1 62
SWIDTH 0 0
DWIDTH 12 0
BBX 9 8 1 0
BITMAP
6000
3800
0e00
0380
0700
1c00
7000
c000
ENDCHAR
STARTCHAR ?
ENCODING -1 63
SWIDTH 0 0
DWIDTH 9 0
BBX 6 13 2 -1
BITMAP
7800
8c00
c400
cc00
0c00
1800
3000
6000
6000
4000
0000
c000
c000
ENDCHAR
STARTCHAR @
ENCODING -1 64
SWIDTH 0 0
DWIDTH 17 0
BBX 15 15 1 -4
BITMAP
03f0
0e18
180c
3006
61b2
6362
c662
cc62
ccc6
cccc
cdd8
6770
7000
3800
0fe0
ENDCHAR
STARTCHAR A
ENCODING -1 65
SWIDTH 0 0
DWIDTH 12 0
BBX 11 13 0 -1
BITMAP
00c0
01c0
01c0
02c0
06c0
04c0
0cc0
08c0
1fc0
10c0
20c0
60c0
f1e0
ENDCHAR
STARTCHAR B
ENCODING -1 66
SWIDTH 0 0
DWIDTH 12 0
BBX 11 13 1 -1
BITMAP
3fc0
18e0
1860
1860
3060
30c0
3f00
3080
60c0
60c0
60c0
6180
ff00
ENDCHAR
STARTCHAR C
ENCODING -1 67
SWIDTH 0 0
DWIDTH 11 0
BBX 12 13 1 -1
BITMAP
03d0
0c70
1820
3020
7000
6000
e000
c000
c000
c000
4080
6300
3c00
ENDCHAR
STARTCHAR D
ENCODING -1 68
SWIDTH 0 0
DWIDTH 14 0
BBX 13 13 1 -1
BITMAP
3fe0
1870
1838
1818
3018
3018
3018
3018
6030
6030
6060
61c0
ff00
ENDCHAR
STARTCHAR E
ENCODING -1 69
SWIDTH 0 0
DWIDTH 11 0
BBX 10 13 1 -1
BITMAP
3fc0
18c0
1840
1840
3100
3100
3e00
3200
6200
6040
6040
6180
ff80
ENDCHAR
STARTCHAR F
ENCODING -1 70
SWIDTH 0 0
DWIDTH 11 0
BBX 11 13 1 -1
BITMAP
3fe0
1860
1820
1820
3080
3080
3f00
3100
6100
6000
6000
6000
f000
ENDCHAR
STARTCHAR G
ENCODING -1 71
SWIDTH 0 0
DWIDTH 12 0
BBX 12 13 1 -1
BITMAP
03d0
0c70
1820
3020
6000
6000
e000
c1f0
c0c0
c0c0
4180
6180
3f00
ENDCHAR
STARTCHAR H
ENCODING -1 72
SWIDTH 0 0
DWIDTH 13 0
BBX 13 13 1 -1
BITMAP
3c78
1830
1830
1830
3060
3060
3fe0
3060
60c0
60c0
60c0
60c0
f1e0
ENDCHAR
STARTCHAR I
ENCODING -1 73
SWIDTH 0 0
DWIDTH 6 0
BBX 6 13 1 -1
BITMAP
3c00
1800
1800
1800
3000
3000
3000
3000
6000
6000
6000
6000
f000
ENDCHAR
STARTCHAR J
ENCODING -1 74
SWIDTH 0 0
DWIDTH 7 0
BBX 8 13 0 -1
BITMAP
0f00
0600
0600
0600
0c00
0c00
0c00
0c00
1800
1800
d800
d800
7000
ENDCHAR
STARTCHAR K
ENCODING -1 75
SWIDTH 0 0
DWIDTH 12 0
BBX 12 13 1 -1
BITMAP
3cf0
1840
1880
1900
3200
3400
3800
2c00
6600
6300
6180
60c0
f1e0
ENDCHAR
STARTCHAR L
ENCODING -1 76
SWIDTH 0 0
DWIDTH 11 0
BBX 10 13 1 -1
BITMAP
3c00
1800
1800
1800
3000
3000
3000
3000
6000
6040
6040
6180
ff80
ENDCHAR
STARTCHAR M
ENCODING -1 77
SWIDTH 0 0
DWIDTH 16 0
BBX 16 13 1 -1
BITMAP
1c07
0c0e
0c0e
1c16
1c24
162c
264c
264c
268c
4718
4718
4618
e43c
ENDCHAR
STARTCHAR N
ENCODING -1 78
SWIDTH 0 0
DWIDTH 13 0
BBX 14 13 0 -1
BITMAP
3c1c
0c08
1e08
1608
1710
1310
2310
21a0
21a0
41a0
40e0
40c0
e040
ENDCHAR
STARTCHAR O
ENCODING -1 79
SWIDTH 0 0
DWIDTH 12 0
BBX 12 13 1 -1
BITMAP
03c0
0c60
1830
3030
7030
6030
e070
c060
c0e0
c0c0
4180
6300
3c00
ENDCHAR
STARTCHAR P
ENCODING -1 80
SWIDTH 0 0
DWIDTH 11 0
BBX 11 13 1 -1
BITMAP
3fc0
18e0
1860
1860
30e0
31c0
3f00
3000
3000
6000
6000
6000
f000
ENDCHAR
STARTCHAR Q
ENCODING -1 81
SWIDTH 0 0
DWIDTH 12 0
BBX 12 17 1 -5
BITMAP
03c0
0c60
1830
3030
7030
6030
e070
c060
c0e0
c0c0
4180
6300
3c00
3000
6000
fc80
1f00
ENDCHAR
STARTCHAR R
ENCODING -1 82
SWIDTH 0 0
DWIDTH 12 0
BBX 11 13 1 -1
BITMAP
3fc0
18e0
1860
1860
3060
30c0
3f80
3600
3300
6100
6180
60c0
f0e0
ENDCHAR
STARTCHAR S
ENCODING -1 83
SWIDTH 0 0
DWIDTH 9 0
BBX 9 13 1 -1
BITMAP
0e80
1980
3080
3080
3800
1c00
0e00
0700
0300
8300
8300
c600
bc00
ENDCHAR
STARTCHAR T
ENCODING -1 84
SWIDTH 0 0
DWIDTH 11 0
BBX 11 13 1 -1
BITMAP
7fe0
c660
8620
0600
0c00
0c00
0c00
0c00
1800
1800
1800
1800
3c00
ENDCHAR
STARTCHAR U
ENCODING -1 85
SWIDTH 0 0
DWIDTH 13 0
BBX 13 13 1 -1
BITMAP
7c78
3030
3020
3020
6060
6040
6040
e0c0
c080
c080
c100
6300
3c00
ENDCHAR
STARTCHAR V
ENCODING -1 86
SWIDTH 0 0
DWIDTH 11 0
BBX 11 13 1 -1
BITMAP
f1e0
60c0
6080
6100
6100
6200
6400
6400
6800
7000
7000
6000
4000
ENDCHAR
STARTCHAR W
ENCODING -1 87
SWIDTH 0 0
DWIDTH 15 0
BBX 15 13 1 -1
BITMAP
f3ce
6184
6188
6388
6390
6590
65a0
69a0
69c0
71c0
7180
6180
4100
ENDCHAR
STARTCHAR X
ENCODING -1 88
SWIDTH 0 0
DWIDTH 11 0
BBX 12 13 0 -1
BITMAP
3cf0
1860
1cc0
0c80
0f00
0600
0600
0700
0b00
1380
2180
61c0
f3e0
ENDCHAR
STARTCHAR Y
ENCODING -1 89
SWIDTH 0 0
DWIDTH 11 0
BBX 11 13 1 -1
BITMAP
f9e0
6040
6080
3100
3200
1c00
1800
1800
1800
3000
3000
3000
fc00
ENDCHAR
STARTCHAR Z
ENCODING -1 90
SWIDTH 0 0
DWIDTH 11 0
BBX 12 13 0 -1
BITMAP
3ff0
6070
40e0
01c0
0380
0700
0e00
0c00
1c00
3800
7020
e060
ffc0
ENDCHAR
STARTCHAR [
ENCODING -1 91
SWIDTH 0 0
DWIDTH 7 0
BBX 8 16 0 -4
BITMAP
0f00
0c00
1800
1800
1800
1800
3000
3000
3000
3000
6000
6000
6000
6000
c000
f000
ENDCHAR
STARTCHAR \
ENCODING -1 92
SWIDTH 0 0
DWIDTH 5 0
BBX 5 13 0 -1
BITMAP
8000
c000
4000
4000
6000
2000
2000
3000
1000
1000
1800
1800
0800
ENDCHAR
STARTCHAR ]
ENCODING -1 93
SWIDTH 0 0
DWIDTH 7 0
BBX 8 16 -1 -4
BITMAP
0f00
0300
0600
0600
0600
0600
0c00
0c00
0c00
0c00
1800
1800
1800
1800
3000
f000
ENDCHAR
STARTCHAR ^
ENCODING -1 94
SWIDTH 0 0
DWIDTH 8 0
BBX 7 7 1 5
BITMAP
0800
1c00
3400
2600
4600
c200
8200
ENDCHAR
STARTCHAR _
ENCODING -1 95
SWIDTH 0 0
DWIDTH 9 0
BBX 9 1 0 -5
BITMAP
ff80
ENDCHAR
STARTCHAR `
ENCODING -1 96
SWIDTH 0 0
DWIDTH 6 0
BBX 2 4 4 8
BITMAP
4000
8000
c000
c000
ENDCHAR
STARTCHAR a
ENCODING -1 97
SWIDTH 0 0
DWIDTH 11 0
BBX 9 8 1 -1
BITMAP
1e80
7380
6300
c300
c600
c600
ee80
7300
ENDCHAR
STARTCHAR b
ENCODING -1 98
SWIDTH 0 0
DWIDTH 9 0
BBX 9 13 0 -1
BITMAP
3800
1800
1800
1800
3000
3700
3980
3180
3180
6180
6300
6600
3c00
ENDCHAR
STARTCHAR c
ENCODING -1 99
SWIDTH 0 0
DWIDTH 8 0
BBX 7 8 1 -1
BITMAP
1e00
7200
6000
c000
c000
c200
e400
7800
ENDCHAR
STARTCHAR d
ENCODING -1 100
SWIDTH 0 0
DWIDTH 10 0
BBX 9 13 1 -1
BITMAP
0380
0180
0180
0180
0300
1b00
3700
6300
c600
c600
c600
ee80
7300
ENDCHAR
STARTCHAR e
ENCODING -1 101
SWIDTH 0 0
DWIDTH 8 0
BBX 7 8 1 -1
BITMAP
1c00
6600
4600
cc00
f800
c000
e400
7800
ENDCHAR
STARTCHAR f
ENCODING -1 102
SWIDTH 0 0
DWIDTH 6 0
BBX 9 17 -1 -5
BITMAP
0700
0d80
0c00
1800
1800
7e00
1800
1800
1800
3000
3000
3000
3000
3000
2000
e000
c000
ENDCHAR
STARTCHAR g
ENCODING -1 103
SWIDTH 0 0
DWIDTH 9 0
BBX 10 12 -1 -5
BITMAP
0fc0
1300
3180
3180
3b00
1e00
1000
3f00
4380
c180
e300
7c00
ENDCHAR
STARTCHAR h
ENCODING -1 104
SWIDTH 0 0
DWIDTH 10 0
BBX 9 13 1 -1
BITMAP
7000
3000
3000
3000
6000
6600
6f00
7300
6300
c600
c600
c680
c300
ENDCHAR
STARTCHAR i
ENCODING -1 105
SWIDTH 0 0
DWIDTH 5 0
BBX 4 13 1 -1
BITMAP
3000
3000
0000
0000
0000
e000
6000
6000
6000
c000
c000
d000
6000
ENDCHAR
STARTCHAR j
ENCODING -1 106
SWIDTH 0 0
DWIDTH 6 0
BBX 7 16 -1 -4
BITMAP
0600
0600
0000
0000
0000
1c00
0c00
0c00
0c00
0c00
1800
1800
1800
1800
d000
e000
ENDCHAR
STARTCHAR k
ENCODING -1 107
SWIDTH 0 0
DWIDTH 9 0
BBX 8 13 1 -1
BITMAP
7000
3000
3000
2000
6000
6700
6600
6800
7000
f800
dc00
cf00
c600
ENDCHAR
STARTCHAR l
ENCODING -1 108
SWIDTH 0 0
DWIDTH 5 0
BBX 4 13 1 -1
BITMAP
7000
3000
3000
3000
6000
6000
6000
6000
6000
c000
c000
d000
6000
ENDCHAR
STARTCHAR m
ENCODING -1 109
SWIDTH 0 0
DWIDTH 15 0
BBX 14 8 1 -1
BITMAP
e630
6ef8
7398
6318
6318
c630
c634
c638
ENDCHAR
STARTCHAR n
ENCODING -1 110
SWIDTH 0 0
DWIDTH 10 0
BBX 9 8 1 -1
BITMAP
e600
6f00
7300
6300
c200
c600
c680
c700
ENDCHAR
STARTCHAR o
ENCODING -1 111
SWIDTH 0 0
DWIDTH 9 0
BBX 8 8 1 -1
BITMAP
1e00
6700
4300
c300
c300
c200
e600
7800
ENDCHAR
STARTCHAR p
ENCODING -1 112
SWIDTH 0 0
DWIDTH 9 0
BBX 10 12 -1 -5
BITMAP
3b80
1cc0
18c0
18c0
3180
3180
3300
3c00
6000
6000
6000
f000
ENDCHAR
STARTCHAR q
ENCODING -1 113
SWIDTH 0 0
DWIDTH 9 0
BBX 8 12 1 -5
BITMAP
1f00
3300
6300
6300
c600
c600
ce00
7600
0400
0c00
0c00
1e00
ENDCHAR
STARTCHAR r
ENCODING -1 114
SWIDTH 0 0
DWIDTH 7 0
BBX 6 8 1 -1
BITMAP
ec00
6c00
7000
6000
6000
c000
c000
c000
ENDCHAR
STARTCHAR s
ENCODING -1 115
SWIDTH 0 0
DWIDTH 8 0
BBX 6 8 1 -1
BITMAP
3c00
6400
7000
3800
1c00
8c00
cc00
b800
ENDCHAR
STARTCHAR t
ENCODING -1 116
SWIDTH 0 0
DWIDTH 6 0
BBX 5 10 1 -1
BITMAP
1000
3000
f800
6000
6000
6000
c000
c000
d000
6000
ENDCHAR
STARTCHAR u
ENCODING -1 117
SWIDTH 0 0
DWIDTH 9 0
BBX 8 8 1 -1
BITMAP
e300
6300
6300
6600
c600
ce00
f700
6600
ENDCHAR
STARTCHAR v
ENCODING -1 118
SWIDTH 0 0
DWIDTH 8 0
BBX 8 8 0 -1
BITMAP
e300
6300
6200
6400
6400
2800
3000
3000
ENDCHAR
STARTCHAR w
ENCODING -1 119
SWIDTH 0 0
DWIDTH 13 0
BBX 13 8 0 -1
BITMAP
e318
6318
6310
6730
35a0
39c0
3180
2100
ENDCHAR
STARTCHAR x
ENCODING -1 120
SWIDTH 0 0
DWIDTH 8 0
BBX 8 8 0 -1
BITMAP
7300
3600
3c00
1800
3800
2c00
6f00
c600
ENDCHAR
STARTCHAR y
ENCODING -1 121
SWIDTH 0 0
DWIDTH 8 0
BBX 9 12 -1 -5
BITMAP
7180
3180
3100
1300
1a00
1e00
0c00
0c00
0800
1800
d000
e000
ENDCHAR
STARTCHAR z
ENCODING -1 122
SWIDTH 0 0
DWIDTH 8 0
BBX 7 8 0 -1
BITMAP
7e00
4600
0c00
1800
3000
6000
c400
fc00
ENDCHAR
STARTCHAR {
ENCODING -1 123
SWIDTH 0 0
DWIDTH 8 0
BBX 7 17 1 -5
BITMAP
0600
0800
1800
1800
1800
1000
3000
6000
c000
6000
3000
3000
6000
6000
6000
6000
3000
ENDCHAR
STARTCHAR |
ENCODING -1 124
SWIDTH 0 0
DWIDTH 5 0
BBX 5 17 0 -5
BITMAP
0800
0800
0800
1000
1000
1000
2000
2000
2000
4000
4000
4000
4000
8000
8000
8000
8000
ENDCHAR
STARTCHAR }
ENCODING -1 125
SWIDTH 0 0
DWIDTH 8 0
BBX 7 17 0 -5
BITMAP
1800
0c00
0c00
0c00
0c00
1800
1800
0c00
0600
0c00
1800
1000
3000
3000
3000
2000
c000
ENDCHAR
STARTCHAR ~
ENCODING -1 126
SWIDTH 0 0
DWIDTH 10 0
BBX 9 3 1 2
BITMAP
3080
7f00
8600
ENDCHAR
ENDFONT
