STARTFONT 2.1
COMMENT Created by fdbbdf
FONT ex12
SIZE 12 78 78
FONTBOUNDINGBOX 27 46 -11 -26
STARTPROPERTIES 4
Ownership "  "
FONT_ASCENT 20
FONT_DESCENT 26
DEFAULT_CHAR 32
ENDPROPERTIES
CHARS 101
STARTCHAR ch-16
ENCODING -1 16
SWIDTH 0 0
DWIDTH 3 0
BBX 10 12 -6 -10
BITMAP
0040
0040
0080
0080
4100
c100
2200
2200
1400
1400
0800
0800
ENDCHAR
STARTCHAR ch-17
ENCODING -1 17
SWIDTH 0 0
DWIDTH 4 0
BBX 11 14 -6 -10
BITMAP
0020
0020
0040
0040
0080
0080
4100
c100
2200
2200
1400
1400
0800
0800
ENDCHAR
STARTCHAR ch-18
ENCODING -1 18
SWIDTH 0 0
DWIDTH 4 0
BBX 11 17 -6 -12
BITMAP
0020
0020
0020
0040
0040
0040
0080
4080
c080
2100
2100
1100
1200
0a00
0a00
0400
0400
ENDCHAR
STARTCHAR ch-19
ENCODING -1 19
SWIDTH 0 0
DWIDTH 4 0
BBX 12 22 -7 -14
BITMAP
0010
0010
0010
0010
0020
0020
0020
0020
0040
0040
c040
4040
2080
2080
1080
1080
0900
0900
0500
0500
0200
0200
ENDCHAR
STARTCHAR ch-20
ENCODING -1 20
SWIDTH 0 0
DWIDTH 6 0
BBX 16 30 -9 -17
BITMAP
0001
0001
0001
0001
0002
0002
0002
0002
0004
0004
0004
0004
0008
0008
0008
0008
2010
6010
9010
1010
0820
0820
0420
0420
0240
0240
0140
0140
0080
0080
ENDCHAR
STARTCHAR ch-21
ENCODING -1 21
SWIDTH 0 0
DWIDTH 5 0
BBX 16 28 -11 -26
BITMAP
0001
0001
0001
0001
1001
3002
5002
8802
0802
0802
0404
0404
0404
0204
0204
0208
0108
0108
0108
0088
0090
0090
0050
0050
0050
0020
0020
0020
ENDCHAR
STARTCHAR ch-24
ENCODING -1 24
SWIDTH 0 0
DWIDTH 6 0
BBX 5 9 1 -5
BITMAP
0800
0800
1000
1000
2000
2000
4000
4000
8000
ENDCHAR
STARTCHAR ch-25
ENCODING -1 25
SWIDTH 0 0
DWIDTH 7 0
BBX 6 11 1 -6
BITMAP
0400
0400
0800
0800
1000
1000
2000
2000
4000
4000
8000
ENDCHAR
STARTCHAR ch-26
ENCODING -1 26
SWIDTH 0 0
DWIDTH 8 0
BBX 7 13 1 -7
BITMAP
0200
0200
0400
0400
0800
0800
1000
1000
2000
2000
4000
4000
8000
ENDCHAR
STARTCHAR ch-27
ENCODING -1 27
SWIDTH 0 0
DWIDTH 7 0
BBX 6 17 1 -9
BITMAP
0400
0400
0400
0800
0800
0800
1000
1000
1000
2000
2000
2000
4000
4000
4000
8000
8000
ENDCHAR
STARTCHAR ch-28
ENCODING -1 28
SWIDTH 0 0
DWIDTH 8 0
BBX 7 21 1 -11
BITMAP
0200
0200
0200
0400
0400
0400
0800
0800
0800
1000
1000
1000
2000
2000
2000
4000
4000
4000
8000
8000
8000
ENDCHAR
STARTCHAR sp
ENCODING -1 32
SWIDTH 0 0
DWIDTH 3 0
BBX 2 9 1 -5
BITMAP
4000
4000
8000
8000
8000
8000
8000
4000
4000
ENDCHAR
STARTCHAR !
ENCODING -1 33
SWIDTH 0 0
DWIDTH 4 0
BBX 3 11 1 -6
BITMAP
2000
4000
4000
8000
8000
8000
8000
8000
4000
4000
2000
ENDCHAR
STARTCHAR "
ENCODING -1 34
SWIDTH 0 0
DWIDTH 4 0
BBX 3 13 1 -7
BITMAP
2000
4000
4000
8000
8000
8000
8000
8000
8000
8000
4000
4000
2000
ENDCHAR
STARTCHAR #
ENCODING -1 35
SWIDTH 0 0
DWIDTH 5 0
BBX 4 17 1 -9
BITMAP
1000
2000
4000
4000
4000
8000
8000
8000
8000
8000
8000
8000
4000
4000
4000
2000
1000
ENDCHAR
STARTCHAR $
ENCODING -1 36
SWIDTH 0 0
DWIDTH 6 0
BBX 5 21 1 -11
BITMAP
0800
1000
2000
2000
4000
4000
4000
8000
8000
8000
8000
8000
8000
8000
4000
4000
4000
2000
2000
1000
0800
ENDCHAR
STARTCHAR %
ENCODING -1 37
SWIDTH 0 0
DWIDTH 0 0
BBX 7 10 0 -10
BITMAP
0200
0400
0800
1000
1000
2000
2000
4000
4000
4000
ENDCHAR
STARTCHAR &
ENCODING -1 38
SWIDTH 0 0
DWIDTH 0 0
BBX 1 9 0 -9
BITMAP
8000
8000
8000
8000
8000
8000
8000
8000
8000
ENDCHAR
STARTCHAR '
ENCODING -1 39
SWIDTH 0 0
DWIDTH 0 0
BBX 7 10 0 -10
BITMAP
4000
4000
4000
2000
2000
1000
1000
0800
0400
0200
ENDCHAR
STARTCHAR (
ENCODING -1 40
SWIDTH 0 0
DWIDTH 3 0
BBX 2 9 1 -5
BITMAP
8000
8000
4000
4000
4000
4000
4000
8000
8000
ENDCHAR
STARTCHAR )
ENCODING -1 41
SWIDTH 0 0
DWIDTH 4 0
BBX 3 11 1 -6
BITMAP
8000
4000
4000
2000
2000
2000
2000
2000
4000
4000
8000
ENDCHAR
STARTCHAR *
ENCODING -1 42
SWIDTH 0 0
DWIDTH 4 0
BBX 3 13 1 -7
BITMAP
8000
4000
4000
2000
2000
2000
2000
2000
2000
2000
4000
4000
8000
ENDCHAR
STARTCHAR +
ENCODING -1 43
SWIDTH 0 0
DWIDTH 5 0
BBX 4 17 1 -9
BITMAP
8000
4000
2000
2000
2000
1000
1000
1000
1000
1000
1000
1000
2000
2000
2000
4000
8000
ENDCHAR
STARTCHAR ,
ENCODING -1 44
SWIDTH 0 0
DWIDTH 6 0
BBX 5 21 1 -11
BITMAP
8000
4000
2000
2000
1000
1000
1000
0800
0800
0800
0800
0800
0800
0800
1000
1000
1000
2000
2000
4000
8000
ENDCHAR
STARTCHAR -
ENCODING -1 45
SWIDTH 0 0
DWIDTH 0 0
BBX 7 10 -6 -10
BITMAP
8000
4000
2000
1000
1000
0800
0800
0400
0400
0400
ENDCHAR
STARTCHAR .
ENCODING -1 46
SWIDTH 0 0
DWIDTH 0 0
BBX 1 9 0 -9
BITMAP
8000
8000
8000
8000
8000
8000
8000
8000
8000
ENDCHAR
STARTCHAR /
ENCODING -1 47
SWIDTH 0 0
DWIDTH 0 0
BBX 7 10 -6 -10
BITMAP
0400
0400
0400
0800
0800
1000
1000
2000
4000
8000
ENDCHAR
STARTCHAR 0
ENCODING -1 48
SWIDTH 0 0
DWIDTH 3 0
BBX 2 9 1 -5
BITMAP
c000
8000
8000
8000
8000
8000
8000
8000
c000
ENDCHAR
STARTCHAR 1
ENCODING -1 49
SWIDTH 0 0
DWIDTH 4 0
BBX 3 11 1 -6
BITMAP
e000
8000
8000
8000
8000
8000
8000
8000
8000
8000
e000
ENDCHAR
STARTCHAR 2
ENCODING -1 50
SWIDTH 0 0
DWIDTH 4 0
BBX 3 13 1 -7
BITMAP
e000
8000
8000
8000
8000
8000
8000
8000
8000
8000
8000
8000
e000
ENDCHAR
STARTCHAR 3
ENCODING -1 51
SWIDTH 0 0
DWIDTH 5 0
BBX 4 17 1 -9
BITMAP
f000
8000
8000
8000
8000
8000
8000
8000
8000
8000
8000
8000
8000
8000
8000
8000
f000
ENDCHAR
STARTCHAR 4
ENCODING -1 52
SWIDTH 0 0
DWIDTH 5 0
BBX 4 21 1 -11
BITMAP
f000
8000
8000
8000
8000
8000
8000
8000
8000
8000
8000
8000
8000
8000
8000
8000
8000
8000
8000
8000
f000
ENDCHAR
STARTCHAR 5
ENCODING -1 53
SWIDTH 0 0
DWIDTH 0 0
BBX 5 10 0 -10
BITMAP
f800
8000
8000
8000
8000
8000
8000
8000
8000
8000
ENDCHAR
STARTCHAR 6
ENCODING -1 54
SWIDTH 0 0
DWIDTH 0 0
BBX 1 9 0 -9
BITMAP
8000
8000
8000
8000
8000
8000
8000
8000
8000
ENDCHAR
STARTCHAR 7
ENCODING -1 55
SWIDTH 0 0
DWIDTH 0 0
BBX 5 10 0 -10
BITMAP
8000
8000
8000
8000
8000
8000
8000
8000
8000
f800
ENDCHAR
STARTCHAR 8
ENCODING -1 56
SWIDTH 0 0
DWIDTH 3 0
BBX 2 9 1 -5
BITMAP
c000
4000
4000
4000
4000
4000
4000
4000
c000
ENDCHAR
STARTCHAR 9
ENCODING -1 57
SWIDTH 0 0
DWIDTH 4 0
BBX 3 11 1 -6
BITMAP
e000
2000
2000
2000
2000
2000
2000
2000
2000
2000
e000
ENDCHAR
STARTCHAR :
ENCODING -1 58
SWIDTH 0 0
DWIDTH 4 0
BBX 3 13 1 -7
BITMAP
e000
2000
2000
2000
2000
2000
2000
2000
2000
2000
2000
2000
e000
ENDCHAR
STARTCHAR ;
ENCODING -1 59
SWIDTH 0 0
DWIDTH 5 0
BBX 4 17 1 -9
BITMAP
f000
1000
1000
1000
1000
1000
1000
1000
1000
1000
1000
1000
1000
1000
1000
1000
f000
ENDCHAR
STARTCHAR <
ENCODING -1 60
SWIDTH 0 0
DWIDTH 5 0
BBX 4 21 1 -11
BITMAP
f000
1000
1000
1000
1000
1000
1000
1000
1000
1000
1000
1000
1000
1000
1000
1000
1000
1000
1000
1000
f000
ENDCHAR
STARTCHAR =
ENCODING -1 61
SWIDTH 0 0
DWIDTH 0 0
BBX 5 10 -4 -10
BITMAP
f800
0800
0800
0800
0800
0800
0800
0800
0800
0800
ENDCHAR
STARTCHAR >
ENCODING -1 62
SWIDTH 0 0
DWIDTH 0 0
BBX 1 9 0 -9
BITMAP
8000
8000
8000
8000
8000
8000
8000
8000
8000
ENDCHAR
STARTCHAR ?
ENCODING -1 63
SWIDTH 0 0
DWIDTH 0 0
BBX 5 10 -4 -10
BITMAP
0800
0800
0800
0800
0800
0800
0800
0800
0800
f800
ENDCHAR
STARTCHAR @
ENCODING -1 64
SWIDTH 0 0
DWIDTH 4 0
BBX 3 9 1 -5
BITMAP
2000
4000
4000
4000
c000
4000
4000
4000
2000
ENDCHAR
STARTCHAR A
ENCODING -1 65
SWIDTH 0 0
DWIDTH 6 0
BBX 5 11 1 -6
BITMAP
1800
2000
2000
2000
2000
c000
2000
2000
2000
2000
1800
ENDCHAR
STARTCHAR B
ENCODING -1 66
SWIDTH 0 0
DWIDTH 6 0
BBX 5 13 1 -7
BITMAP
1800
2000
2000
2000
2000
2000
c000
2000
2000
2000
2000
2000
1800
ENDCHAR
STARTCHAR C
ENCODING -1 67
SWIDTH 0 0
DWIDTH 7 0
BBX 6 17 1 -9
BITMAP
0c00
1000
1000
2000
2000
2000
2000
2000
c000
2000
2000
2000
2000
2000
1000
1000
0c00
ENDCHAR
STARTCHAR D
ENCODING -1 68
SWIDTH 0 0
DWIDTH 7 0
BBX 6 21 1 -11
BITMAP
0c00
1000
1000
2000
2000
2000
2000
2000
2000
2000
c000
2000
2000
2000
2000
2000
2000
2000
1000
1000
0c00
ENDCHAR
STARTCHAR E
ENCODING -1 69
SWIDTH 0 0
DWIDTH 0 0
BBX 5 10 0 -10
BITMAP
0800
1000
2000
4000
4000
4000
8000
8000
8000
8000
ENDCHAR
STARTCHAR F
ENCODING -1 70
SWIDTH 0 0
DWIDTH 0 0
BBX 3 9 -2 -9
BITMAP
2000
2000
2000
4000
8000
4000
2000
2000
2000
ENDCHAR
STARTCHAR G
ENCODING -1 71
SWIDTH 0 0
DWIDTH 0 0
BBX 5 10 0 -10
BITMAP
8000
8000
8000
8000
4000
4000
4000
2000
1000
0800
ENDCHAR
STARTCHAR H
ENCODING -1 72
SWIDTH 0 0
DWIDTH 4 0
BBX 3 9 1 -5
BITMAP
8000
4000
4000
4000
6000
4000
4000
4000
8000
ENDCHAR
STARTCHAR I
ENCODING -1 73
SWIDTH 0 0
DWIDTH 6 0
BBX 5 11 1 -6
BITMAP
c000
2000
2000
2000
2000
1800
2000
2000
2000
2000
c000
ENDCHAR
STARTCHAR J
ENCODING -1 74
SWIDTH 0 0
DWIDTH 6 0
BBX 5 13 1 -7
BITMAP
c000
2000
2000
2000
2000
2000
1800
2000
2000
2000
2000
2000
c000
ENDCHAR
STARTCHAR K
ENCODING -1 75
SWIDTH 0 0
DWIDTH 7 0
BBX 6 17 1 -9
BITMAP
c000
2000
2000
1000
1000
1000
1000
1000
0c00
1000
1000
1000
1000
1000
2000
2000
c000
ENDCHAR
STARTCHAR L
ENCODING -1 76
SWIDTH 0 0
DWIDTH 7 0
BBX 6 21 1 -11
BITMAP
c000
2000
2000
1000
1000
1000
1000
1000
1000
1000
0c00
1000
1000
1000
1000
1000
1000
1000
2000
2000
c000
ENDCHAR
STARTCHAR M
ENCODING -1 77
SWIDTH 0 0
DWIDTH 0 0
BBX 5 10 -4 -10
BITMAP
8000
4000
2000
1000
1000
1000
0800
0800
0800
0800
ENDCHAR
STARTCHAR N
ENCODING -1 78
SWIDTH 0 0
DWIDTH 0 0
BBX 3 9 0 -9
BITMAP
8000
8000
8000
4000
2000
4000
8000
8000
8000
ENDCHAR
STARTCHAR O
ENCODING -1 79
SWIDTH 0 0
DWIDTH 0 0
BBX 5 10 -4 -10
BITMAP
0800
0800
0800
0800
1000
1000
1000
2000
4000
8000
ENDCHAR
STARTCHAR P
ENCODING -1 80
SWIDTH 0 0
DWIDTH 4 0
BBX 3 9 1 -5
BITMAP
2000
2000
4000
4000
8000
4000
4000
2000
2000
ENDCHAR
STARTCHAR Q
ENCODING -1 81
SWIDTH 0 0
DWIDTH 4 0
BBX 3 11 1 -6
BITMAP
2000
2000
4000
4000
8000
8000
8000
4000
4000
2000
2000
ENDCHAR
STARTCHAR R
ENCODING -1 82
SWIDTH 0 0
DWIDTH 5 0
BBX 4 13 1 -7
BITMAP
1000
1000
2000
2000
4000
4000
8000
4000
4000
2000
2000
1000
1000
ENDCHAR
STARTCHAR S
ENCODING -1 83
SWIDTH 0 0
DWIDTH 6 0
BBX 5 17 1 -9
BITMAP
0800
0800
1000
1000
2000
2000
4000
4000
8000
4000
4000
2000
2000
1000
1000
0800
0800
ENDCHAR
STARTCHAR T
ENCODING -1 84
SWIDTH 0 0
DWIDTH 7 0
BBX 6 21 1 -11
BITMAP
0400
0400
0800
0800
1000
1000
2000
2000
4000
4000
8000
4000
4000
2000
2000
1000
1000
0800
0800
0400
0400
ENDCHAR
STARTCHAR U
ENCODING -1 85
SWIDTH 0 0
DWIDTH 3 0
BBX 3 8 -2 -8
BITMAP
2000
2000
4000
4000
4000
8000
8000
8000
ENDCHAR
STARTCHAR V
ENCODING -1 86
SWIDTH 0 0
DWIDTH 1 0
BBX 2 9 -1 -9
BITMAP
4000
4000
4000
8000
8000
8000
4000
4000
4000
ENDCHAR
STARTCHAR W
ENCODING -1 87
SWIDTH 0 0
DWIDTH 2 0
BBX 3 8 0 -8
BITMAP
8000
8000
8000
4000
4000
4000
2000
2000
ENDCHAR
STARTCHAR X
ENCODING -1 88
SWIDTH 0 0
DWIDTH 4 0
BBX 3 9 1 -5
BITMAP
8000
8000
4000
4000
2000
4000
4000
8000
8000
ENDCHAR
STARTCHAR Y
ENCODING -1 89
SWIDTH 0 0
DWIDTH 4 0
BBX 3 11 1 -6
BITMAP
8000
8000
4000
4000
2000
2000
2000
4000
4000
8000
8000
ENDCHAR
STARTCHAR Z
ENCODING -1 90
SWIDTH 0 0
DWIDTH 5 0
BBX 4 13 1 -7
BITMAP
8000
8000
4000
4000
2000
2000
1000
2000
2000
4000
4000
8000
8000
ENDCHAR
STARTCHAR [
ENCODING -1 91
SWIDTH 0 0
DWIDTH 6 0
BBX 5 17 1 -9
BITMAP
8000
8000
4000
4000
2000
2000
1000
1000
0800
1000
1000
2000
2000
4000
4000
8000
8000
ENDCHAR
STARTCHAR \
ENCODING -1 92
SWIDTH 0 0
DWIDTH 7 0
BBX 6 21 1 -11
BITMAP
8000
8000
4000
4000
2000
2000
1000
1000
0800
0800
0400
0800
0800
1000
1000
2000
2000
4000
4000
8000
8000
ENDCHAR
STARTCHAR ]
ENCODING -1 93
SWIDTH 0 0
DWIDTH 3 0
BBX 3 8 0 -8
BITMAP
8000
8000
4000
4000
4000
2000
2000
2000
ENDCHAR
STARTCHAR ^
ENCODING -1 94
SWIDTH 0 0
DWIDTH 1 0
BBX 2 9 0 -9
BITMAP
8000
8000
8000
4000
4000
4000
8000
8000
8000
ENDCHAR
STARTCHAR _
ENCODING -1 95
SWIDTH 0 0
DWIDTH 2 0
BBX 3 8 -2 -8
BITMAP
2000
2000
2000
4000
4000
4000
8000
8000
ENDCHAR
STARTCHAR `
ENCODING -1 96
SWIDTH 0 0
DWIDTH 6 0
BBX 6 18 -5 -18
BITMAP
0400
0400
0400
0800
0800
0800
1000
1000
1000
2000
2000
2000
4000
4000
4000
8000
8000
8000
ENDCHAR
STARTCHAR a
ENCODING -1 97
SWIDTH 0 0
DWIDTH 3 0
BBX 3 9 -2 -9
BITMAP
2000
2000
2000
4000
4000
4000
8000
8000
8000
ENDCHAR
STARTCHAR b
ENCODING -1 98
SWIDTH 0 0
DWIDTH 1 0
BBX 1 3 0 -3
BITMAP
8000
8000
8000
ENDCHAR
STARTCHAR d
ENCODING -1 100
SWIDTH 0 0
DWIDTH 6 0
BBX 6 18 0 -18
BITMAP
8000
8000
8000
4000
4000
4000
2000
2000
2000
1000
1000
1000
0800
0800
0800
0400
0400
0400
ENDCHAR
STARTCHAR e
ENCODING -1 101
SWIDTH 0 0
DWIDTH 3 0
BBX 3 9 0 -9
BITMAP
8000
8000
8000
4000
4000
4000
2000
2000
2000
ENDCHAR
STARTCHAR f
ENCODING -1 102
SWIDTH 0 0
DWIDTH 1 0
BBX 1 3 0 -3
BITMAP
8000
8000
8000
ENDCHAR
STARTCHAR h
ENCODING -1 104
SWIDTH 0 0
DWIDTH 4 0
BBX 4 20 0 0
BITMAP
1000
1000
1000
1000
1000
2000
2000
2000
2000
2000
4000
4000
4000
4000
4000
8000
8000
8000
8000
8000
ENDCHAR
STARTCHAR i
ENCODING -1 105
SWIDTH 0 0
DWIDTH 2 0
BBX 2 10 0 0
BITMAP
4000
4000
4000
4000
4000
8000
8000
8000
8000
8000
ENDCHAR
STARTCHAR j
ENCODING -1 106
SWIDTH 0 0
DWIDTH 1 0
BBX 1 5 0 0
BITMAP
8000
8000
8000
8000
8000
ENDCHAR
STARTCHAR k
ENCODING -1 107
SWIDTH 0 0
DWIDTH 0 0
BBX 1 1 0 0
BITMAP
8000
ENDCHAR
STARTCHAR p
ENCODING -1 112
SWIDTH 0 0
DWIDTH 0 0
BBX 1 16 0 -16
BITMAP
8000
8000
8000
8000
8000
8000
8000
8000
8000
8000
8000
8000
8000
8000
8000
8000
ENDCHAR
STARTCHAR q
ENCODING -1 113
SWIDTH 0 0
DWIDTH 0 0
BBX 1 8 0 -8
BITMAP
8000
8000
8000
8000
8000
8000
8000
8000
ENDCHAR
STARTCHAR r
ENCODING -1 114
SWIDTH 0 0
DWIDTH 0 0
BBX 1 4 0 -4
BITMAP
8000
8000
8000
8000
ENDCHAR
STARTCHAR s
ENCODING -1 115
SWIDTH 0 0
DWIDTH 0 0
BBX 1 1 0 -1
BITMAP
8000
ENDCHAR
STARTCHAR t
ENCODING -1 116
SWIDTH 0 0
DWIDTH 0 0
BBX 2 16 0 -16
BITMAP
c000
c000
c000
c000
c000
c000
c000
c000
c000
c000
c000
c000
c000
c000
c000
c000
ENDCHAR
STARTCHAR u
ENCODING -1 117
SWIDTH 0 0
DWIDTH 0 0
BBX 2 8 0 -8
BITMAP
c000
c000
c000
c000
c000
c000
c000
c000
ENDCHAR
STARTCHAR v
ENCODING -1 118
SWIDTH 0 0
DWIDTH 0 0
BBX 2 4 0 -4
BITMAP
c000
c000
c000
c000
ENDCHAR
STARTCHAR w
ENCODING -1 119
SWIDTH 0 0
DWIDTH 0 0
BBX 2 1 0 -1
BITMAP
c000
ENDCHAR
STARTCHAR x
ENCODING -1 120
SWIDTH 0 0
DWIDTH 16 0
BBX 16 1 0 -1
BITMAP
ffff
ENDCHAR
STARTCHAR y
ENCODING -1 121
SWIDTH 0 0
DWIDTH 8 0
BBX 8 1 0 -1
BITMAP
ff00
ENDCHAR
STARTCHAR z
ENCODING -1 122
SWIDTH 0 0
DWIDTH 4 0
BBX 4 1 0 -1
BITMAP
f000
ENDCHAR
STARTCHAR {
ENCODING -1 123
SWIDTH 0 0
DWIDTH 1 0
BBX 1 1 0 -1
BITMAP
8000
ENDCHAR
STARTCHAR |
ENCODING -1 124
SWIDTH 0 0
DWIDTH 16 0
BBX 16 2 0 -2
BITMAP
ffff
ffff
ENDCHAR
STARTCHAR }
ENCODING -1 125
SWIDTH 0 0
DWIDTH 8 0
BBX 8 2 0 -2
BITMAP
ff00
ff00
ENDCHAR
STARTCHAR ~
ENCODING -1 126
SWIDTH 0 0
DWIDTH 4 0
BBX 4 2 0 -2
BITMAP
f000
f000
ENDCHAR
STARTCHAR ch-127
ENCODING -1 127
SWIDTH 0 0
DWIDTH 1 0
BBX 1 2 0 -2
BITMAP
8000
8000
ENDCHAR
ENDFONT
