STARTFONT 2.1
COMMENT Created by fdbbdf
FONT sym12b
SIZE 12 78 78
FONTBOUNDINGBOX 23 31 0 -13
STARTPROPERTIES 4
Ownership "  "
FONT_ASCENT 18
FONT_DESCENT 13
DEFAULT_CHAR 37
ENDPROPERTIES
CHARS 26
STARTCHAR %
ENCODING -1 37
SWIDTH 0 0
DWIDTH 15 0
BBX 14 7 1 -1
BITMAP
3830
4448
8284
8104
8284
4448
3830
ENDCHAR
STARTCHAR '
ENCODING -1 39
SWIDTH 0 0
DWIDTH 5 0
BBX 4 9 1 -1
BITMAP
1000
1000
3000
2000
6000
4000
4000
8000
8000
ENDCHAR
STARTCHAR *
ENCODING -1 42
SWIDTH 0 0
DWIDTH 10 0
BBX 9 9 1 -2
BITMAP
8080
4100
2200
1400
0800
1400
2200
4100
8080
ENDCHAR
STARTCHAR +
ENCODING -1 43
SWIDTH 0 0
DWIDTH 10 0
BBX 9 9 1 -2
BITMAP
0800
0800
0800
0800
ff80
0800
0800
0800
0800
ENDCHAR
STARTCHAR -
ENCODING -1 45
SWIDTH 0 0
DWIDTH 10 0
BBX 9 1 1 2
BITMAP
ff80
ENDCHAR
STARTCHAR /
ENCODING -1 47
SWIDTH 0 0
DWIDTH 10 0
BBX 9 7 1 -1
BITMAP
0800
0800
0000
ff80
0000
0800
0800
ENDCHAR
STARTCHAR <
ENCODING -1 60
SWIDTH 0 0
DWIDTH 11 0
BBX 10 9 1 -2
BITMAP
00c0
0300
0c00
3000
c000
3000
0c00
0300
00c0
ENDCHAR
STARTCHAR =
ENCODING -1 61
SWIDTH 0 0
DWIDTH 10 0
BBX 9 3 1 1
BITMAP
ff80
0000
ff80
ENDCHAR
STARTCHAR >
ENCODING -1 62
SWIDTH 0 0
DWIDTH 11 0
BBX 10 9 1 -2
BITMAP
c000
3000
0c00
0300
00c0
0300
0c00
3000
c000
ENDCHAR
STARTCHAR C
ENCODING -1 67
SWIDTH 0 0
DWIDTH 6 0
BBX 9 31 1 -13
BITMAP
0300
0780
0580
0400
0400
0400
0400
0c00
0c00
0c00
0c00
0c00
3e00
6f00
4900
4900
4900
7b00
3e00
1800
1800
1800
1800
1800
1000
1000
1000
1000
d000
f000
6000
ENDCHAR
STARTCHAR I
ENCODING -1 73
SWIDTH 0 0
DWIDTH 6 0
BBX 9 31 1 -13
BITMAP
0300
0780
0580
0400
0400
0400
0400
0c00
0c00
0c00
0c00
0c00
0c00
0c00
1c00
1c00
1c00
1800
1800
1800
1800
1800
1800
1800
1000
1000
1000
1000
d000
f000
6000
ENDCHAR
STARTCHAR P
ENCODING -1 80
SWIDTH 0 0
DWIDTH 19 0
BBX 18 21 1 -9
BITMAP
ffffc000
30030000
30030000
30030000
30030000
30030000
30030000
30030000
30030000
30030000
30030000
30030000
30030000
30030000
30030000
30030000
30030000
30030000
30030000
30030000
fc0fc000
ENDCHAR
STARTCHAR S
ENCODING -1 83
SWIDTH 0 0
DWIDTH 23 0
BBX 22 25 1 -10
BITMAP
fffff800
70000800
38000400
1c000000
0e000000
07000000
03800000
01c00000
00e00000
00700000
00380000
001c0000
00180000
00300000
00600000
00c00000
01800000
03000000
06000000
0c000000
18000000
30000400
60000800
fffff000
fffff000
ENDCHAR
STARTCHAR U
ENCODING -1 85
SWIDTH 0 0
DWIDTH 17 0
BBX 16 23 1 -11
BITMAP
c003
c003
c003
c003
c003
c003
c003
c003
c003
c003
c003
c003
c003
c003
c003
c003
c003
c003
e003
6006
381c
1ff8
07e0
ENDCHAR
STARTCHAR V
ENCODING -1 86
SWIDTH 0 0
DWIDTH 19 0
BBX 18 23 1 -11
BITMAP
c000c000
c000c000
60018000
60018000
60018000
30030000
30030000
30030000
18060000
18060000
18060000
0c0c0000
0c0c0000
060c0000
06180000
06180000
03300000
03300000
03300000
01e00000
01e00000
01e00000
00c00000
ENDCHAR
STARTCHAR W
ENCODING -1 87
SWIDTH 0 0
DWIDTH 17 0
BBX 16 23 1 -11
BITMAP
07e0
1ff8
381c
6006
e007
c003
c003
c003
c003
c003
c003
c003
c003
c003
c003
c003
c003
c003
c003
c003
c003
c003
c003
ENDCHAR
STARTCHAR X
ENCODING -1 88
SWIDTH 0 0
DWIDTH 19 0
BBX 18 23 1 -11
BITMAP
00c00000
01e00000
01e00000
01e00000
03300000
03300000
03300000
06180000
06180000
060c0000
0c0c0000
0c0c0000
18060000
18060000
18060000
30030000
30030000
30030000
60018000
60018000
60018000
c000c000
c000c000
ENDCHAR
STARTCHAR \
ENCODING -1 92
SWIDTH 0 0
DWIDTH 6 0
BBX 5 12 1 -2
BITMAP
2000
2000
2000
2000
2000
2000
2000
2000
a800
7000
2000
2000
ENDCHAR
STARTCHAR ]
ENCODING -1 93
SWIDTH 0 0
DWIDTH 13 0
BBX 12 5 1 -1
BITMAP
0080
0040
fff0
0040
0080
ENDCHAR
STARTCHAR ^
ENCODING -1 94
SWIDTH 0 0
DWIDTH 6 0
BBX 5 12 1 -2
BITMAP
2000
2000
7000
a800
2000
2000
2000
2000
2000
2000
2000
2000
ENDCHAR
STARTCHAR _
ENCODING -1 95
SWIDTH 0 0
DWIDTH 13 0
BBX 12 5 1 -1
BITMAP
1000
2000
fff0
2000
1000
ENDCHAR
STARTCHAR g
ENCODING -1 103
SWIDTH 0 0
DWIDTH 11 0
BBX 10 11 1 -4
BITMAP
c000
3000
0c00
0300
00c0
0300
0c00
3000
c000
0000
ffc0
ENDCHAR
STARTCHAR l
ENCODING -1 108
SWIDTH 0 0
DWIDTH 11 0
BBX 10 11 1 -4
BITMAP
00c0
0300
0c00
3000
c000
3000
0c00
0300
00c0
0000
ffc0
ENDCHAR
STARTCHAR m
ENCODING -1 109
SWIDTH 0 0
DWIDTH 10 0
BBX 9 11 1 -3
BITMAP
ff80
0000
0800
0800
0800
0800
ff80
0800
0800
0800
0800
ENDCHAR
STARTCHAR p
ENCODING -1 112
SWIDTH 0 0
DWIDTH 10 0
BBX 9 11 1 -4
BITMAP
0800
0800
0800
0800
ff80
0800
0800
0800
0800
0000
ff80
ENDCHAR
STARTCHAR z
ENCODING -1 122
SWIDTH 0 0
DWIDTH 10 0
BBX 9 12 1 -4
BITMAP
0000
4900
1200
2400
4900
1200
2400
4900
1200
2400
4900
0000
ENDCHAR
ENDFONT
