STARTFONT 2.1
COMMENT Created by fdbbdf
FONT sym10
SIZE 10 78 78
FONTBOUNDINGBOX 11 10 0 -3
STARTPROPERTIES 4
Ownership "  "
FONT_ASCENT 7
FONT_DESCENT 3
DEFAULT_CHAR 37
ENDPROPERTIES
CHARS 20
STARTCHAR %
ENCODING -1 37
SWIDTH 0 0
DWIDTH 11 0
BBX 10 6 1 -1
BITMAP
7180
8a40
8440
8440
8a40
7180
ENDCHAR
STARTCHAR '
ENCODING -1 39
SWIDTH 0 0
DWIDTH 3 0
BBX 3 6 1 -1
BITMAP
2000
2000
4000
4000
8000
8000
ENDCHAR
STARTCHAR *
ENCODING -1 42
SWIDTH 0 0
DWIDTH 8 0
BBX 7 7 1 -1
BITMAP
8200
4400
2800
1000
2800
4400
8200
ENDCHAR
STARTCHAR +
ENCODING -1 43
SWIDTH 0 0
DWIDTH 8 0
BBX 7 7 1 -1
BITMAP
1000
1000
1000
fe00
1000
1000
1000
ENDCHAR
STARTCHAR -
ENCODING -1 45
SWIDTH 0 0
DWIDTH 8 0
BBX 7 1 1 2
BITMAP
fe00
ENDCHAR
STARTCHAR /
ENCODING -1 47
SWIDTH 0 0
DWIDTH 8 0
BBX 7 6 1 -1
BITMAP
1000
0000
fe00
0000
1000
0000
ENDCHAR
STARTCHAR <
ENCODING -1 60
SWIDTH 0 0
DWIDTH 8 0
BBX 7 7 1 -1
BITMAP
0200
0c00
3000
c000
3000
0c00
0200
ENDCHAR
STARTCHAR =
ENCODING -1 61
SWIDTH 0 0
DWIDTH 8 0
BBX 7 3 1 1
BITMAP
fe00
0000
fe00
ENDCHAR
STARTCHAR >
ENCODING -1 62
SWIDTH 0 0
DWIDTH 8 0
BBX 7 7 1 -1
BITMAP
8000
6000
1800
0600
1800
6000
8000
ENDCHAR
STARTCHAR I
ENCODING -1 73
SWIDTH 0 0
DWIDTH 8 0
BBX 7 10 1 -3
BITMAP
0400
0a00
0a00
1000
1000
1000
2000
a000
a000
4000
ENDCHAR
STARTCHAR S
ENCODING -1 83
SWIDTH 0 0
DWIDTH 9 0
BBX 8 10 1 -3
BITMAP
ff00
4100
2000
1000
0800
1000
2000
4000
8100
ff00
ENDCHAR
STARTCHAR \
ENCODING -1 92
SWIDTH 0 0
DWIDTH 6 0
BBX 5 9 1 -2
BITMAP
2000
2000
2000
2000
2000
a800
7000
2000
2000
ENDCHAR
STARTCHAR ]
ENCODING -1 93
SWIDTH 0 0
DWIDTH 10 0
BBX 9 5 1 0
BITMAP
0400
0200
ff80
0200
0400
ENDCHAR
STARTCHAR ^
ENCODING -1 94
SWIDTH 0 0
DWIDTH 6 0
BBX 5 9 1 -2
BITMAP
2000
2000
7000
a800
2000
2000
2000
2000
2000
ENDCHAR
STARTCHAR _
ENCODING -1 95
SWIDTH 0 0
DWIDTH 10 0
BBX 9 5 1 0
BITMAP
1000
2000
ff80
2000
1000
ENDCHAR
STARTCHAR g
ENCODING -1 103
SWIDTH 0 0
DWIDTH 8 0
BBX 7 9 1 -3
BITMAP
8000
6000
1800
0600
1800
6000
8000
0000
fe00
ENDCHAR
STARTCHAR l
ENCODING -1 108
SWIDTH 0 0
DWIDTH 8 0
BBX 7 9 1 -3
BITMAP
0200
0c00
3000
c000
3000
0c00
0200
0000
fe00
ENDCHAR
STARTCHAR m
ENCODING -1 109
SWIDTH 0 0
DWIDTH 8 0
BBX 7 9 1 -3
BITMAP
fe00
0000
1000
1000
1000
fe00
1000
1000
1000
ENDCHAR
STARTCHAR p
ENCODING -1 112
SWIDTH 0 0
DWIDTH 8 0
BBX 7 9 1 -3
BITMAP
1000
1000
1000
fe00
1000
1000
1000
0000
fe00
ENDCHAR
STARTCHAR z
ENCODING -1 122
SWIDTH 0 0
DWIDTH 8 0
BBX 7 10 1 -3
BITMAP
0000
2400
4800
1000
2400
4800
1000
2400
4800
0000
ENDCHAR
ENDFONT
