STARTFONT 2.1
COMMENT Created by fdbbdf
FONT con10
SIZE 10 78 78
FONTBOUNDINGBOX 67 109 -17 -89
STARTPROPERTIES 4
Ownership "  "
FONT_ASCENT 20
FONT_DESCENT 89
DEFAULT_CHAR 48
ENDPROPERTIES
CHARS 49
STARTCHAR 0
ENCODING -1 48
SWIDTH 0 0
DWIDTH 35 0
BBX 35 37 0 -20
BITMAP
ffffffffe000
fe0000002000
fc0000002000
f80000002000
fffffffe2000
e80000022000
c80000fa2000
8800008a2000
8800008a2000
8800008a2000
8800008a2000
880000fa2000
880000022000
880000022000
880ffc022000
880000022000
880fff022000
880000022000
880ff8022000
880000022000
880000022000
880000022000
880000022000
8ffffffe2000
800000002000
800000002000
8000e0002000
800110002000
800110002000
800110002000
800110002000
800110002000
800110002000
8000e0002000
800000002000
800000002000
ffffffffe000
ENDCHAR
STARTCHAR 1
ENCODING -1 49
SWIDTH 0 0
DWIDTH 35 0
BBX 35 37 0 -20
BITMAP
ffffffffe000
fe0000002000
fc0000002000
f80000002000
fffffffe2000
e80000022000
c80000fa2000
8800008a2000
8800008a2000
8800008a2000
8800008a2000
880000fa2000
880000022000
880000022000
880ffc022000
880000022000
880fff022000
880000022000
880ff8022000
880000022000
880000022000
880000022000
880000022000
8ffffffe2000
800000002000
800000002000
800040002000
8001c0002000
800040002000
800040002000
800040002000
800040002000
800040002000
800040002000
800000002000
800000002000
ffffffffe000
ENDCHAR
STARTCHAR 2
ENCODING -1 50
SWIDTH 0 0
DWIDTH 35 0
BBX 35 37 0 -20
BITMAP
ffffffffe000
fe0000002000
fc0000002000
f80000002000
fffffffe2000
e80000022000
c80000fa2000
8800008a2000
8800008a2000
8800008a2000
8800008a2000
880000fa2000
880000022000
880000022000
880ffc022000
880000022000
880fff022000
880000022000
880ff8022000
880000022000
880000022000
880000022000
880000022000
8ffffffe2000
800000002000
800000002000
8000e0002000
800110002000
800010002000
800020002000
800040002000
800080002000
800100002000
8001f0002000
800000002000
800000002000
ffffffffe000
ENDCHAR
STARTCHAR 3
ENCODING -1 51
SWIDTH 0 0
DWIDTH 35 0
BBX 35 37 0 -20
BITMAP
ffffffffe000
fe0000002000
fc0000002000
f80000002000
fffffffe2000
e80000022000
c80000fa2000
8800008a2000
8800008a2000
8800008a2000
8800008a2000
880000fa2000
880000022000
880000022000
880ffc022000
880000022000
880fff022000
880000022000
880ff8022000
880000022000
880000022000
880000022000
880000022000
8ffffffe2000
800000002000
800000002000
8000e0002000
800110002000
800010002000
800060002000
800010002000
800010002000
800110002000
8000e0002000
800000002000
800000002000
ffffffffe000
ENDCHAR
STARTCHAR 4
ENCODING -1 52
SWIDTH 0 0
DWIDTH 35 0
BBX 35 37 0 -20
BITMAP
ffffffffe000
fe0000002000
fc0000002000
f80000002000
fffffffe2000
e80000022000
c80000fa2000
8800008a2000
8800008a2000
8800008a2000
8800008a2000
880000fa2000
880000022000
880000022000
880ffc022000
880000022000
880fff022000
880000022000
880ff8022000
880000022000
880000022000
880000022000
880000022000
8ffffffe2000
800000002000
800000002000
800120002000
800120002000
800120002000
800120002000
8001f8002000
800020002000
800020002000
800020002000
800000002000
800000002000
ffffffffe000
ENDCHAR
STARTCHAR 5
ENCODING -1 53
SWIDTH 0 0
DWIDTH 35 0
BBX 35 37 0 -20
BITMAP
ffffffffe000
fe0000002000
fc0000002000
f80000002000
fffffffe2000
e80000022000
c80000fa2000
8800008a2000
8800008a2000
8800008a2000
8800008a2000
880000fa2000
880000022000
880000022000
880ffc022000
880000022000
880fff022000
880000022000
880ff8022000
880000022000
880000022000
880000022000
880000022000
8ffffffe2000
800000002000
800000002000
8001f0002000
800100002000
800100002000
8001e0002000
800010002000
800010002000
800110002000
8000e0002000
800000002000
800000002000
ffffffffe000
ENDCHAR
STARTCHAR 6
ENCODING -1 54
SWIDTH 0 0
DWIDTH 35 0
BBX 35 37 0 -20
BITMAP
ffffffffe000
fe0000002000
fc0000002000
f80000002000
fffffffe2000
e80000022000
c80000fa2000
8800008a2000
8800008a2000
8800008a2000
8800008a2000
880000fa2000
880000022000
880000022000
880ffc022000
880000022000
880fff022000
880000022000
880ff8022000
880000022000
880000022000
880000022000
880000022000
8ffffffe2000
800000002000
800000002000
8000e0002000
800110002000
800100002000
8001e0002000
800110002000
800110002000
800110002000
8000e0002000
800000002000
800000002000
ffffffffe000
ENDCHAR
STARTCHAR 7
ENCODING -1 55
SWIDTH 0 0
DWIDTH 35 0
BBX 35 37 0 -20
BITMAP
ffffffffe000
fe0000002000
fc0000002000
f80000002000
fffffffe2000
e80000022000
c80000fa2000
8800008a2000
8800008a2000
8800008a2000
8800008a2000
880000fa2000
880000022000
880000022000
880ffc022000
880000022000
880fff022000
880000022000
880ff8022000
880000022000
880000022000
880000022000
880000022000
8ffffffe2000
800000002000
800000002000
8001f0002000
800010002000
800020002000
800020002000
800040002000
800040002000
800080002000
800080002000
800000002000
800000002000
ffffffffe000
ENDCHAR
STARTCHAR 8
ENCODING -1 56
SWIDTH 0 0
DWIDTH 35 0
BBX 35 37 0 -20
BITMAP
ffffffffe000
fe0000002000
fc0000002000
f80000002000
fffffffe2000
e80000022000
c80000fa2000
8800008a2000
8800008a2000
8800008a2000
8800008a2000
880000fa2000
880000022000
880000022000
880ffc022000
880000022000
880fff022000
880000022000
880ff8022000
880000022000
880000022000
880000022000
880000022000
8ffffffe2000
800000002000
800000002000
8000e0002000
800110002000
800110002000
8000e0002000
800110002000
800110002000
800110002000
8000e0002000
800000002000
800000002000
ffffffffe000
ENDCHAR
STARTCHAR 9
ENCODING -1 57
SWIDTH 0 0
DWIDTH 35 0
BBX 35 37 0 -20
BITMAP
ffffffffe000
fe0000002000
fc0000002000
f80000002000
fffffffe2000
e80000022000
c80000fa2000
8800008a2000
8800008a2000
8800008a2000
8800008a2000
880000fa2000
880000022000
880000022000
880ffc022000
880000022000
880fff022000
880000022000
880ff8022000
880000022000
880000022000
880000022000
880000022000
8ffffffe2000
800000002000
800000002000
8000e0002000
800110002000
800110002000
800110002000
8000f0002000
800010002000
800110002000
8000e0002000
800000002000
800000002000
ffffffffe000
ENDCHAR
STARTCHAR @
ENCODING -1 64
SWIDTH 0 0
DWIDTH 33 0
BBX 28 21 0 -12
BITMAP
00000000
00000000
00000000
00000000
00000000
00000000
00000000
00000000
00000000
00000000
00000000
00000000
00000000
00000000
00000000
00000000
00000000
00000000
00000000
00000000
00000000
ENDCHAR
STARTCHAR A
ENCODING -1 65
SWIDTH 0 0
DWIDTH 21 0
BBX 21 16 0 -10
BITMAP
fffff000
c0003000
a0005800
90009800
88011800
84021800
82041800
81081800
82941800
84621800
88011800
90009800
a0005800
c0003800
fffff800
3ffff800
ENDCHAR
STARTCHAR B
ENCODING -1 66
SWIDTH 0 0
DWIDTH 6 0
BBX 11 14 -5 -14
BITMAP
0e00
1f00
3f80
3f80
3f80
3f80
3f80
7fc0
ffe0
ffe0
0000
0e00
0e00
0400
ENDCHAR
STARTCHAR C
ENCODING -1 67
SWIDTH 0 0
DWIDTH 8 0
BBX 15 19 -7 -19
BITMAP
0100
0380
07c0
0fe0
1ff0
1ff0
1ff0
1ff0
1ff0
3ff8
7c7c
f11e
c106
711c
1930
0280
0540
0280
0100
ENDCHAR
STARTCHAR D
ENCODING -1 68
SWIDTH 0 0
DWIDTH 28 0
BBX 28 21 0 -12
BITMAP
ffffffe0
c0000060
a00000b0
90000130
88000230
84000430
82000830
81001030
80802030
80404030
8060c030
80912030
810e1030
82000830
84000430
88000230
90000130
a00000b0
c0000070
fffffff0
3ffffff0
ENDCHAR
STARTCHAR E
ENCODING -1 69
SWIDTH 0 0
DWIDTH 0 0
BBX 16 18 0 -18
BITMAP
0100
0180
05a0
07e0
03d0
0998
1df0
3f8c
03f8
5996
7fcc
31b8
0782
7ffe
719e
0180
0180
0100
ENDCHAR
STARTCHAR F
ENCODING -1 70
SWIDTH 0 0
DWIDTH 0 0
BBX 16 18 0 -18
BITMAP
0100
0180
0300
03c0
0d00
03e0
0980
1770
0980
1f70
0108
3ff0
130c
79f0
0f0c
61f8
1f70
0180
ENDCHAR
STARTCHAR G
ENCODING -1 71
SWIDTH 0 0
DWIDTH 0 0
BBX 21 18 0 -18
BITMAP
00040000
01920000
24640000
22960000
13110000
14a48000
09492000
92916000
6a491000
128a6000
0a945000
09aa8000
09494000
07520000
00dc0000
00e00000
00600000
00000000
ENDCHAR
STARTCHAR H
ENCODING -1 72
SWIDTH 0 0
DWIDTH 0 0
BBX 20 18 0 -18
BITMAP
01f80000
0fec0000
1abd0000
3ff78000
7dfe8000
37afe000
5efbe000
3fd2c000
77ffe000
addac000
2fff8000
0c628000
00600000
00600000
00600000
00600000
00600000
00f00000
ENDCHAR
STARTCHAR I
ENCODING -1 73
SWIDTH 0 0
DWIDTH 0 0
BBX 19 21 0 -21
BITMAP
03680000
0b6c0000
1b6d0000
1b6d8000
5b6d8000
5b6dc000
db6dc000
da6de000
d26da000
d26da000
d26da000
926da000
926d2000
926d2000
126d0000
12690000
12490000
12490000
02480000
02480000
00400000
ENDCHAR
STARTCHAR J
ENCODING -1 74
SWIDTH 0 0
DWIDTH 0 0
BBX 16 18 0 -18
BITMAP
0100
0180
0180
0340
03c0
05c0
07e0
0da0
0ff0
13c8
0ff0
1bf8
27a4
0ff8
3d9c
0180
0180
0100
ENDCHAR
STARTCHAR M
ENCODING -1 77
SWIDTH 0 0
DWIDTH 27 0
BBX 27 20 0 -11
BITMAP
ffffffe0
80000020
80000fa0
800008a0
800008a0
800008a0
800008a0
80000fa0
80000020
80000020
80ffc020
80000020
80fff020
80000020
80ff8020
80000020
80000020
80000020
80000020
ffffffe0
ENDCHAR
STARTCHAR N
ENCODING -1 78
SWIDTH 0 0
DWIDTH 28 0
BBX 28 21 0 -12
BITMAP
ffffffe0
80000020
bc000fb0
800008b0
b60008b0
800008b0
800008b0
80000fb0
80000030
80000030
80ffc030
80000030
80fff030
80000030
80ff8030
80000030
80000030
80000030
80000030
fffffff0
3ffffff0
ENDCHAR
STARTCHAR O
ENCODING -1 79
SWIDTH 0 0
DWIDTH 27 0
BBX 27 13 0 -7
BITMAP
1fffffe0
20000020
40080420
80804020
88800020
80000420
88084020
80080020
80804020
88080420
80804420
80000020
ffffffe0
ENDCHAR
STARTCHAR P
ENCODING -1 80
SWIDTH 0 0
DWIDTH 0 0
BBX 31 18 0 -18
BITMAP
000ffffc
00100004
00100008
0023ff88
00200010
0047fe10
00400020
008fff20
00800040
011ff040
01000080
023ffc80
02000100
04000100
04000200
08000200
f80007c0
ffffffc0
ENDCHAR
STARTCHAR Q
ENCODING -1 81
SWIDTH 0 0
DWIDTH 0 0
BBX 25 19 0 -19
BITMAP
003ff000
00601000
00ae1800
01201800
023f9800
04201800
0ffe1800
08001800
09ff1800
08001800
09fc1800
08001800
09ffd800
08001800
09f81800
f8001f00
f8001f00
ffffff00
00000000
ENDCHAR
STARTCHAR R
ENCODING -1 82
SWIDTH 0 0
DWIDTH 0 0
BBX 32 18 0 -18
BITMAP
000ffffc
00100004
0010000e
0023ff8e
0020001c
0047fe1c
00400038
008fff38
00800070
011ff070
010000e0
023ffce0
020001c0
040001c0
04000380
08000380
f80007e0
ffffffe0
ENDCHAR
STARTCHAR T
ENCODING -1 84
SWIDTH 0 0
DWIDTH 14 0
BBX 27 23 -13 -23
BITMAP
1fffff00
20000080
40000040
800e0020
800e0020
800e0020
400e0040
400e0040
200e0080
100e0100
100e0100
080e0200
040e0400
04040400
02000800
01041000
010e1000
008e2000
00444000
00404000
00208000
00110000
000e0000
ENDCHAR
STARTCHAR V
ENCODING -1 86
SWIDTH 0 0
DWIDTH 0 0
BBX 45 55 0 -55
BITMAP
0000f0000000
00010f000000
000220c00000
0004a0238000
0009101c6000
00130e008000
001295830000
0012043c0000
000a0802fe00
000918410180
0005603c1e40
000f0703e180
001281008000
002180f85400
004000842400
0087e4420800
00881221f000
011312200000
0124e5200000
02089a400000
02170c800000
022409000000
01c412000000
000825000000
001049000000
001089000000
001091000000
001061000000
001021000000
000822000000
000822000000
000422000000
000412000000
000412000000
000212000000
000112000000
00018b000000
00068ae00000
00388a3e0000
00e092218000
072092406000
08111440b000
341114810800
c20914820c00
a10914041400
908114082400
c04092004400
38019fc01c00
0606a030e000
01f8a01f0000
0030e00c0000
000e40700000
000101800000
000082000000
00007c000000
ENDCHAR
STARTCHAR W
ENCODING -1 87
SWIDTH 0 0
DWIDTH 0 0
BBX 20 19 0 -19
BITMAP
039c0000
0f9f0000
1f9f8000
3f9fc000
7f9fe000
7f9e6000
ff9cf000
ff99f000
ff93f000
1f878000
fffff000
fffff000
fffff000
7fffe000
7fffe000
3fffc000
1fbf8000
0fbf0000
03bc0000
ENDCHAR
STARTCHAR X
ENCODING -1 88
SWIDTH 0 0
DWIDTH 0 0
BBX 31 42 0 -22
BITMAP
0fffffc0
10000020
20000010
40010008
80028004
80044004
80fffe04
80501404
80200804
80501404
80ffff04
80044004
80028004
80010004
80000004
80000004
80000004
80000004
80000004
80000004
80000004
80000004
80000004
80010004
80010004
80010004
801ff004
80010004
80010004
80010004
80010004
80010004
80010004
80010004
80010004
80010004
80000004
80000004
80000004
fffffffc
00000000
00000000
ENDCHAR
STARTCHAR Y
ENCODING -1 89
SWIDTH 0 0
DWIDTH 13 0
BBX 14 32 0 -32
BITMAP
0080
61c0
f3c0
f7e0
ffe0
7f00
7c00
7800
3800
1e00
1e00
1f00
1f00
1f00
0f80
0f80
0f80
07c0
07c0
07c0
03e0
03e0
03e0
01f0
01f0
01f0
00f8
00f8
00f8
007c
0078
0020
ENDCHAR
STARTCHAR Z
ENCODING -1 90
SWIDTH 0 0
DWIDTH 49 0
BBX 50 89 0 -89
BITMAP
0000078000000000
000008c000000000
000008a000000000
000008a000000000
000008a000000000
000008a000000000
000008a000000000
00001ff000000000
0000606f00000000
00018018e0000000
000600061c000000
0018000183800000
0060000060700000
01800000180c0000
06000000061a0000
1800000001e20000
1fffffffff820000
2000000000820000
2c48938c4a820000
2aa8aa0aaa820000
2ca8a30ca4820000
28a8aa0aaa820000
284e938c4a9c0000
2000000000e40000
1fffffffff840000
1000000001040000
17fffffffd040000
1400040005040000
1400040005040000
14ffe4ffe5040000
1484248425040000
1484248425040000
1484248425040000
1484248425040000
1484248425040000
14ffe4ffe5040000
1484248425040000
1484248425040000
1484248425040000
1484248425040000
1484248425040000
14ffe4ffe5040000
1400040005040000
1400040005040000
14ffe57fe5040000
148027c025040000
14baa54025040000
1480244025040000
14b6a54025040000
1480264025040000
149da64025040000
1480264025040000
14aea64025040000
1480254025040000
14ffe47fe5040000
1400040005040000
1400040005040000
14ffe4ffe5040000
1480248025040000
1480248025040000
1480248025040000
1480248025040000
1480248025040000
1480248025040000
1480248025040000
1480248025040000
14ffe4ffe5040000
1400040005040000
1400040005040000
14ffe4ffe5040000
1480248025040000
1480248025040000
1480248025040000
1480248025040000
1480248025040000
1480248025040000
1480248025040000
1480248025040000
14ffe4ffe5040000
1400040005040000
1400040005040000
17fffffffd1b0000
1000000001608000
1fffffffff804000
2000000000804000
400000000040c000
8000000000230000
80000000002c0000
fffffffffff00000
ENDCHAR
STARTCHAR a
ENCODING -1 97
SWIDTH 0 0
DWIDTH 20 0
BBX 20 15 0 -9
BITMAP
fffff000
c0003000
a0005000
90009000
88011000
84021000
82041000
81081000
82941000
84621000
88011000
90009000
a0005000
c0003000
fffff000
ENDCHAR
STARTCHAR b
ENCODING -1 98
SWIDTH 0 0
DWIDTH 27 0
BBX 27 20 0 -11
BITMAP
ffffffe0
c0000060
a00000a0
90000120
88000220
84000420
82000820
81001020
80802020
80404020
8060c020
80912020
810e1020
82000820
84000420
88000220
90000120
a00000a0
c0000060
ffffffe0
ENDCHAR
STARTCHAR c
ENCODING -1 99
SWIDTH 0 0
DWIDTH 0 0
BBX 35 37 0 -37
BITMAP
ffffffffe000
800000002000
800000002000
800000002000
800000002000
800000002000
800000002000
800000002000
800000002000
800000002000
800000002000
800000002000
800000002000
800000002000
800000002000
800000002000
800000002000
800000002000
800000002000
800000002000
800000002000
800000002000
800000002000
800000002000
800000002000
800000002000
800000002000
800000002000
800000002000
800000002000
800000002000
800000002000
800000002000
800000002000
800000002000
800000002000
ffffffffe000
ENDCHAR
STARTCHAR i
ENCODING -1 105
SWIDTH 0 0
DWIDTH 0 0
BBX 35 37 0 -37
BITMAP
ffffffffe000
800000002000
800000002000
800000002000
800368002000
800b6c002000
801b6d002000
801b6d802000
805b6d802000
805b6dc02000
80db6dc02000
80da6de02000
80d26da02000
80d26da02000
80d26da02000
80926da02000
80926d202000
80926d202000
80126d002000
801269002000
801249002000
801249002000
800248002000
800248002000
800040002000
800000002000
800000002000
800000002000
800000002000
800000002000
800000002000
800000002000
800000002000
800000002000
800000002000
800000002000
ffffffffe000
ENDCHAR
STARTCHAR j
ENCODING -1 106
SWIDTH 0 0
DWIDTH 0 0
BBX 19 21 0 -21
BITMAP
03680000
0b6c0000
1b6d0000
1b6d8000
5b6d8000
5b6dc000
db6dc000
da6de000
d26da000
d26da000
d26da000
926da000
926d2000
926d2000
126d0000
12690000
12490000
12490000
02480000
02480000
00400000
ENDCHAR
STARTCHAR m
ENCODING -1 109
SWIDTH 0 0
DWIDTH 37 0
BBX 35 37 0 -33
BITMAP
ffffffffe000
800000002000
800000002000
800000002000
8ffffffe2000
8c0000062000
8a00000a2000
890000122000
888000222000
884000422000
882000822000
881001022000
880802022000
880404022000
88060c022000
880912022000
8810e1022000
882000822000
884000422000
888000222000
890000122000
8a00000a2000
8c0000062000
8ffffffe2000
800000002000
800000002000
800000002000
800000002000
800000002000
800000002000
800000002000
800000002000
800000002000
800000002000
800000002000
800000002000
ffffffffe000
ENDCHAR
STARTCHAR n
ENCODING -1 110
SWIDTH 0 0
DWIDTH 38 0
BBX 35 37 0 -33
BITMAP
ffffffffe000
800000002000
800000002000
800000002000
8ffffffe2000
880000022000
880000fa2000
8800008a2000
8800008a2000
8800008a2000
8800008a2000
880000fa2000
880000022000
880000022000
880ffc022000
880000022000
880fff022000
880000022000
880ff8022000
880000022000
880000022000
880000022000
880000022000
8ffffffe2000
800000002000
800000002000
800000002000
800000002000
800000002000
800000002000
800000002000
800000002000
800000002000
800000002000
800000002000
800000002000
ffffffffe000
ENDCHAR
STARTCHAR p
ENCODING -1 112
SWIDTH 0 0
DWIDTH 0 0
BBX 35 37 0 -37
BITMAP
ffffffffe000
800000002000
800000002000
800000002000
807fff802000
804000802000
804000802000
804ff8802000
804000802000
804ffc806000
80400081a000
804ff0862000
804000982000
804ffce02000
804000802000
804fe0802000
804000802000
804ff8b02000
804000c02000
804003002000
80400c002000
81c030002000
8640c0002000
984300002000
e04c00002000
807000002000
80c000002000
830000002000
800000002000
800000002000
800000002000
800000002000
800000002000
800000002000
800000002000
800000002000
ffffffffe000
ENDCHAR
STARTCHAR q
ENCODING -1 113
SWIDTH 0 0
DWIDTH 39 0
BBX 35 37 0 -33
BITMAP
ffffffffe000
800000002000
800000002000
800000002000
8007fffe2000
800800022000
800800042000
8011ffc42000
801000082000
8023ff082000
802000102000
8047ff902000
804000202000
808ff8202000
808000402000
811ffe402000
ff0000ffe000
820000802000
820001002000
840001002000
fc0003e02000
ffffffe02000
800000002000
800000002000
800000002000
800000002000
800000002000
800000002000
800000002000
800000002000
800000002000
800000002000
800000002000
800000002000
800000002000
800000002000
ffffffffe000
ENDCHAR
STARTCHAR s
ENCODING -1 115
SWIDTH 0 0
DWIDTH 0 0
BBX 35 37 0 -37
BITMAP
ffffffffe000
800000002000
8000e0002000
800110002000
800208002000
800404002000
800802002000
801001002000
802000802000
804000402000
808000202000
810000102000
820000082000
840000042000
880000022000
900000012000
a0000000a000
a0000000a000
a0000000a000
900000012000
880000022000
840000042000
820000082000
810000102000
808000202000
804000402000
802000802000
801001002000
800802002000
800404002000
800208002000
800110002000
8000e0002000
800000002000
800000002000
800000002000
ffffffffe000
ENDCHAR
STARTCHAR t
ENCODING -1 116
SWIDTH 0 0
DWIDTH 37 0
BBX 35 37 0 -33
BITMAP
ffffffffe000
800000002000
800000002000
800000002000
81fffff02000
820000082000
840000042000
8800e0022000
8800e0022000
8800e0022000
8400e0042000
8400e0042000
8200e0082000
8100e0102000
8100e0102000
8080e0202000
8040e0402000
804040402000
802000802000
801041002000
8010e1002000
8008e2002000
800444002000
800404002000
800208002000
800110002000
8000e0002000
800000002000
800000002000
800000002000
800000002000
800000002000
800000002000
800000002000
800000002000
800000002000
ffffffffe000
ENDCHAR
STARTCHAR u
ENCODING -1 117
SWIDTH 0 0
DWIDTH 39 0
BBX 35 37 0 -33
BITMAP
ffffffffe000
ffffffffe000
ffffffffe000
ffffffffe000
fe00000fe000
fc000007e000
f8000003e000
f000e001e000
f000e001e000
f000e001e000
f800e003e000
f800e003e000
fc00e007e000
fe00e00fe000
fe00e00fe000
ff00e01fe000
ff80e03fe000
ff80403fe000
ffc0007fe000
ffe040ffe000
ffe0e0ffe000
fff0e1ffe000
fff843ffe000
fff803ffe000
fffc07ffe000
fffe0fffe000
ffff1fffe000
ffffffffe000
ffffffffe000
ffffffffe000
ffffffffe000
ffffffffe000
ffffffffe000
ffffffffe000
ffffffffe000
ffffffffe000
ffffffffe000
ENDCHAR
STARTCHAR v
ENCODING -1 118
SWIDTH 0 0
DWIDTH 28 0
BBX 45 55 -17 -55
BITMAP
000000000000
000000000000
0000f0000000
0001ff000000
0003ffc00000
0007bfe38000
000f1fffe000
001f0fff8000
001e97ff0000
003e07fc0000
003e0ffefe00
003f1fffff80
007f9fffffc0
007f07ffe180
00fe05ff8000
01f805ffdc00
01f00487fc00
01c84c43f800
018c5e21f000
031ffe200000
022fbd200000
02471a400000
02420c800000
024209000000
013452000000
008825000000
00784b000000
00168f000000
001199000000
0010f1000000
001061000000
000822000000
000822000000
000422000000
000412000000
000412000000
000212000000
000112000000
00018a000000
00008a000000
00008a000000
000092000000
000092000000
000114000000
000114000000
000114000000
000114000000
000116000000
000091000000
00009f000000
0000a0000000
0000a0000000
0000e0000000
000000000000
000000000008
ENDCHAR
STARTCHAR w
ENCODING -1 119
SWIDTH 0 0
DWIDTH 39 0
BBX 35 37 0 -33
BITMAP
ffffffffe000
800000002000
800000002000
800000002000
80039c002000
800f9f002000
801f9f802000
803f9fc02000
807f9e602000
807f9ce02000
80ff99f02000
80ff93f02000
80ff87f02000
801fff802000
80fffff02000
80fffff02000
80fffff02000
807fffe02000
807fffe02000
803fffc02000
801fbf802000
800fbf002000
8003bc002000
800000002000
800000002000
800000002000
800000002000
800000002000
800000002000
800000002000
800000002000
800000002000
800000002000
800000002000
800000002000
800000002000
ffffffffe000
ENDCHAR
STARTCHAR y
ENCODING -1 121
SWIDTH 0 0
DWIDTH 25 0
BBX 26 24 0 -24
BITMAP
000c0000
007f8000
01d5e000
03aab000
07555800
06aaa800
0d555c00
0aaaac00
0d555400
0aaaac00
0d555400
0aaaac00
0d555400
0aaaac00
0d555400
0aaaac00
0d555400
0aaaac00
1d555600
3aaaab00
ffffffc0
00000000
001e0000
000c0000
ENDCHAR
STARTCHAR z
ENCODING -1 122
SWIDTH 0 0
DWIDTH 49 0
BBX 50 89 0 -89
BITMAP
0000478400000000
00002fc800000000
00000fe000000000
00006fac00000000
00000fe000000000
00002fa800000000
00004fe400000000
00001ff000000000
0000606f00000000
00018018e0000000
000600061c000000
0018000183800000
0060000060700000
01800000180c0000
06000000061a0000
1800000001e20000
1fffffffff820000
2000000000820000
2c48938c4a820000
2aa8aa0aaa820000
2ca8a30ca4820000
28a8aa0aaa820000
284e938c4a9c0000
2000000000e40000
1fffffffff840000
1000000001040000
17fffffffd040000
1400040005040000
1400040005040000
14ffe4ffe5040000
1484248425040000
1484248425040000
1484248425040000
1484248425040000
1484248425040000
14ffe4ffe5040000
1484248425040000
1484248425040000
1484248425040000
1484248425040000
1484248425040000
14ffe4ffe5040000
1400040005040000
1400040005040000
14ffe57fe5040000
148027c025040000
14baa54025040000
1480244025040000
14b6a54025040000
1480264025040000
149da64025040000
1480264025040000
14aea64025040000
1480254025040000
14ffe47fe5040000
1400040005040000
1400040005040000
14ffe4ffe5040000
1480248025040000
1480248025040000
1480248025040000
1480248025040000
1480248025040000
1480248025040000
1480248025040000
1480248025040000
14ffe4ffe5040000
1400040005040000
1400040005040000
14ffe4ffe5040000
1480248025040000
1480248025040000
1480248025040000
1480248025040000
1480248025040000
1480248025040000
1480248025040000
1480248025040000
14ffe4ffe5040000
1400040005040000
1400040005040000
17fffffffd1b0000
1000000001608000
1fffffffff804000
2000000000804000
400000000040c000
8000000000230000
80000000002c0000
fffffffffff00000
ENDCHAR
ENDFONT
