STARTFONT 2.1
COMMENT Created by fdbbdf
FONT zipdot20
SIZE 20 78 78
FONTBOUNDINGBOX 20 20 -10 -10
STARTPROPERTIES 4
Ownership "  "
FONT_ASCENT 10
FONT_DESCENT 10
DEFAULT_CHAR 38
ENDPROPERTIES
CHARS 25
STARTCHAR &
ENCODING -1 38
SWIDTH 0 0
DWIDTH 20 0
BBX 0 0 0 0
BITMAP
ENDCHAR
STARTCHAR A
ENCODING -1 65
SWIDTH 0 0
DWIDTH 0 0
BBX 1 1 0 -1
BITMAP
8000
ENDCHAR
STARTCHAR B
ENCODING -1 66
SWIDTH 0 0
DWIDTH 0 0
BBX 3 3 -1 -2
BITMAP
4000
a000
4000
ENDCHAR
STARTCHAR C
ENCODING -1 67
SWIDTH 0 0
DWIDTH 0 0
BBX 7 7 -3 -4
BITMAP
1000
7c00
7c00
fe00
7c00
7c00
1000
ENDCHAR
STARTCHAR d
ENCODING -1 100
SWIDTH 0 0
DWIDTH 20 0
BBX 0 0 0 0
BITMAP
ENDCHAR
STARTCHAR e
ENCODING -1 101
SWIDTH 0 0
DWIDTH 20 0
BBX 0 0 0 0
BITMAP
ENDCHAR
STARTCHAR f
ENCODING -1 102
SWIDTH 0 0
DWIDTH 20 0
BBX 0 0 0 0
BITMAP
ENDCHAR
STARTCHAR g
ENCODING -1 103
SWIDTH 0 0
DWIDTH 20 0
BBX 0 0 0 0
BITMAP
ENDCHAR
STARTCHAR h
ENCODING -1 104
SWIDTH 0 0
DWIDTH 20 0
BBX 0 0 0 0
BITMAP
ENDCHAR
STARTCHAR i
ENCODING -1 105
SWIDTH 0 0
DWIDTH 20 0
BBX 0 0 0 0
BITMAP
ENDCHAR
STARTCHAR j
ENCODING -1 106
SWIDTH 0 0
DWIDTH 20 0
BBX 0 0 0 0
BITMAP
ENDCHAR
STARTCHAR k
ENCODING -1 107
SWIDTH 0 0
DWIDTH 20 0
BBX 0 0 0 0
BITMAP
ENDCHAR
STARTCHAR l
ENCODING -1 108
SWIDTH 0 0
DWIDTH 20 0
BBX 0 0 0 0
BITMAP
ENDCHAR
STARTCHAR m
ENCODING -1 109
SWIDTH 0 0
DWIDTH 20 0
BBX 0 0 0 0
BITMAP
ENDCHAR
STARTCHAR n
ENCODING -1 110
SWIDTH 0 0
DWIDTH 20 0
BBX 20 20 -10 -10
BITMAP
aaaaa000
00001000
80000000
00001000
80000000
00001000
80000000
00001000
80000000
00001000
80000000
00001000
80000000
00001000
80000000
00001000
80000000
00001000
80000000
55555000
ENDCHAR
STARTCHAR o
ENCODING -1 111
SWIDTH 0 0
DWIDTH 20 0
BBX 20 20 -10 -10
BITMAP
aaaaa000
00001000
80000000
00001000
80000000
00001000
80000000
00001000
80000000
00001000
80000000
00001000
80000000
00001000
80000000
00001000
80000000
00001000
80000000
55555000
ENDCHAR
STARTCHAR p
ENCODING -1 112
SWIDTH 0 0
DWIDTH 20 0
BBX 20 20 -10 -10
BITMAP
aaaaa000
00001000
80000000
00001000
80000000
00001000
80000000
00001000
80000000
00001000
80000000
00001000
80000000
00001000
80000000
00001000
80000000
00001000
80000000
55555000
ENDCHAR
STARTCHAR q
ENCODING -1 113
SWIDTH 0 0
DWIDTH 20 0
BBX 20 20 -10 -10
BITMAP
aaaaa000
00001000
80000000
00001000
80000000
00001000
80000000
00001000
80000000
00001000
80000000
00001000
80000000
00001000
80000000
00001000
80000000
00001000
80000000
55555000
ENDCHAR
STARTCHAR r
ENCODING -1 114
SWIDTH 0 0
DWIDTH 20 0
BBX 20 20 -10 -10
BITMAP
aaaaa000
00001000
80000000
00001000
80000000
00001000
80000000
00001000
80000000
00001000
80000000
00001000
80000000
00001000
80000000
00001000
80000000
00001000
80000000
55555000
ENDCHAR
STARTCHAR s
ENCODING -1 115
SWIDTH 0 0
DWIDTH 20 0
BBX 20 20 -10 -10
BITMAP
aaaaa000
00001000
80000000
00001000
80000000
00001000
80000000
00001000
80000000
00001000
80000000
00001000
80000000
00001000
80000000
00001000
80000000
00001000
80000000
55555000
ENDCHAR
STARTCHAR t
ENCODING -1 116
SWIDTH 0 0
DWIDTH 20 0
BBX 20 20 -10 -10
BITMAP
aaaaa000
00001000
80000000
00001000
80000000
00001000
80000000
00001000
80000000
00001000
80000000
00001000
80000000
00001000
80000000
00001000
80000000
00001000
80000000
55555000
ENDCHAR
STARTCHAR u
ENCODING -1 117
SWIDTH 0 0
DWIDTH 20 0
BBX 20 20 -10 -10
BITMAP
aaaaa000
00001000
80000000
00001000
80000000
00001000
80000000
00001000
80000000
00001000
80000000
00001000
80000000
00001000
80000000
00001000
80000000
00001000
80000000
55555000
ENDCHAR
STARTCHAR v
ENCODING -1 118
SWIDTH 0 0
DWIDTH 20 0
BBX 20 20 -10 -10
BITMAP
aaaaa000
00001000
80000000
00001000
80000000
00001000
80000000
00001000
80000000
00001000
80000000
00001000
80000000
00001000
80000000
00001000
80000000
00001000
80000000
55555000
ENDCHAR
STARTCHAR w
ENCODING -1 119
SWIDTH 0 0
DWIDTH 20 0
BBX 20 20 -10 -10
BITMAP
aaaaa000
00001000
80000000
00001000
80000000
00001000
80000000
00001000
80000000
00001000
80000000
00001000
80000000
00001000
80000000
00001000
80000000
00001000
80000000
55555000
ENDCHAR
STARTCHAR x
ENCODING -1 120
SWIDTH 0 0
DWIDTH 20 0
BBX 20 20 -10 -10
BITMAP
aaaaa000
00001000
80000000
00001000
80000000
00001000
80000000
00001000
80000000
00001000
80000000
00001000
80000000
00001000
80000000
00001000
80000000
00001000
80000000
55555000
ENDCHAR
ENDFONT
